<svg xmlns="http://www.w3.org/2000/svg" version="1.1" xmlns:xlink="http://www.w3.org/1999/xlink" xmlns:svgjs="http://svgjs.dev/svgjs" width="1500" height="583" viewBox="0 0 1500 583"><g transform="matrix(1,0,0,1,-0.9090909090911055,-0.3980082860211951)"><svg viewBox="0 0 396 154" data-background-color="#ffffff" preserveAspectRatio="xMidYMid meet" height="583" width="1500" xmlns="http://www.w3.org/2000/svg" xmlns:xlink="http://www.w3.org/1999/xlink"><g id="tight-bounds" transform="matrix(1,0,0,1,0.24000000000003752,0.10513426423200656)"><svg viewBox="0 0 395.5199999999999 153.789731471536" height="153.789731471536" width="395.5199999999999"><g><svg viewBox="0 0 395.52000000000004 153.78973147153602" height="153.789731471536" width="395.5199999999999"><g><svg viewBox="0 0 395.52000000000004 153.78973147153602" height="153.78973147153602" width="395.52000000000004"><g id="textblocktransform"><svg viewBox="0 0 395.52000000000004 153.78973147153602" height="153.78973147153602" width="395.52000000000004" id="textblock"><g><svg viewBox="0 0 395.52000000000004 153.78973147153602" height="153.78973147153602" width="395.52000000000004"><g transform="matrix(1,0,0,1,0,0)"><svg width="395.52000000000004" viewBox="0.65 -34.8 93.09 36.199999999999996" height="153.78973147153602" data-palette-color="#f9e17e"><path d="M10.9-1.15L10.9-1.15Q10.85-0.9 10.63-0.48 10.4-0.05 10.1-0.05L10.1-0.05Q9.75-0.05 9.5-0.33 9.25-0.6 9.25-0.85L9.25-0.85Q9.45-1.25 9.45-1.35L9.45-1.35Q9.6-2 10.1-2L10.1-2Q10.4-2 10.65-1.75L10.65-1.75Q10.7-1.55 10.9-1.15ZM24.6-2.1L24.6-2.1 24.75-2.3Q25-2.4 25.35-2.4L25.35-2.4Q25.85-2.4 26.03-2.08 26.2-1.75 26.15-1.25L26.15-1.25Q25.65-0.6 25.05-0.45L25.05-0.45 24.95-0.45Q24.65-0.45 24.53-0.6 24.4-0.75 24.25-1L24.25-1Q24.25-1.35 24.35-1.55L24.35-1.55Q24.45-1.65 24.6-2.1ZM1.2-18.85L1.2-18.85Q1.2-19.15 1.05-19.2L1.05-19.2 0.85-19.5Q0.95-19.85 1.15-20.03 1.35-20.2 1.55-20.2L1.55-20.2Q1.8-20.2 1.95-20L1.95-20Q2.1-19.75 2.02-19.48 1.95-19.2 1.85-18.95L1.85-18.95Q1.6-18.9 1.45-18.88 1.3-18.85 1.2-18.85ZM16.2-13.4L16.2-13.4Q16.25-13.4 16.28-13.43 16.3-13.45 16.4-13.45L16.4-13.45Q16.6-13.45 16.65-13.3L16.65-13.3Q16.85-13.2 17.15-13.2L17.15-13.2Q17.4-12.95 17.63-12.75 17.85-12.55 17.95-12.15L17.95-12.15Q17.95-11.75 18-11.55L18-11.55Q18-11.4 18-11.23 18-11.05 17.9-10.9L17.9-10.9Q17.8-10.45 17.75-10.33 17.7-10.2 17.6-10.1L17.6-10.1Q17.4-10 17.15-10L17.15-10Q16.85-10.1 16.85-10.35L16.85-10.35Q16.75-10.6 16.55-10.7L16.55-10.7Q16.55-11.1 16.3-11.25L16.3-11.25Q15.9-11.95 15.88-12.55 15.85-13.15 16.2-13.4ZM24.55-3.75L24.55-3.75Q24.6-3.95 24.73-4.28 24.85-4.6 25.15-4.6L25.15-4.6Q25.25-4.6 25.3-4.55L25.3-4.55Q25.6-4.25 25.5-3.85L25.5-3.85Q25.4-3.4 25.1-3.4L25.1-3.4Q24.95-3.4 24.9-3.45L24.9-3.45Q24.6-3.55 24.55-3.75ZM1-21.35L1-21.35Q1.1-21.6 0.95-21.73 0.8-21.85 0.7-21.95L0.7-21.95Q0.75-22.75 1.55-23.25L1.55-23.25Q1.95-23 2.27-22.75 2.6-22.5 2.7-22L2.7-22Q2.65-21.15 1.85-21.05L1.85-21.05Q1.7-21.05 1.4-21.15L1.4-21.15Q1.3-21.25 1.2-21.28 1.1-21.3 1-21.35ZM8.05-15.25L7.95-15.2Q7.9-15.45 7.75-15.55 7.6-15.65 7.35-15.75L7.35-15.75Q7.05-15.65 6.98-15.5 6.9-15.35 6.8-15.05L6.8-15.05Q6.7-14.8 6.68-14.63 6.65-14.45 6.65-14.15L6.65-14.15 6.5-13.05Q6.35-12.5 6.65-12.05L6.65-12.05Q6.6-11.75 6.58-11.43 6.55-11.1 6.6-10.75L6.6-10.75 6.6-9.5Q6.55-9.35 6.65-8.95L6.65-8.95Q6.65-7.95 6.75-7.05L6.75-7.05Q6.8-6.75 6.78-6.43 6.75-6.1 6.7-5.8L6.7-5.8Q6.6-5.3 6.8-5.1L6.8-5.1Q7.05-4.9 7.1-4.65L7.1-4.65Q7.35-4.5 7.55-4.38 7.75-4.25 7.9-4L7.9-4Q8-3.6 8.1-3.4L8.1-3.4Q8.25-3.1 8.1-2.75L8.1-2.75Q8.35-2.35 8.25-2.15 8.15-1.95 8.05-1.8L8.05-1.8Q7.6-1.35 7.6-1L7.6-1Q7.35-0.45 6.85-0.4L6.85-0.4Q6.55-0.3 6.3-0.2 6.05-0.1 5.8 0.1L5.8 0.1Q5.55 0.15 5.43 0.15 5.3 0.15 5.2 0.15L5.2 0.15Q5 0.1 4.7 0.1L4.7 0.1Q4.45 0.1 4.35 0.15L4.35 0.15Q4.15 0.2 4.03 0.23 3.9 0.25 3.75 0.25L3.75 0.25Q3.3 0.05 3.18 0.05 3.05 0.05 3 0.05L3 0.05Q2.95 0.05 2.75-0.05L2.75-0.05Q2.55-0.15 2.35-0.15L2.35-0.15Q1.9-0.15 1.6-0.7L1.6-0.7Q1.35-1.05 1.4-1.15L1.4-1.15Q1.4-1.25 1.35-1.4 1.3-1.55 1.25-1.65L1.25-1.65Q1.15-1.95 1.13-2.08 1.1-2.2 1.05-2.3L1.05-2.3Q1.05-2.55 1.03-2.7 1-2.85 0.95-2.95L0.95-2.95Q0.75-3.55 0.65-3.85L0.65-3.85Q0.9-5.3 1.2-6.28 1.5-7.25 1.9-7.95L1.9-7.95Q2.1-8.65 2.15-8.88 2.2-9.1 2.15-9.2L2.15-9.2Q2.15-9.3 2.1-9.63 2.05-9.95 2.15-10.1L2.15-10.1 2.15-10.65Q2.15-10.8 2.18-10.98 2.2-11.15 2.35-11.35L2.35-11.35Q2.5-11.75 2.5-12.05L2.5-12.05Q2.65-12.55 2.68-12.88 2.7-13.2 2.75-13.45L2.75-13.45Q2.8-13.7 2.85-14 2.9-14.3 2.95-14.6L2.95-14.6Q3-14.85 3-15.03 3-15.2 3-15.4L3-15.4Q2.95-15.75 3.1-16L3.1-16 3.1-16.65Q3.1-16.95 3.08-17.07 3.05-17.2 3.1-17.35L3.1-17.35Q3.1-17.55 3-17.75L3-17.75Q3.1-17.95 3.13-18.15 3.15-18.35 3.2-18.55L3.2-18.55Q3.25-18.7 3.25-18.85 3.25-19 3.3-19.15L3.3-19.15Q3.35-19.4 3.35-19.6 3.35-19.8 3.4-20L3.4-20Q3.4-20.35 3.55-20.55L3.55-20.55Q3.55-21.1 3.7-21.1L3.7-21.1Q3.55-21.5 3.55-21.85L3.55-21.85Q3.5-22 3.43-22.18 3.35-22.35 3.25-22.55L3.25-22.55Q3.25-22.8 3.23-22.98 3.2-23.15 3.1-23.35L3.1-23.35Q2.95-23.7 3-24.2L3-24.2Q2.95-24.55 2.93-24.88 2.9-25.2 2.95-25.45L2.95-25.45Q2.95-26.05 2.65-26.35L2.65-26.35Q2.55-26.5 2.53-26.63 2.5-26.75 2.45-26.85L2.45-26.85Q2.4-27.1 2.2-27.25L2.2-27.25Q2.15-27.35 2.15-27.45 2.15-27.55 2.1-27.65L2.1-27.65Q1.9-28.1 1.9-28.7L1.9-28.7Q1.9-28.9 2.1-29.05L2.1-29.05Q2.05-29.3 2-29.63 1.95-29.95 2.2-30.05L2.2-30.05Q2.1-30.3 2.23-30.53 2.35-30.75 2.45-30.85L2.45-30.85Q2.45-31 2.7-31.25L2.7-31.25Q3.1-31.45 3.4-32L3.4-32Q3.55-32.25 3.88-32.27 4.2-32.3 4.45-32.3L4.45-32.3Q4.65-32.3 4.95-32.2L4.95-32.2Q5.2-32.25 5.38-32.27 5.55-32.3 5.75-32.3L5.75-32.3Q6.2-32.3 6.4-32.05L6.4-32.05Q6.75-32.05 6.95-31.9L6.95-31.9Q7.1-31.8 7.5-31.6L7.5-31.6Q7.65-31.25 8.05-31L8.05-31Q8.4-30.7 8.53-30.33 8.65-29.95 8.7-29.7L8.7-29.7Q8.75-29.6 8.75-29.45 8.75-29.3 8.8-29.15L8.8-29.15Q8.85-28.85 8.9-28.55 8.95-28.25 9-28L9-28Q9.1-27.75 9.15-27.45 9.2-27.15 9.2-26.8L9.2-26.8Q9.1-26.1 9.22-25.73 9.35-25.35 9.6-24.95L9.6-24.95Q9.65-23.5 10.4-22.25L10.4-22.25Q10.45-22.1 10.5-21.85 10.55-21.6 10.6-21.35L10.6-21.35Q10.7-20.9 10.85-20.7L10.85-20.7Q10.95-20.3 10.95-20.1L10.95-20.1Q11.1-19.75 11.2-19.5 11.3-19.25 11.4-19.1L11.4-19.1Q11.6-18.6 11.65-18.4L11.65-18.4Q12.3-17.75 12.55-16.65L12.55-16.65Q12.65-16.5 12.75-16.05L12.75-16.05Q12.75-15.7 12.9-15.4L12.9-15.4Q13.2-14.9 13.2-14.55L13.2-14.55Q13.15-14.2 13.35-13.95L13.35-13.95Q13.55-13.75 13.6-13.65L13.6-13.65Q13.7-13.45 13.83-13.25 13.95-13.05 14.15-12.9L14.15-12.9Q14.3-12.8 14.4-12.45L14.4-12.45Q14.8-12.15 14.95-11.75L14.95-11.75Q15.05-11.55 15.18-11.38 15.3-11.2 15.45-11.1L15.45-11.1Q15.55-10.8 15.68-10.55 15.8-10.3 16-10.05L16-10.05Q16.15-9.85 16.28-9.6 16.4-9.35 16.55-9.05L16.55-9.05Q16.65-8.95 16.75-8.8 16.85-8.65 16.95-8.55L16.95-8.55Q17.25-8.2 17.35-8.1L17.35-8.1Q17.8-7.85 18-7.55L18-7.55Q18.1-7.4 18.23-7.23 18.35-7.05 18.55-6.9L18.55-6.9Q18.65-7 18.78-7.15 18.9-7.3 19-7.4L19-7.4Q19.1-7.5 19.2-7.65 19.3-7.8 19.4-7.95L19.4-7.95Q19.35-8.25 19.4-8.6L19.4-8.6 19.4-9.35Q19.2-9.8 19.25-10.05L19.25-10.05Q19.3-10.35 19.15-10.6L19.15-10.6 19.15-11.45Q18.9-11.8 18.95-12.05L18.95-12.05Q19-12.25 19-12.43 19-12.6 19-12.75L19-12.75Q19.1-13.05 19.05-13.2L19.05-13.2Q19-13.4 19.15-13.65L19.15-13.65 19.15-14.3Q19.15-14.85 19.25-15.05L19.25-15.05Q19.15-15.45 19.23-15.95 19.3-16.45 19.4-16.85L19.4-16.85Q19.15-17.25 19.15-17.68 19.15-18.1 19.15-18.55L19.15-18.55Q19.1-19.05 19.03-19.45 18.95-19.85 18.7-20.25L18.7-20.25Q18.85-20.45 18.85-20.95L18.85-20.95Q18.75-21.25 18.9-21.7L18.9-21.7 19.15-22.8Q19.15-23.05 19.2-23.28 19.25-23.5 19.35-23.75L19.35-23.75Q19.3-24 19.35-24.2L19.35-24.2Q19.4-24.45 19.43-24.75 19.45-25.05 19.35-25.45L19.35-25.45Q19.2-25.9 19.35-26.25L19.35-26.25Q19.3-26.45 19.28-26.68 19.25-26.9 19.3-27.2L19.3-27.2Q19.35-27.8 19.3-28.15L19.3-28.15Q19.25-28.75 19.3-29.05L19.3-29.05Q19.35-29.25 19.35-29.6L19.35-29.6 19.25-30.05Q19.25-30.2 19.25-30.35 19.25-30.5 19.3-30.75L19.3-30.75Q19.3-31.1 19.15-31.3L19.15-31.3Q19.35-31.75 19.3-32.4L19.3-32.4Q19.2-32.95 19.55-33.45L19.55-33.45Q20.2-34.05 20.55-34.1L20.55-34.1Q20.8-34.15 20.95-34.15 21.1-34.15 21.15-34.2L21.15-34.2Q21.5-34.15 21.65-34.15 21.8-34.15 21.9-34.1L21.9-34.1Q22-34 22.13-33.98 22.25-33.95 22.35-33.9L22.35-33.9 22.7-33.75Q22.8-33.7 22.88-33.68 22.95-33.65 23.05-33.6L23.05-33.6Q23.2-33.45 23.35-33.3 23.5-33.15 23.6-32.95L23.6-32.95Q23.8-32.5 24.25-32.35L24.25-32.35Q24.4-31.95 24.48-31.6 24.55-31.25 24.6-31.05L24.6-31.05Q24.6-30.8 24.63-30.6 24.65-30.4 24.7-30.15L24.7-30.15Q24.6-29.95 24.6-29.8L24.6-29.8Q24.6-29.6 24.4-29.5L24.4-29.5Q24.5-29.25 24.35-29.05L24.35-29.05Q24.2-28.8 24.35-28.6L24.35-28.6Q24.25-28.2 24.13-27.73 24-27.25 23.9-26.7L23.9-26.7 23.45-24.6Q23.3-24.45 23.2-24.15L23.2-24.15 23.05-23.65Q23-23.3 23.03-22.98 23.05-22.65 23.1-22.35L23.1-22.35Q23.1-22.05 23.1-21.73 23.1-21.4 23.05-21.1L23.05-21.1Q22.9-20.85 22.93-20.63 22.95-20.4 23-20L23-20Q23.05-19.85 23.05-19.55L23.05-19.55Q23.05-18.95 23.25-18.5L23.25-18.5Q23.35-18.1 23.35-17.85L23.35-17.85Q23.7-17.35 23.45-16.9L23.45-16.9Q23.25-16.4 23.18-15.83 23.1-15.25 23.25-14.6L23.25-14.6Q23.4-13.95 23.4-13.4 23.4-12.85 23.3-12.55L23.3-12.55Q23-11.9 23.1-11.35L23.1-11.35Q23.1-11.2 23.1-11.03 23.1-10.85 23.15-10.7L23.15-10.7 23.3-10.1Q23.35-9.85 23.3-9.55L23.3-9.55Q23.5-8.55 23.35-7.45L23.35-7.45Q23.15-6.35 23.05-5.5L23.05-5.5Q23.05-5 23-4.95L23-4.95Q22.8-4 23-3.45L23-3.45Q23.15-2.75 22.95-2.2L22.95-2.2Q22.8-1.7 22.73-1.53 22.65-1.35 22.6-1.25L22.6-1.25Q22.55-1 22.3-0.85L22.3-0.85Q22.2-0.65 22.1-0.5 22-0.35 21.9-0.25L21.9-0.25Q21.8-0.15 21.73 0.03 21.65 0.2 21.55 0.35L21.55 0.35Q21 0.5 20.7 0.85L20.7 0.85Q20.45 1 19.98 1.2 19.5 1.4 19.1 1.4L19.1 1.4Q18.8 1.4 18.55 1.25L18.55 1.25Q18.45 1.15 18.38 1.1 18.3 1.05 18.2 1L18.2 1Q17.8 0.6 17.65 0.48 17.5 0.35 17.4 0.2L17.4 0.2Q17.2 0.1 17.1-0.05 17-0.2 16.9-0.4L16.9-0.4Q16.8-0.55 16.7-0.68 16.6-0.8 16.5-1L16.5-1Q16.4-1.4 16.25-1.5L16.25-1.5Q16.05-1.55 16.05-1.85L16.05-1.85Q15.8-2.35 15.65-2.55 15.5-2.75 15.35-3L15.35-3Q15.2-3.25 15.03-3.48 14.85-3.7 14.95-4.1L14.95-4.1Q14.75-4.7 14.55-4.7L14.55-4.7Q14.25-5 14.15-5.55L14.15-5.55Q14.05-5.8 13.98-5.95 13.9-6.1 13.85-6.2L13.85-6.2Q13.75-6.3 13.7-6.4 13.65-6.5 13.55-6.6L13.55-6.6Q13.45-7.2 13.2-7.4L13.2-7.4Q13.05-7.5 12.93-7.68 12.8-7.85 12.7-8L12.7-8Q12.3-8.3 12.2-8.4 12.1-8.5 12.05-8.6L12.05-8.6Q11.95-9 11.8-9.1L11.8-9.1Q11.55-9.5 11.38-9.75 11.2-10 11.1-10.15L11.1-10.15Q10.8-10.45 10.65-11L10.65-11Q10.4-11.25 10.2-11.65L10.2-11.65Q9.95-11.75 9.88-11.93 9.8-12.1 9.75-12.3L9.75-12.3Q9.6-12.4 9.5-12.53 9.4-12.65 9.3-12.75L9.3-12.75Q9.4-13.15 9.2-13.25L9.2-13.25Q9-13.4 9.05-13.75L9.05-13.75Q8.8-13.9 8.7-14.35L8.7-14.35Q8.65-14.75 8.35-15.03 8.05-15.3 8.05-15.25L8.05-15.25ZM17.95-15.55L17.95-15.55Q17.85-14.8 17.5-14.55L17.5-14.55Q16.9-14.55 16.6-15L16.6-15Q16.6-15.4 16.8-15.55L16.8-15.55Q16.85-15.65 16.9-15.75 16.95-15.85 17.05-15.95L17.05-15.95Q17.15-16 17.3-16L17.3-16Q17.55-16 17.68-15.83 17.8-15.65 17.95-15.55ZM26.95-8L27.2-8Q27.25-7.8 27.5-7.55L27.5-7.55Q27.5-7.3 27.52-6.98 27.55-6.65 27.55-6.3L27.55-6.3Q27.55-5.6 27.1-5.45L27.1-5.45Q26.5-5.7 26.27-5.95 26.05-6.2 25.9-6.4L25.9-6.4Q25.65-6.65 25.8-7.25L25.8-7.25Q26-7.4 26.12-7.53 26.25-7.65 26.4-7.8L26.4-7.8Q26.6-8 26.95-8L26.95-8ZM27-8.95L27-8.95Q26.45-9.3 26.37-9.5 26.3-9.7 26.4-10.05L26.4-10.05Q26.5-10.1 26.95-10.35L26.95-10.35Q27.15-10.45 27.25-10.45L27.25-10.45Q27.55-10.45 27.65-10.05L27.65-10.05Q27.7-9.6 27.35-9.15L27.35-9.15Q27.2-8.95 27-8.95ZM32.65-32.45L32.65-32.45 32.8-32.25Q33.2-32.25 33.35-32.2L33.35-32.2Q33.45-32.15 33.57-32.15 33.7-32.15 33.85-32.1L33.85-32.1Q34.15-32.2 34.4-32.23 34.65-32.25 34.95-32.25L34.95-32.25Q35.2-32.4 35.47-32.43 35.75-32.45 36.1-32.45L36.1-32.45Q36.5-32 36.6-31.78 36.7-31.55 36.8-31.45L36.8-31.45 36.95-30.85Q37.35-30.25 37.17-29.55 37-28.85 36.75-28.2L36.75-28.2Q36.4-27.85 36-27.68 35.6-27.5 35.15-27.25L35.15-27.25Q34.75-26.9 34.5-26.78 34.25-26.65 34.1-26.6L34.1-26.6Q33.9-26.5 33.85-26.2L33.85-26.2Q33.8-26 33.77-25.8 33.75-25.6 33.8-25.35L33.8-25.35Q33.8-24.55 33.55-23.65L33.55-23.65Q33.45-23.15 33.25-22.9L33.25-22.9Q33.25-22.5 33.7-21.95L33.7-21.95Q33.85-21.7 33.97-21.48 34.1-21.25 34-20.85L34-20.85 33.85-20.5Q33.75-20.2 33.75-20.05L33.75-20.05Q33.65-19.6 33.75-19.1L33.75-19.1 33.75-18.1Q33.65-17.85 33.75-17.6L33.75-17.6 33.75-17.1Q33.7-16.5 33.75-16.2L33.75-16.2 33.75-15.6Q33.75-15.1 33.8-14.85L33.8-14.85Q33.9-14.45 33.8-14.05L33.8-14.05Q33.8-13.75 33.7-13.35L33.7-13.35Q33.65-13.1 33.67-12.93 33.7-12.75 33.75-12.55L33.75-12.55Q33.75-12 33.7-11.75L33.7-11.75 33.55-11.35Q33.35-10.9 33.3-10.55L33.3-10.55Q33.2-10.05 33.45-9.8L33.45-9.8Q33.55-9.5 33.5-9.4L33.5-9.4Q33.6-9.15 33.6-9.05 33.6-8.95 33.65-8.85L33.65-8.85Q33.75-8.2 34.05-7.3 34.35-6.4 35.15-6.25L35.15-6.25Q35.85-6.15 35.97-5.88 36.1-5.6 36.2-5.2L36.2-5.2Q36.3-4.95 36.25-4.8L36.25-4.8Q36.2-4.7 36.2-4.6 36.2-4.5 36.15-4.4L36.15-4.4Q36.15-4 36-3.53 35.85-3.05 35.55-2.75L35.55-2.75Q34.95-1.95 34.3-1.65L34.3-1.65Q33.7-1.55 33.35-1.45L33.35-1.45 32.7-1.45Q32.45-1.45 32.25-1.55L32.25-1.55Q32.1-1.6 31.85-1.6L31.85-1.6 31.7-1.6 31.6-1.6Q31.45-1.6 31.35-1.65L31.35-1.65Q31.2-1.55 30.9-1.55L30.9-1.55Q30.5-1.55 30.35-1.5L30.35-1.5Q29.8-1.2 29.55-1.07 29.3-0.95 28.95-0.85L28.95-0.85Q28.5-0.85 28.35-0.9L28.35-0.9 27.95-0.9Q27.35-0.95 27.25-1.15L27.25-1.15Q27.2-1.25 27.12-1.28 27.05-1.3 26.95-1.35L26.95-1.35Q26.65-1.8 26.65-1.75L26.65-1.75Q26.55-2 26.5-2.13 26.45-2.25 26.4-2.35L26.4-2.35Q26.25-2.5 26.35-2.75L26.35-2.75Q26.4-3.3 26.55-3.58 26.7-3.85 26.85-4.05L26.85-4.05 27.25-4.4Q27.4-4.55 27.5-4.75L27.5-4.75Q27.85-4.8 28.15-5.1L28.15-5.1Q28.3-5.25 28.7-5.55L28.7-5.55Q28.7-6.2 28.65-6.4L28.65-6.4Q28.65-6.65 28.8-6.75L28.8-6.75Q28.7-7.25 28.95-7.7L28.95-7.7Q29.05-8.15 28.95-8.6L28.95-8.6 28.95-8.95Q28.75-9.7 28.65-9.8L28.65-9.8Q28.45-10.05 28.45-10.5L28.45-10.5 28.55-10.9Q28.55-11.4 28.65-11.55L28.65-11.55Q28.8-11.8 28.87-11.95 28.95-12.1 28.95-12.35L28.95-12.35Q28.95-12.65 29.05-12.75L29.05-12.75Q28.95-13.05 29.05-13.45L29.05-13.45Q29.1-13.7 29.07-13.85 29.05-14 29-14.15L29-14.15Q29.2-14.7 29.2-15.4L29.2-15.4Q29.25-16.2 29.45-16.75L29.45-16.75Q29.5-17 29.52-17.18 29.55-17.35 29.5-17.55L29.5-17.55Q29.4-18.1 29.42-18.53 29.45-18.95 29.55-19.5L29.55-19.5Q29.55-19.8 29.6-19.85L29.6-19.85Q29.55-20.2 29.62-20.43 29.7-20.65 29.8-20.9L29.8-20.9Q30.05-21.3 29.75-21.7L29.75-21.7Q29.55-22.35 29.5-22.53 29.45-22.7 29.5-22.8L29.5-22.8 29.5-23.1Q29.5-23.55 29.6-23.7L29.6-23.7Q29.75-23.95 29.75-24.2L29.75-24.2Q29.65-24.5 29.6-24.7 29.55-24.9 29.6-25.05L29.6-25.05Q29.6-25.5 29.57-25.65 29.55-25.8 29.6-25.9L29.6-25.9 29.45-26.45Q29.35-26.5 29.25-26.8L29.25-26.8Q29.15-26.9 29.05-26.98 28.95-27.05 28.95-27.3L28.95-27.3Q28.65-27.45 28.65-27.8L28.65-27.8Q28.45-28.45 27.8-28.9L27.8-28.9Q27.6-29 27.45-29.15 27.3-29.3 27.15-29.45L27.15-29.45Q26.95-29.9 27-29.95L27-29.95Q27.15-30.35 27.22-30.58 27.3-30.8 27.4-31.05L27.4-31.05Q27.5-31.55 27.8-31.7L27.8-31.7Q28.2-31.75 28.85-32.1L28.85-32.1Q29.2-32.3 29.55-32.3L29.55-32.3Q29.8-32.3 29.95-32.25L29.95-32.25Q30.1-32.4 30.35-32.4L30.35-32.4Q30.4-32.4 30.45-32.38 30.5-32.35 30.6-32.35L30.6-32.35 31.35-32.35Q31.6-32.4 31.8-32.45 32-32.5 32.25-32.5L32.25-32.5Q32.5-32.5 32.65-32.45ZM33.75-34.8L33.75-34.8 33.95-34.7Q33.9-34.45 34.05-34.2L34.05-34.2Q34.15-33.95 33.95-33.75L33.95-33.75Q33.6-33.65 33.45-33.25L33.45-33.25Q33.35-33.2 33.1-33.2L33.1-33.2Q32.8-33.2 32.55-33.35L32.55-33.35Q32.05-33.75 32.35-34.15L32.35-34.15Q32.6-34.5 32.97-34.65 33.35-34.8 33.75-34.8ZM36.85-25.15L36.85-25.15 36.9-25.05Q36.4-24.55 36.25-24.25L36.25-24.25Q36.05-23.9 35.5-23.9L35.5-23.9Q34.95-25.25 35.22-25.75 35.5-26.25 36.05-26.25L36.05-26.25Q36.4-26.25 36.55-26.2L36.55-26.2Q36.7-26 36.82-25.78 36.95-25.55 36.85-25.15ZM30.65 0.9L30.65 0.9Q30.45 0.7 30.25 0.7L30.25 0.7Q30.6 0.15 30.95-0.2 31.3-0.55 31.8-0.55L31.8-0.55Q32.05-0.55 32.15-0.5L32.15-0.5Q32.7 0.2 32.32 0.5 31.95 0.8 31.6 0.9L31.6 0.9Q31.35 1 31.05 1L31.05 1Q30.95 0.95 30.85 0.95 30.75 0.95 30.65 0.9ZM37.85-3.05L37.85-3.05 38.05-3.45Q38.3-3.75 38.65-3.75L38.65-3.75Q39.2-3.75 39.25-3.25L39.25-3.25Q39.35-2.85 39.2-2.4 39.05-1.95 38.8-1.7L38.8-1.7Q38.2-1.45 38.1-1.55L38.1-1.55Q37.7-1.9 37.62-2.1 37.55-2.3 37.65-2.45L37.65-2.45Q37.75-2.65 37.85-3.05ZM58.75-3.85L58.75-3.85Q58.9-3.85 59.1-4.05L59.1-4.05Q59.2-4.15 59.5-4.15L59.5-4.15Q59.6-4 59.72-3.88 59.85-3.75 59.85-3.35L59.85-3.35Q59.85-2.8 59.55-2.35L59.55-2.35Q59.45-2.25 59.25-2.1 59.05-1.95 58.95-1.95L58.95-1.95Q58.75-2.1 58.62-2.23 58.5-2.35 58.45-2.4L58.45-2.4Q58.4-2.4 58.3-2.7L58.3-2.7Q58.25-2.95 58.45-3.25L58.45-3.25Q58.7-3.6 58.75-3.85ZM39.3-26.2L39.3-26.2Q39.2-26.05 39.15-25.9 39.1-25.75 38.85-25.65L38.85-25.65Q38.6-25.7 38.37-25.75 38.15-25.8 38.05-26.05L38.05-26.05Q38.05-26.15 38.07-26.25 38.1-26.35 38.05-26.45L38.05-26.45Q38.05-26.65 38.15-26.8L38.15-26.8Q38.1-27.25 38.55-27.25L38.55-27.25Q38.85-27.25 39-27.1L39-27.1Q39.1-26.95 39.25-26.78 39.4-26.6 39.3-26.2ZM48.2-21.05L48.2-21.05 47.95-21.4Q47.95-22 48.3-22.18 48.65-22.35 49.1-22.35L49.1-22.35Q49.5-22.1 49.4-21.65L49.4-21.65Q49.05-20.9 48.6-20.9L48.6-20.9Q48.35-20.9 48.2-21.05ZM49.4-31L49.4-31 49.7-31.1 49.95-31.1Q50.35-31 50.6-30.98 50.85-30.95 51.1-30.9L51.1-30.9Q51.6-30.8 51.9-30.45L51.9-30.45Q52.4-30.45 53.15-30.2L53.15-30.2Q53.45-29.7 53.75-29.13 54.05-28.55 54.15-28L54.15-28 54.45-27.65Q54.55-27.4 54.75-27.13 54.95-26.85 55.35-26.75L55.35-26.75Q55.4-26.7 55.55-26.7L55.55-26.7Q55.8-26.7 56.15-26.95L56.15-26.95Q56.3-27.05 56.45-27.3L56.45-27.3Q56.55-27.4 56.65-27.48 56.75-27.55 56.85-27.6L56.85-27.6Q57.15-27.9 57.2-27.9L57.2-27.9Q57.3-28.15 57.6-28.35L57.6-28.35Q57.85-29 57.9-29.05L57.9-29.05 58.05-29.35Q59.1-30.2 59.7-31.05L59.7-31.05Q60.55-31.65 60.8-31.65L60.8-31.65Q60.95-31.65 61.05-31.6L61.05-31.6Q61.25-31.8 61.65-31.8L61.65-31.8Q61.9-31.85 62.12-31.9 62.35-31.95 62.6-32.05L62.6-32.05Q62.75-32.1 63-32.1L63-32.1Q63.3-32.1 63.45-32L63.45-32Q64.15-31.9 64.8-31.9L64.8-31.9Q65.34-31.9 65.87-31.63 66.4-31.35 66.59-31.1L66.59-31.1Q66.8-30.8 66.95-30.65L66.95-30.65Q67.25-30.4 67.34-30.05L67.34-30.05Q67.45-29.65 67.75-29.55L67.75-29.55Q67.84-28.95 67.95-28.78 68.05-28.6 68.15-28.5L68.15-28.5Q68.4-28.25 68.45-27.9 68.5-27.55 68.4-27.25L68.4-27.25Q68.34-27.1 68.34-26.93 68.34-26.75 68.34-26.6L68.34-26.6Q68.7-25.95 68.45-25.15L68.45-25.15Q68.2-24.4 68.2-23.75L68.2-23.75Q68.15-22.95 67.9-22.35L67.9-22.35Q67.8-22.05 67.7-21.75 67.59-21.45 67.55-21.15L67.55-21.15Q67.5-20.95 67.5-20.6L67.5-20.6Q67.55-20.3 67.3-20.1L67.3-20.1Q67.34-20 67.3-19.8 67.25-19.6 67.15-19.5L67.15-19.5Q67.15-18.85 66.95-18.65L66.95-18.65Q66.75-18.35 66.75-18L66.75-18Q66.59-17.6 66.8-17.4L66.8-17.4Q67-16.9 66.95-16.3L66.95-16.3Q66.84-15.9 66.9-15.7 66.95-15.5 67.05-15.4L67.05-15.4Q67.15-15.2 67.12-14.98 67.09-14.75 67-14.6L67-14.6Q66.95-14.45 66.95-14.05L66.95-14.05 66.95-13.75Q66.95-13.45 66.9-13.35L66.9-13.35Q66.84-12.75 66.59-12.65L66.59-12.65Q66.59-12.2 66.34-11.7L66.34-11.7Q66.4-11.5 66.65-11.5L66.65-11.5Q67.4-11.15 67.4-10.5L67.4-10.5Q67.4-10.35 67.3-10.15L67.3-10.15Q67.2-10.05 67.2-9.98 67.2-9.9 67.15-9.8L67.15-9.8Q67.05-9.3 67.17-8.95 67.3-8.6 67.55-8.35L67.55-8.35Q67.65-7.55 67.84-7.35 68.05-7.15 68.3-6.9L68.3-6.9Q68.4-6.7 68.47-6.58 68.55-6.45 68.65-6.3L68.65-6.3Q68.75-6.15 68.84-5.98 68.95-5.8 69.05-5.7L69.05-5.7Q69.2-5.35 69.3-5.05 69.4-4.75 69.4-4.35L69.4-4.35Q69.2-3.95 69.07-3.68 68.95-3.4 68.9-3.15L68.9-3.15Q68.84-2.75 68.5-2.4L68.5-2.4Q68.45-2.15 68.12-1.85 67.8-1.55 67.55-1.5L67.55-1.5 67.4-1.5Q67.2-1.5 67.09-1.6L67.09-1.6Q66.95-1.6 66.82-1.63 66.7-1.65 66.59-1.65L66.59-1.65Q66.3-1.65 66.09-1.55L66.09-1.55Q65.59-1.35 65.15-1.35L65.15-1.35Q64.34-1.35 64.09-1.95L64.09-1.95Q63.85-2 63.65-2.3L63.65-2.3Q63.55-2.4 63.5-2.5 63.45-2.6 63.35-2.7L63.35-2.7Q63.1-3.25 62.95-3.93 62.8-4.6 62.85-5.25L62.85-5.25Q62.65-5.5 62.75-5.85L62.75-5.85Q62.85-6.1 62.95-6.5L62.95-6.5Q62.9-6.8 62.92-6.98 62.95-7.15 62.95-7.25L62.95-7.25Q62.95-7.75 62.9-7.85L62.9-7.85Q62.75-9.25 62.65-10.28 62.55-11.3 62.65-12.1L62.65-12.1Q62.85-12.65 62.7-13.2L62.7-13.2Q62.6-13.75 62.7-14.2L62.7-14.2Q62.7-14.7 62.8-14.8L62.8-14.8Q62.8-15.55 63.1-16.05L63.1-16.05Q63.05-16.55 63.02-16.98 63-17.4 63.25-17.65L63.25-17.65Q63.25-18 63.4-18.15L63.4-18.15 63.55-18.8Q63.65-18.95 63.75-19.4L63.75-19.4Q64.15-19.7 64-20.25L64-20.25Q63.9-20.5 63.85-20.73 63.8-20.95 63.75-21.1L63.75-21.1Q63.75-21.35 63.8-21.45L63.8-21.45Q63.8-21.6 63.82-21.85 63.85-22.1 63.85-22.35L63.85-22.35Q63.75-23 63.95-23.55L63.95-23.55Q64.05-23.85 63.8-24.15L63.8-24.15Q63.65-24.75 63.4-25.03 63.15-25.3 62.85-25.65L62.85-25.65Q62.75-25.9 62.72-26.08 62.7-26.25 62.7-26.45L62.7-26.45Q62.5-26.6 62.15-26.6L62.15-26.6Q62.05-26.6 61.65-26.5L61.65-26.5Q61.55-26.5 61.42-26.45 61.3-26.4 61.15-26.35L61.15-26.35Q61-26.3 60.87-26.25 60.75-26.2 60.7-26.2L60.7-26.2 60.1-25.75Q59.75-25.6 59.55-25.2L59.55-25.2Q59.25-24.9 59.1-24.8L59.1-24.8Q58.7-24.6 58.7-24.1L58.7-24.1Q58.65-23.9 58.5-23.7L58.5-23.7Q58.25-23.1 58.17-22.63 58.1-22.15 58-21.6L58-21.6Q57.9-21.25 57.75-20.85L57.75-20.85Q57.65-20.6 57.6-20.43 57.55-20.25 57.45-20L57.45-20Q57.55-19.5 57.3-19.2L57.3-19.2Q57.15-18.8 57.17-18.45 57.2-18.1 57.3-17.6L57.3-17.6 57.3-16.75Q57.4-16.45 57.32-16.07 57.25-15.7 57.1-15.45L57.1-15.45Q57.15-15.2 57.05-14.7L57.05-14.7Q56.95-14.3 56.85-13.8 56.75-13.3 57-12.65L57-12.65Q57.15-11.9 57.1-11.2L57.1-11.2Q57.1-10.95 57.2-10.55L57.2-10.55Q57.3-10.1 57.25-9.95L57.25-9.95Q57.05-9.65 57.02-9.35 57-9.05 57.1-8.55L57.1-8.55Q57.2-8.25 57.3-8L57.3-8Q57.55-7.7 57.35-7.3L57.35-7.3Q57.45-6.9 57.4-6.75L57.4-6.75Q57.3-6.45 57.3-6.3L57.3-6.3Q57.4-5.6 57.4-5.03 57.4-4.45 57.3-3.95L57.3-3.95 57.15-3.55Q57.05-3.25 57.05-3.1L57.05-3.1Q57.15-2.4 57.05-2.05 56.95-1.7 56.75-1.45L56.75-1.45Q56.45-1.3 56.22-1.15 56-1 55.8-0.9L55.8-0.9Q55.55-0.75 55.35-0.73 55.15-0.7 54.85-0.7L54.85-0.7Q54.6-0.6 54.45-0.58 54.3-0.55 54.05-0.55L54.05-0.55Q53.9-0.65 53.72-0.68 53.55-0.7 53.4-0.7L53.4-0.7Q53.05-0.7 52.67-0.78 52.3-0.85 52.2-1.1L52.2-1.1Q52-1.35 51.7-1.5L51.7-1.5Q51.5-1.65 51.4-1.95L51.4-1.95Q51.35-2.05 51.35-2.13 51.35-2.2 51.3-2.3L51.3-2.3Q51.25-2.5 51.25-2.9L51.25-2.9Q51.25-3.15 51.05-3.35L51.05-3.35Q51-3.55 51.15-3.85L51.15-3.85Q51.3-4.05 51.32-4.2 51.35-4.35 51.35-4.55L51.35-4.55Q51.4-4.85 51.37-4.95 51.35-5.05 51.4-5.15L51.4-5.15Q51.45-5.25 51.45-5.5L51.45-5.5Q51.6-5.9 51.75-6.2 51.9-6.5 52-6.9L52-6.9Q52.05-7.05 52.1-7.18 52.15-7.3 52.25-7.45L52.25-7.45 52.5-7.9Q52.6-8.1 52.65-8.25 52.7-8.4 52.75-8.5L52.75-8.5Q52.65-8.8 52.7-9.1L52.7-9.1Q52.8-9.5 52.55-9.7L52.55-9.7 52.55-10.15Q52.55-10.3 52.65-10.6L52.65-10.6Q52.5-10.65 52.5-10.9L52.5-10.9Q52.55-11.1 52.5-11.25L52.5-11.25Q52.5-11.65 52.65-11.95L52.65-11.95Q52.75-12.3 52.6-12.55L52.6-12.55Q52.6-12.65 52.6-12.8 52.6-12.95 52.55-13.2L52.55-13.2Q52.45-13.5 52.7-13.75L52.7-13.75Q52.55-13.85 52.6-14.05 52.65-14.25 52.75-14.35L52.75-14.35Q52.55-14.65 52.65-14.85L52.65-14.85Q52.55-15.65 52.6-16.32 52.65-17 52.75-17.6L52.75-17.6Q52.75-17.75 52.72-17.9 52.7-18.05 52.75-18.15L52.75-18.15Q52.75-18.8 52.8-18.85L52.8-18.85Q52.75-19.25 52.85-19.58 52.95-19.9 53.05-20.2L53.05-20.2Q53.15-20.45 53.25-20.73 53.35-21 53.3-21.4L53.3-21.4Q53.2-21.5 53.1-21.9L53.1-21.9Q53-22.5 52.75-22.85L52.75-22.85Q52.55-23.05 52.5-23.15L52.5-23.15Q52.5-23.4 52.35-23.45L52.35-23.45Q52.15-23.75 52-23.95L52-23.95Q51.95-24.05 51.9-24.1L51.9-24.1Q51.65-24.6 51.4-24.9 51.15-25.2 50.75-25.6L50.75-25.6Q50.4-25.6 49.87-25.53 49.35-25.45 49.1-25.2L49.1-25.2 48.15-24.4Q47.85-24.15 47.6-23.98 47.35-23.8 47.1-23.6L47.1-23.6Q47-23.45 46.9-23.33 46.8-23.2 46.65-23.1L46.65-23.1Q46.55-22.9 46.3-22.65L46.3-22.65Q46.05-22.4 46-22.15L46-22.15Q45.65-21.6 45.57-21.18 45.5-20.75 45.4-20.25L45.4-20.25Q45.4-19.3 45.15-18.65L45.15-18.65Q45.05-18.35 45.02-18 45-17.65 44.95-17.3L44.95-17.3Q45.2-16.6 44.95-16.1L44.95-16.1Q44.8-15.5 44.85-15.25L44.85-15.25Q44.75-14.4 44.7-13.63 44.65-12.85 44.85-12.05L44.85-12.05Q44.95-11.8 44.97-11.53 45-11.25 45.05-11L45.05-11Q45.15-10.7 45.05-10.35L45.05-10.35Q44.9-9.6 45.1-9.1L45.1-9.1Q45.1-9 45.12-8.85 45.15-8.7 45.1-8.55L45.1-8.55Q45.3-8.2 45.37-7.88 45.45-7.55 45.5-7.25L45.5-7.25Q45.5-6.5 45.7-5.95L45.7-5.95Q45.75-5.65 45.95-5.4L45.95-5.4Q45.95-5.2 45.97-4.95 46-4.7 46.05-4.5L46.05-4.5Q46.15-4.35 46.05-4.1L46.05-4.1Q45.95-3.6 45.6-3.25L45.6-3.25Q45.45-2.8 44.82-2.13 44.2-1.45 43.7-1.45L43.7-1.45 43.4-1.2Q43.2-1 42.95-1L42.95-1Q42.8-1 42.55-1.15L42.55-1.15Q42-1.2 41.7-1.23 41.4-1.25 41.15-1.25L41.15-1.25Q40.7-1.25 40.35-1.5L40.35-1.5Q40.25-1.6 40.25-1.73 40.25-1.85 40.35-1.95L40.35-1.95Q40.25-2.2 40.22-2.43 40.2-2.65 40.15-2.8L40.15-2.8Q40.05-3.2 40.1-3.25L40.1-3.25Q40.15-3.6 40.05-3.9L40.05-3.9 39.9-4.4Q39.95-4.6 39.9-4.9L39.9-4.9Q39.8-5.45 40-5.8L40-5.8Q40.15-6.15 39.9-6.4L39.9-6.4Q39.45-6.95 39.45-6.95L39.45-6.95Q39.1-7.85 39.3-8.1L39.3-8.1Q39.45-8.5 39.45-8.95L39.45-8.95 39.6-9.25Q39.6-9.65 39.9-9.95L39.9-9.95Q40-10.5 40.1-10.7L40.1-10.7Q40.05-11.1 40.1-11.33 40.15-11.55 40.2-11.7L40.2-11.7 40.35-12.5Q40.45-12.7 40.55-13.2L40.55-13.2 40.55-13.65Q40.6-13.95 40.6-14.13 40.6-14.3 40.65-14.45L40.65-14.45Q40.65-14.8 40.8-14.95L40.8-14.95 40.95-16.25 41.05-16.6Q41-17.45 41.05-17.8L41.05-17.8Q41.1-18.1 41-18.45L41-18.45Q40.95-18.75 41-19.15L41-19.15Q41.1-19.5 41.02-19.9 40.95-20.3 40.85-20.55L40.85-20.55Q40.85-20.7 40.82-20.83 40.8-20.95 40.85-21.1L40.85-21.1 40.55-22.4Q40.5-23.05 40.7-23.4L40.7-23.4Q40.6-23.9 40.85-24.05L40.85-24.05Q40.85-24.2 40.85-24.53 40.85-24.85 40.95-25L40.95-25Q40.9-25.4 40.95-25.75L40.95-25.75Q41.2-26.5 41-27L41-27Q40.95-27.3 41-27.55L41-27.55Q40.95-27.65 40.9-27.73 40.85-27.8 40.85-27.9L40.85-27.9Q40.7-28.05 40.6-28.25L40.6-28.25 40.4-28.4Q40.15-28.65 40.05-28.8 39.95-28.95 39.85-29.05L39.85-29.05 39.5-29.55Q39.2-30.1 39.2-30.9L39.2-30.9Q39.4-31.25 39.5-31.55 39.6-31.85 39.7-32.1L39.7-32.1Q39.8-32.6 40.05-32.85L40.05-32.85Q40.1-33.1 40.42-33.38 40.75-33.65 41.05-33.75L41.05-33.75Q41.25-33.8 41.45-33.6L41.45-33.6Q41.6-33.6 41.75-33.58 41.9-33.55 42-33.55L42-33.55Q42.25-33.55 42.55-33.65L42.55-33.65Q42.95-33.85 43.45-33.85L43.45-33.85Q44.15-33.85 44.55-33.3L44.55-33.3Q44.75-33.2 44.85-32.95L44.85-32.95Q44.95-32.8 45.02-32.68 45.1-32.55 45.2-32.45L45.2-32.45Q45.45-31.9 45.62-31.23 45.8-30.55 45.7-29.95L45.7-29.95Q45.95-29.65 45.8-29.35L45.8-29.35Q45.7-29.15 45.7-29 45.7-28.85 45.65-28.7L45.65-28.7 45.6-27.95 45.6-27.45Q45.6-27.35 45.6-27.18 45.6-27 45.55-26.85L45.55-26.85Q46.05-27.15 46.37-27.53 46.7-27.9 46.95-28.3L46.95-28.3Q47.2-28.55 47.25-28.7L47.25-28.7Q47.3-28.8 47.5-29L47.5-29Q47.6-29.15 47.67-29.3 47.75-29.45 47.95-29.55L47.95-29.55Q48.1-29.65 48.4-30.05L48.4-30.05Q48.75-30.3 48.9-30.6L48.9-30.6Q49.15-30.95 49.4-31ZM67.9-13.5L67.9-13.5Q68-13.55 68.3-13.55L68.3-13.55Q68.7-13.55 69.05-13.28 69.4-13 69.2-12.45L69.2-12.45Q69-12.2 68.95-12.05 68.9-11.9 68.84-11.8L68.84-11.8Q68.5-11.7 68.34-11.73 68.2-11.75 68.05-11.75L68.05-11.75Q67.8-11.8 67.8-12.15L67.8-12.15Q67.75-12.25 67.75-12.38 67.75-12.5 67.7-12.6L67.7-12.6Q67.59-12.85 67.8-12.9L67.8-12.9Q67.7-13.05 67.75-13.2 67.8-13.35 67.9-13.5ZM46.65-32.15L46.65-32.15 46.6-32.4Q46.4-32.4 46.4-32.75L46.4-32.75Q46.4-33.05 46.55-33.1L46.55-33.1Q46.7-33.65 47.25-33.65L47.25-33.65Q47.6-33.65 47.8-33.45L47.8-33.45Q48.25-32.9 47.95-32.2L47.95-32.2Q47.75-31.75 47.35-31.75L47.35-31.75Q47.2-31.75 47.1-31.85L47.1-31.85Q47-31.9 46.87-31.98 46.75-32.05 46.65-32.15ZM49.7-32.4L49.7-32.4Q49.55-32.25 49.3-32.25L49.3-32.25Q48.95-32.25 48.8-32.55L48.8-32.55Q48.8-33.25 49.3-33.25L49.3-33.25Q49.55-33.15 49.67-32.95 49.8-32.75 49.7-32.4ZM50.5-23.8L50.5-23.8Q50.95-23.55 50.92-22.95 50.9-22.35 50.45-22.1L50.45-22.1Q49.9-22.15 49.62-22.4 49.35-22.65 49.1-22.95L49.1-22.95Q49.15-23.9 50.2-23.9L50.2-23.9Q50.35-23.9 50.5-23.8ZM62.5-22.15L62.4-21.95 62.1-21.8Q61.95-21.75 61.75-21.75L61.75-21.75Q61.25-21.75 61.05-22.15 60.85-22.55 60.95-23.1L60.95-23.1Q61.05-23.65 61.25-23.75L61.25-23.75Q61.4-23.8 61.5-24.1L61.5-24.1Q61.8-24.2 61.9-24.2L61.9-24.2Q62.35-24.2 62.6-23.85 62.85-23.5 62.75-22.95L62.75-22.95Q62.5-22.3 62.5-22.15L62.5-22.15ZM80.04-5.1L80.04-5.1Q80.09-5.85 80.27-6.05 80.44-6.25 80.64-6.25L80.64-6.25Q81.19-6.25 81.09-5.55L81.09-5.55Q80.74-5.05 80.29-5.05L80.29-5.05Q80.19-5.05 80.17-5.08 80.14-5.1 80.04-5.1ZM82.69-4.95L82.69-4.95 82.59-5.1Q82.79-5.35 82.92-5.45 83.04-5.55 83.09-5.65L83.09-5.65Q83.84-6 84.29-6L84.29-6Q84.79-6 85.09-5.7L85.09-5.7Q85.34-5.45 85.47-5.1 85.59-4.75 85.34-4.4L85.34-4.4Q85.14-4.35 84.89-4.1L84.89-4.1Q84.69-4 84.34-4L84.34-4Q84.04-4.05 83.77-4.1 83.49-4.15 83.19-4.35L83.19-4.35Q82.79-4.45 82.74-4.6 82.69-4.75 82.69-4.95ZM92.69-6.7L92.69-6.7Q93.24-6.45 93.54-5.88 93.84-5.3 93.69-4.6L93.69-4.6Q93.44-4.25 93.24-4.2L93.24-4.2 93.09-4.2Q92.84-4.2 92.74-4.15L92.74-4.15 92.54-4.3Q92.49-4.35 92.29-4.35L92.29-4.35 92.19-4.35Q91.69-4.9 91.69-5.5L91.69-5.5Q91.69-5.95 91.84-6.4L91.84-6.4 92.29-6.55Q92.39-6.6 92.49-6.63 92.59-6.65 92.69-6.7ZM74.39-25.4L74.39-25.4Q74.54-25.3 74.54-24.95L74.54-24.95Q74.54-24.6 74.49-24.4L74.49-24.4Q74.19-24.1 74.24-23.95L74.24-23.95Q73.94-23.95 73.74-23.98 73.54-24 73.39-24L73.39-24Q72.99-24.15 72.94-24.53 72.89-24.9 72.94-25.25L72.94-25.25Q73.24-25.55 73.44-25.65L73.44-25.65Q74.14-25.8 74.39-25.4ZM89.24-10.2L89.34-9.7Q89.59-9.15 89.64-8.9L89.64-8.9Q89.74-8.6 89.69-8.3L89.69-8.3Q89.79-8.1 89.89-7.7L89.89-7.7Q90.04-6.9 90.24-6.45L90.24-6.45Q90.34-6.3 90.39-6.18 90.44-6.05 90.44-5.9L90.44-5.9Q90.54-5.5 90.64-5.35L90.64-5.35Q90.69-5.25 90.69-5.13 90.69-5 90.74-4.85L90.74-4.85Q90.94-4.6 91.02-4.4 91.09-4.2 91.19-4.1L91.19-4.1Q91.29-3.8 91.39-3.65L91.39-3.65Q91.49-3.45 91.64-3.25L91.64-3.25Q92.04-2.95 92.09-2.6L92.09-2.6Q92.09-2.4 92.24-2.25L92.24-2.25Q92.29-2 92.34-1.85 92.39-1.7 92.49-1.45L92.49-1.45Q92.44-1.3 92.54-0.95L92.54-0.95Q92.34-0.4 91.89 0.25 91.44 0.9 90.74 0.9L90.74 0.9Q90.54 0.9 90.44 1.1L90.44 1.1 90.29 1.1Q90.09 1.1 89.94 1.15L89.94 1.15Q89.89 1.2 89.74 1.2L89.74 1.2Q89.49 1.2 89.27 1.1 89.04 1 88.99 0.9L88.99 0.9Q88.79 0.75 88.72 0.73 88.64 0.7 88.59 0.7L88.59 0.7Q88.14 0.35 87.92-0.03 87.69-0.4 87.59-0.8L87.59-0.8Q87.34-1.05 87.24-1.35L87.24-1.35Q87.14-1.65 87.04-1.85L87.04-1.85Q86.94-2.55 87.04-3.3L87.04-3.3Q87.04-4 86.89-4.5 86.74-5 86.49-5.6L86.49-5.6Q86.44-6.2 86.19-6.5L86.19-6.5Q86.09-6.65 86.02-6.83 85.94-7 85.89-7.15L85.89-7.15Q85.64-7.2 85.47-7.23 85.29-7.25 85.04-7.25L85.04-7.25Q84.79-7.25 84.57-7.25 84.34-7.25 84.09-7.3L84.09-7.3Q83.84-7.35 83.69-7.35 83.54-7.35 83.34-7.35L83.34-7.35 83.04-7.35Q82.59-7.35 82.19-7.45L82.19-7.45Q81.39-7.6 80.64-7.6L80.64-7.6 79.94-7.6Q79.74-7.65 79.54-7.65L79.54-7.65Q79.44-7.65 79.39-7.65L79.39-7.65 78.24-7.65Q77.79-7.65 77.39-7.5L77.39-7.5Q77.14-7.3 77.02-7.25 76.89-7.2 76.79-7.15L76.79-7.15Q76.59-7.1 76.37-7.03 76.14-6.95 75.99-6.7L75.99-6.7Q75.69-6.2 75.79-5.85L75.79-5.85Q75.89-5.7 75.74-5.45L75.74-5.45Q75.84-4.9 75.77-4.28 75.69-3.65 75.59-3.1L75.59-3.1Q75.74-2.6 75.69-2.15L75.69-2.15Q75.54-1.65 75.54-1.15L75.54-1.15Q75.29-0.55 74.82-0.2 74.34 0.15 73.79 0.5L73.79 0.5Q72.99 0.6 72.79 1L72.79 1Q72.44 1 72.29 0.9L72.29 0.9Q72.19 0.8 71.94 0.8L71.94 0.8 71.74 0.8Q71.54 0.95 71.29 0.95L71.29 0.95Q71.09 0.95 70.84 0.8L70.84 0.8Q70.59 0.7 70.42 0.6 70.24 0.5 69.99 0.4L69.99 0.4Q69.99 0.3 69.89-0.1L69.89-0.1Q69.84-0.2 69.82-0.3 69.79-0.4 69.69-0.5L69.69-0.5Q69.44-1 69.64-1.3L69.64-1.3Q69.79-1.65 69.69-2.1L69.69-2.1Q69.69-2.7 69.87-3.08 70.04-3.45 70.29-3.85L70.29-3.85Q70.59-4.7 70.72-4.95 70.84-5.2 70.94-5.3L70.94-5.3Q71.14-5.5 71.09-5.8L71.09-5.8Q71.49-6.5 71.69-6.7L71.69-6.7Q71.89-7 71.99-7.25L71.99-7.25Q71.89-7.6 71.82-7.78 71.74-7.95 71.59-8.3L71.59-8.3Q71.44-8.5 71.44-8.95L71.44-8.95Q71.44-9.05 71.47-9.38 71.49-9.7 71.59-9.8L71.59-9.8Q71.84-10.25 72.14-10.45L72.14-10.45Q72.29-10.5 72.49-10.7L72.49-10.7Q72.59-11.1 72.72-11.5 72.84-11.9 72.84-12.3L72.84-12.3Q72.89-12.55 72.92-12.75 72.94-12.95 72.89-13.2L72.89-13.2Q72.84-13.55 73.19-13.9L73.19-13.9Q73.44-14.3 73.54-14.55L73.54-14.55Q73.49-14.8 73.62-15.1 73.74-15.4 73.89-15.65L73.89-15.65Q73.99-16.05 74.09-16.48 74.19-16.9 74.34-17.25L74.34-17.25Q74.34-17.45 74.49-17.65L74.49-17.65Q74.59-17.85 74.49-18L74.49-18Q74.59-18.25 74.67-18.53 74.74-18.8 74.79-19.1L74.79-19.1Q74.84-19.35 74.89-19.6 74.94-19.85 75.09-20.1L75.09-20.1Q75.14-20.25 75.14-20.5L75.14-20.5Q75.14-20.85 75.22-21.03 75.29-21.2 75.39-21.35L75.39-21.35Q75.69-21.55 75.69-21.9L75.69-21.9 75.99-22.6 75.99-23.4Q75.74-23.6 75.84-24.2L75.84-24.2Q75.94-24.35 75.84-24.7L75.84-24.7Q76.14-25.2 76.29-25.78 76.44-26.35 76.54-26.95L76.54-26.95Q76.54-27.2 76.44-27.5L76.44-27.5 76.29-27.9Q76.04-28.05 75.99-28.3 75.94-28.55 75.84-28.8L75.84-28.8Q75.99-29.15 76.04-29.4L76.04-29.4Q76.09-29.55 76.17-29.63 76.24-29.7 76.34-29.8L76.34-29.8Q76.39-30.05 76.49-30.15 76.59-30.25 76.84-30.4L76.84-30.4Q76.94-30.9 77.32-30.98 77.69-31.05 78.24-31.1L78.24-31.1Q78.54-31.2 78.54-31.25L78.54-31.25Q78.69-31.3 78.79-31.35 78.89-31.4 78.99-31.35L78.99-31.35Q79.09-31.3 79.39-31.3L79.39-31.3Q79.79-31.5 80.09-31.6 80.39-31.7 80.64-31.7L80.64-31.7Q80.74-31.7 81.14-31.6L81.14-31.6Q81.69-31.4 82.19-31.35L82.19-31.35Q82.39-31.25 82.69-31.15L82.69-31.15Q83.24-30.7 83.54-30L83.54-30Q83.64-29.5 83.59-29.08 83.54-28.65 83.44-28.2L83.44-28.2Q83.44-27.8 83.49-27.48 83.54-27.15 83.64-26.9L83.64-26.9Q83.69-26.65 83.74-26.5 83.79-26.35 83.84-26.25L83.84-26.25Q83.89-25.85 83.94-25.73 83.99-25.6 84.09-25.45L84.09-25.45Q84.14-25.35 84.14-25.1L84.14-25.1Q84.14-24.7 84.34-24.5L84.34-24.5Q84.39-24.4 84.44-24.3 84.49-24.2 84.49-24.1L84.49-24.1Q84.54-23.3 84.89-23.05L84.89-23.05Q84.99-22.65 85.14-22.55L85.14-22.55Q85.34-22 85.39-21.6L85.39-21.6Q85.44-21.15 85.64-20.6L85.64-20.6 85.99-20Q86.04-19.9 86.09-19.78 86.14-19.65 86.19-19.55L86.19-19.55Q86.29-19.45 86.32-19.33 86.34-19.2 86.39-19.1L86.39-19.1Q86.39-18.65 86.44-18.6L86.44-18.6Q86.49-18.4 86.64-17.85 86.79-17.3 86.89-17.15L86.89-17.15Q86.89-16.9 86.99-16.8L86.99-16.8Q87.04-16.65 87.04-16.4L87.04-16.4Q87.24-16.05 87.39-15.78 87.54-15.5 87.69-15.3L87.69-15.3Q87.99-14.9 88.14-14.35L88.14-14.35Q88.44-14.05 88.49-13.65L88.49-13.65Q88.74-13.05 88.74-13.1L88.74-13.1Q88.74-12.85 88.79-12.73 88.84-12.6 88.89-12.5L88.89-12.5Q88.99-12.2 88.99-12.05L88.99-12.05Q89.09-11.55 89.14-11.45L89.14-11.45Q89.29-10.9 89.24-10.75L89.24-10.75Q89.14-10.45 89.24-10.2L89.24-10.2ZM80.04-21.85L80.04-21.85Q79.79-21.6 79.72-21.3 79.64-21 79.64-20.65L79.64-20.65 79.34-20Q79.29-19.8 79.29-19.25L79.29-19.25Q79.19-18.75 79.09-18.45L79.09-18.45Q78.74-17.8 78.74-17L78.74-17Q78.79-16.35 78.59-16.2L78.59-16.2 78.34-15.45Q78.29-15.2 78.22-14.85 78.14-14.5 77.99-14.1L77.99-14.1 77.69-13.45Q77.54-13.1 77.54-12.8L77.54-12.8Q77.54-12.6 77.57-12.45 77.59-12.3 77.64-12.1L77.64-12.1Q77.89-11.9 77.94-11.65L77.94-11.65Q77.99-11.4 78.49-11.3L78.49-11.3Q78.89-11.15 79.04-10.95L79.04-10.95Q79.14-10.8 79.34-10.73 79.54-10.65 79.64-10.65L79.64-10.65Q80.04-10.6 80.24-10.5L80.24-10.5Q80.34-10.45 80.44-10.43 80.54-10.4 80.69-10.35L80.69-10.35 81.54-10.35Q81.69-10.4 81.99-10.4L81.99-10.4Q82.24-10.4 82.39-10.35L82.39-10.35Q82.59-10.45 82.89-10.45L82.89-10.45Q83.14-10.45 83.44-10.6L83.44-10.6Q84.04-10.6 84.19-11.05L84.19-11.05Q84.29-11.3 84.19-11.7L84.19-11.7 84.19-12.35Q84.09-12.6 83.99-12.85 83.89-13.1 83.89-13.35L83.89-13.35Q83.84-13.75 83.49-14.25L83.49-14.25Q83.39-14.65 83.27-14.93 83.14-15.2 83.04-15.35L83.04-15.35Q82.79-15.65 82.74-16.05L82.74-16.05Q82.64-16.65 82.54-16.85L82.54-16.85Q82.49-17.05 82.49-17.45L82.49-17.45Q82.49-17.6 82.39-17.8L82.39-17.8Q82.34-17.9 82.32-18 82.29-18.1 82.24-18.25L82.24-18.25Q82.04-18.35 82.04-18.55L82.04-18.55Q81.94-18.85 81.94-18.95L81.94-18.95Q81.69-19.7 81.59-20.55L81.59-20.55Q81.54-21.2 81.04-21.75L81.04-21.75Q80.64-21.75 80.49-21.8L80.49-21.8Q80.39-21.85 80.04-21.85ZM87.59-21.75L87.59-21.75Q87.04-22.25 86.92-22.68 86.79-23.1 86.89-23.45L86.89-23.45Q87.19-24 87.59-24.2L87.59-24.2Q87.89-24.1 88.02-24.03 88.14-23.95 88.24-23.95L88.24-23.95Q88.39-23.65 88.59-23.35 88.79-23.05 88.69-22.7L88.69-22.7Q88.49-22.45 88.24-22.25L88.24-22.25Q88.14-22.15 88.12-22.08 88.09-22 88.04-21.95L88.04-21.95Q87.89-21.8 87.59-21.75ZM88.14-20.85L88.49-20.85Q88.74-20.6 88.69-20.23 88.64-19.85 88.29-19.8L88.29-19.8Q87.94-19.75 87.72-20.08 87.49-20.4 87.74-20.8L87.74-20.8Q87.89-20.85 88.14-20.85L88.14-20.85Z" opacity="1" transform="matrix(1,0,0,1,0,0)" fill="#f9e17e" class="wordmark-text-0" data-fill-palette-color="primary" id="text-0"></path></svg></g></svg></g></svg></g></svg></g></svg></g><defs></defs></svg><rect width="395.5199999999999" height="153.789731471536" fill="none" stroke="none" visibility="hidden"></rect></g></svg></g></svg>