<svg xmlns="http://www.w3.org/2000/svg" version="1.1" xmlns:xlink="http://www.w3.org/1999/xlink" xmlns:svgjs="http://svgjs.dev/svgjs" width="1500" height="321" viewBox="0 0 1500 321"><g transform="matrix(1,0,0,1,-0.9090909090909918,-0.44014795619094116)"><svg viewBox="0 0 396 85" data-background-color="#ede1d1" preserveAspectRatio="xMidYMid meet" height="321" width="1500" xmlns="http://www.w3.org/2000/svg" xmlns:xlink="http://www.w3.org/1999/xlink"><g id="tight-bounds" transform="matrix(1,0,0,1,0.2400000000000091,0.11655008185741167)"><svg viewBox="0 0 395.52 84.76689983628516" height="84.76689983628516" width="395.52"><g><svg viewBox="0 0 395.52 84.76689983628516" height="84.76689983628516" width="395.52"><g><svg viewBox="0 0 395.52 84.76689983628516" height="84.76689983628516" width="395.52"><g id="textblocktransform"><svg viewBox="0 0 395.52 84.76689983628516" height="84.76689983628516" width="395.52" id="textblock"><g><svg viewBox="0 0 395.52 84.76689983628516" height="84.76689983628516" width="395.52"><g transform="matrix(1,0,0,1,0,0)"><svg width="395.52" viewBox="2.44 -35.16 164.03 35.16" height="84.76689983628516" data-palette-color="#dcdddb"><path d="M2.44 0L2.44 0Q2.59-0.61 2.7-1.48 2.81-2.34 2.81-3.27L2.81-3.27Q2.81-4.13 2.69-4.94 2.56-5.76 2.44-6.35L2.44-6.35Q3.54-6.35 4.37-6.52 5.2-6.69 5.76-7.09 6.32-7.5 6.6-8.19 6.88-8.89 6.88-9.94L6.88-9.94Q6.88-12.16 6.77-13.65 6.67-15.14 6.46-16.05 6.25-16.97 5.93-17.4 5.62-17.82 5.2-17.94L5.2-17.94Q5.64-18.09 5.96-18.47 6.27-18.85 6.48-19.7 6.69-20.56 6.79-21.98 6.88-23.41 6.88-25.66L6.88-25.66Q6.88-26.64 6.57-27.25 6.25-27.86 5.71-28.21 5.18-28.56 4.46-28.69 3.74-28.81 2.91-28.81L2.91-28.81 2.44-28.81Q2.56-29.39 2.69-30.16 2.81-30.93 2.81-31.79L2.81-31.79Q2.81-32.69 2.7-33.62 2.59-34.55 2.44-35.16L2.44-35.16Q3.39-34.81 5.15-34.56 6.91-34.3 9.72-34.3L9.72-34.3Q11.55-34.3 13.28-34.51 15.01-34.72 16.48-34.99L16.48-34.99Q16.48-33.81 16.97-32.32 17.46-30.83 18.29-29.2 19.12-27.56 20.18-25.87 21.24-24.17 22.4-22.58 23.56-21 24.72-19.59 25.88-18.19 26.89-17.15 27.91-16.11 28.66-15.5 29.42-14.89 29.79-14.89L29.79-14.89 29.83-14.89Q29.86-14.89 29.9-14.88 29.93-14.87 29.98-14.87L29.98-14.87Q30.18-15.6 30.29-16.72 30.4-17.85 30.46-19.26 30.52-20.68 30.54-22.3 30.57-23.93 30.57-25.66L30.57-25.66Q30.57-26.64 30.25-27.25 29.93-27.86 29.39-28.21 28.86-28.56 28.14-28.69 27.42-28.81 26.59-28.81L26.59-28.81 26.12-28.81Q26.25-29.39 26.37-30.16 26.49-30.93 26.49-31.79L26.49-31.79Q26.49-32.69 26.38-33.62 26.27-34.55 26.12-35.16L26.12-35.16Q26.59-34.99 27.59-34.84 28.59-34.69 29.88-34.57 31.18-34.45 32.63-34.38 34.08-34.3 35.47-34.3L35.47-34.3Q36.89-34.3 38.34-34.38 39.79-34.45 41.08-34.57 42.36-34.69 43.33-34.84 44.31-34.99 44.8-35.16L44.8-35.16Q44.65-34.55 44.54-33.62 44.43-32.69 44.43-31.79L44.43-31.79Q44.43-30.93 44.56-30.16 44.68-29.39 44.8-28.81L44.8-28.81 44.29-28.81Q43.41-28.81 42.68-28.69 41.94-28.56 41.43-28.21 40.92-27.86 40.64-27.25 40.36-26.64 40.36-25.66L40.36-25.66Q40.36-23.41 40.49-21.95 40.63-20.48 40.88-19.6 41.14-18.73 41.49-18.36 41.85-17.99 42.29-17.94L42.29-17.94Q41.87-17.72 41.55-17.26 41.24-16.8 41.03-15.8 40.82-14.79 40.71-13.13 40.6-11.47 40.6-8.86L40.6-8.86Q40.6-7.1 40.75-5.65 40.89-4.2 41.1-3.09 41.31-1.98 41.55-1.21 41.8-0.44 41.99 0L41.99 0Q41.38-0.2 40.63-0.32 39.87-0.44 39.09-0.5 38.31-0.56 37.57-0.59 36.84-0.61 36.3-0.61L36.3-0.61Q35.72-0.61 34.99-0.59 34.25-0.56 33.48-0.5 32.71-0.44 31.93-0.32 31.15-0.2 30.49 0L30.49 0Q30.49-1.22 29.8-2.91 29.1-4.59 27.97-6.45 26.83-8.3 25.4-10.21 23.97-12.11 22.52-13.81 21.07-15.5 19.73-16.86 18.38-18.21 17.43-18.97L17.43-18.97Q16.97-17.87 16.82-15.53 16.67-13.18 16.67-9.94L16.67-9.94Q16.67-8.89 16.91-8.19 17.14-7.5 17.68-7.09 18.21-6.69 19.06-6.52 19.9-6.35 21.12-6.35L21.12-6.35Q21-5.76 20.87-4.94 20.75-4.13 20.75-3.27L20.75-3.27Q20.75-2.34 20.86-1.48 20.97-0.61 21.12 0L21.12 0Q20.41-0.15 19.34-0.26 18.26-0.37 16.99-0.45 15.72-0.54 14.38-0.57 13.04-0.61 11.79-0.61L11.79-0.61Q10.55-0.61 9.19-0.57 7.84-0.54 6.57-0.45 5.3-0.37 4.21-0.26 3.13-0.15 2.44 0ZM48.46 0L48.46 0Q48.61-0.61 48.72-1.48 48.83-2.34 48.83-3.27L48.83-3.27Q48.83-4.13 48.7-4.94 48.58-5.76 48.46-6.35L48.46-6.35Q49.56-6.35 50.5-6.52 51.44-6.69 52.13-7.09 52.83-7.5 53.23-8.19 53.64-8.89 53.64-9.94L53.64-9.94Q53.64-11.99 53.53-13.45 53.42-14.92 53.21-15.87 53-16.82 52.68-17.32 52.37-17.82 51.95-17.94L51.95-17.94Q52.39-18.09 52.71-18.47 53.02-18.85 53.23-19.7 53.44-20.56 53.54-21.98 53.64-23.41 53.64-25.66L53.64-25.66Q53.64-26.64 53.18-27.25 52.73-27.86 52.01-28.21 51.29-28.56 50.41-28.69 49.53-28.81 48.68-28.81L48.68-28.81 48.22-28.81Q48.34-29.39 48.46-30.16 48.58-30.93 48.58-31.79L48.58-31.79Q48.58-32.69 48.47-33.62 48.36-34.55 48.22-35.16L48.22-35.16Q48.68-34.99 49.84-34.83 51-34.67 52.46-34.56 53.93-34.45 55.54-34.38 57.15-34.3 58.54-34.3L58.54-34.3Q59.96-34.3 61.45-34.38 62.94-34.45 64.26-34.57 65.57-34.69 66.6-34.84 67.62-34.99 68.11-35.16L68.11-35.16Q67.97-34.55 67.86-33.62 67.75-32.69 67.75-31.79L67.75-31.79Q67.75-30.93 67.87-30.16 67.99-29.39 68.11-28.81L68.11-28.81 67.6-28.81Q66.7-28.81 65.94-28.69 65.18-28.56 64.62-28.21 64.06-27.86 63.74-27.25 63.43-26.64 63.43-25.66L63.43-25.66Q63.43-23.41 63.52-21.98 63.62-20.56 63.83-19.7 64.04-18.85 64.35-18.47 64.67-18.09 65.11-17.94L65.11-17.94Q64.69-17.82 64.38-17.32 64.06-16.82 63.85-15.87 63.64-14.92 63.54-13.45 63.43-11.99 63.43-9.94L63.43-9.94Q63.43-8.89 63.78-8.19 64.13-7.5 64.79-7.09 65.45-6.69 66.42-6.52 67.38-6.35 68.6-6.35L68.6-6.35Q68.48-5.76 68.36-4.94 68.23-4.13 68.23-3.27L68.23-3.27Q68.23-2.34 68.34-1.48 68.45-0.61 68.6 0L68.6 0Q67.89-0.15 66.71-0.26 65.52-0.37 64.12-0.45 62.72-0.54 61.25-0.57 59.79-0.61 58.54-0.61L58.54-0.61Q57.3-0.61 55.82-0.57 54.34-0.54 52.94-0.45 51.54-0.37 50.34-0.26 49.14-0.15 48.46 0ZM73.33 0L73.33 0Q73.48-0.61 73.59-1.48 73.7-2.34 73.7-3.27L73.7-3.27Q73.7-4.13 73.58-4.94 73.46-5.76 73.33-6.35L73.33-6.35Q74.95-6.35 75.91-6.73 76.87-7.1 77.39-8 77.9-8.89 78.06-10.38 78.22-11.87 78.22-14.06L78.22-14.06Q78.22-15.75 77.8-16.78 77.39-17.82 76.83-17.94L76.83-17.94Q77.31-18.09 77.68-18.73 78.05-19.36 78.28-20.37 78.51-21.39 78.63-22.73 78.75-24.07 78.75-25.66L78.75-25.66Q78.75-26.64 78.44-27.25 78.12-27.86 77.58-28.21 77.05-28.56 76.33-28.69 75.61-28.81 74.78-28.81L74.78-28.81 74.31-28.81Q74.43-29.39 74.56-30.16 74.68-30.93 74.68-31.79L74.68-31.79Q74.68-32.69 74.57-33.62 74.46-34.55 74.31-35.16L74.31-35.16Q74.75-34.99 75.64-34.84 76.53-34.69 77.69-34.57 78.85-34.45 80.15-34.38 81.44-34.3 82.69-34.3L82.69-34.3Q84.1-34.3 85.36-34.38 86.62-34.45 87.67-34.57 88.72-34.69 89.51-34.84 90.3-34.99 90.79-35.16L90.79-35.16Q90.82-34.4 91.18-33.14 91.55-31.88 92.13-30.37 92.72-28.86 93.46-27.2 94.21-25.54 94.98-24 95.75-22.46 96.49-21.14 97.24-19.82 97.82-18.99L97.82-18.99Q98.41-19.82 99.15-21.14 99.9-22.46 100.67-24 101.44-25.54 102.18-27.2 102.92-28.86 103.51-30.37 104.1-31.88 104.46-33.14 104.83-34.4 104.85-35.16L104.85-35.16Q105.32-34.99 106.12-34.83 106.93-34.67 107.98-34.56 109.03-34.45 110.3-34.38 111.57-34.3 112.96-34.3L112.96-34.3Q114.2-34.3 115.5-34.38 116.79-34.45 117.95-34.57 119.11-34.69 120-34.84 120.89-34.99 121.33-35.16L121.33-35.16Q121.19-34.55 121.08-33.62 120.97-32.69 120.97-31.79L120.97-31.79Q120.97-30.93 121.09-30.16 121.21-29.39 121.33-28.81L121.33-28.81 120.87-28.81Q120.04-28.81 119.32-28.69 118.6-28.56 118.06-28.21 117.52-27.86 117.21-27.25 116.89-26.64 116.89-25.66L116.89-25.66Q116.89-24.07 117-22.73 117.11-21.39 117.35-20.37 117.6-19.36 117.96-18.73 118.33-18.09 118.82-17.94L118.82-17.94Q118.26-17.82 117.84-16.78 117.43-15.75 117.43-14.06L117.43-14.06Q117.43-12.87 117.68-11.89 117.94-10.91 118.11-9.94L118.11-9.94Q118.28-8.91 118.6-8.23 118.92-7.54 119.47-7.13 120.01-6.71 120.83-6.53 121.65-6.35 122.8-6.35L122.8-6.35Q122.68-5.76 122.55-4.94 122.43-4.13 122.43-3.27L122.43-3.27Q122.43-2.34 122.54-1.48 122.65-0.61 122.8 0L122.8 0Q122.09-0.15 121.02-0.26 119.94-0.37 118.67-0.45 117.4-0.54 116.05-0.57 114.69-0.61 113.45-0.61L113.45-0.61Q112.2-0.61 110.85-0.57 109.49-0.54 108.22-0.45 106.95-0.37 105.88-0.26 104.8-0.15 104.12 0L104.12 0Q104.27-0.61 104.38-1.48 104.49-2.34 104.49-3.27L104.49-3.27Q104.49-4.13 104.37-4.94 104.24-5.76 104.12-6.35L104.12-6.35Q106.56-6.35 107.69-7.19 108.81-8.03 108.81-10.13L108.81-10.13Q108.81-11.82 108.72-13.65 108.64-15.48 108.48-17.15 108.32-18.82 108.09-20.2 107.86-21.58 107.56-22.36L107.56-22.36Q107.03-22.36 106.35-21.58 105.68-20.8 104.96-19.58 104.24-18.36 103.56-16.89 102.88-15.43 102.34-14.04 101.8-12.65 101.46-11.52 101.12-10.4 101.09-9.89L101.09-9.89Q100.41-10.11 99.56-10.18 98.7-10.25 97.82-10.25L97.82-10.25Q96.94-10.25 96.09-10.18 95.23-10.11 94.55-9.89L94.55-9.89Q94.53-10.38 94.18-11.47 93.84-12.57 93.31-13.93 92.77-15.28 92.1-16.72 91.43-18.16 90.72-19.35 90.01-20.53 89.33-21.31 88.64-22.09 88.11-22.12L88.11-22.12Q87.86-21.34 87.7-19.97 87.54-18.6 87.46-16.94 87.37-15.28 87.35-13.46 87.32-11.65 87.32-9.94L87.32-9.94Q87.32-8.89 87.6-8.19 87.89-7.5 88.46-7.09 89.03-6.69 89.91-6.52 90.79-6.35 92.01-6.35L92.01-6.35Q91.89-5.76 91.77-4.94 91.65-4.13 91.65-3.27L91.65-3.27Q91.65-2.34 91.76-1.48 91.87-0.61 92.01 0L92.01 0Q91.3-0.15 90.23-0.26 89.16-0.37 87.89-0.45 86.62-0.54 85.27-0.57 83.93-0.61 82.69-0.61L82.69-0.61Q81.44-0.61 80.09-0.57 78.73-0.54 77.46-0.45 76.19-0.37 75.1-0.26 74.02-0.15 73.33 0ZM125.11 0L125.11 0Q125.26-0.61 125.33-1.5 125.41-2.39 125.41-3.34L125.41-3.34Q125.41-4.22 125.35-4.99 125.29-5.76 125.16-6.35L125.16-6.35Q126.41-6.4 127.29-6.8 128.17-7.2 128.73-7.69L128.73-7.69Q129.31-8.59 129.92-9.72 130.53-10.84 131.03-12.02 131.54-13.21 131.85-14.39 132.17-15.58 132.17-16.6L132.17-16.6Q132.17-17.02 132.05-17.43 131.93-17.85 131.63-17.94L131.63-17.94Q132.37-18.14 133.1-19.02 133.83-19.9 134.51-21.19 135.2-22.49 135.78-24.07 136.37-25.66 136.81-27.28 137.25-28.91 137.49-30.44 137.74-31.98 137.74-33.18L137.74-33.18Q137.74-33.59 137.69-33.98 137.64-34.38 137.64-34.64L137.64-34.64Q137.64-34.77 137.65-34.86 137.66-34.96 137.66-35.16L137.66-35.16Q138.22-34.94 139.07-34.78 139.91-34.62 140.96-34.51 142.01-34.4 143.21-34.35 144.4-34.3 145.7-34.3L145.7-34.3Q146.82-34.3 147.99-34.35 149.16-34.4 150.26-34.51 151.36-34.62 152.31-34.78 153.26-34.94 153.9-35.16L153.9-35.16 153.9-35.06 153.9-34.84Q153.9-34.57 153.84-34.17 153.78-33.76 153.78-33.28L153.78-33.28Q153.78-32.15 153.98-30.64 154.19-29.13 154.56-27.5 154.92-25.88 155.45-24.28 155.97-22.68 156.61-21.35 157.24-20.02 157.98-19.1 158.71-18.19 159.51-17.94L159.51-17.94Q159.17-17.82 159.04-17.47 158.9-17.11 158.9-16.6L158.9-16.6Q158.9-15.58 159.21-14.39 159.51-13.21 160.01-12.02 160.51-10.84 161.11-9.74 161.71-8.64 162.3-7.76L162.3-7.76Q162.66-7.54 163.18-7.3 163.69-7.06 164.25-6.84 164.81-6.62 165.37-6.48 165.93-6.35 166.42-6.35L166.42-6.35Q166.3-5.76 166.24-4.99 166.18-4.22 166.18-3.34L166.18-3.34Q166.18-2.39 166.25-1.5 166.33-0.61 166.47 0L166.47 0Q165.59-0.1 164.45-0.21 163.3-0.32 161.98-0.4 160.66-0.49 159.25-0.55 157.83-0.61 156.41-0.61L156.41-0.61Q153.83-0.61 151.49-0.45 149.16-0.29 147.55 0L147.55 0Q147.62-0.42 147.69-1.31 147.75-2.2 147.75-3.3L147.75-3.3Q147.75-3.76 147.72-4.24 147.7-4.71 147.67-5.13 147.65-5.54 147.61-5.87 147.58-6.2 147.55-6.35L147.55-6.35Q147.99-6.35 148.48-6.38 148.97-6.42 149.44-6.52 149.92-6.62 150.36-6.79 150.8-6.96 151.14-7.25L151.14-7.25Q151.09-8.23 150.82-8.92 150.55-9.62 149.81-10.08 149.06-10.55 147.73-10.77 146.4-10.99 144.26-10.99L144.26-10.99Q142.33-10.99 141.04-10.84 139.76-10.69 138.97-10.29 138.18-9.89 137.8-9.17 137.42-8.45 137.32-7.28L137.32-7.28Q137.69-6.98 138.2-6.81 138.71-6.64 139.26-6.53 139.81-6.42 140.36-6.38 140.91-6.35 141.35-6.35L141.35-6.35Q141.3-6.2 141.26-5.88 141.23-5.57 141.2-5.14 141.18-4.71 141.17-4.22 141.15-3.74 141.15-3.3L141.15-3.3Q141.15-2.2 141.22-1.31 141.28-0.42 141.35 0L141.35 0Q139.49-0.34 137.59-0.48 135.69-0.61 133.71-0.61L133.71-0.61Q131.41-0.61 129.25-0.48 127.09-0.34 125.11 0ZM140.74-18.14L140.74-18.14Q140.74-17.43 140.9-16.97 141.06-16.5 141.46-16.24 141.86-15.97 142.56-15.86 143.25-15.75 144.33-15.75L144.33-15.75Q145.4-15.75 146.1-15.86 146.79-15.97 147.2-16.24 147.6-16.5 147.76-16.97 147.92-17.43 147.92-18.14L147.92-18.14Q147.92-18.99 147.48-20.24 147.04-21.48 146.45-22.85 145.87-24.22 145.26-25.59 144.65-26.95 144.33-28.05L144.33-28.05Q143.96-26.95 143.35-25.59 142.74-24.22 142.17-22.85 141.59-21.48 141.17-20.24 140.74-18.99 140.74-18.14Z" opacity="1" transform="matrix(1,0,0,1,0,0)" fill="#dcdddb" class="wordmark-text-0" data-fill-palette-color="primary" id="text-0"></path></svg></g></svg></g></svg></g></svg></g></svg></g><defs></defs></svg><rect width="395.52" height="84.76689983628516" fill="none" stroke="none" visibility="hidden"></rect></g></svg></g></svg>