<svg xmlns="http://www.w3.org/2000/svg" version="1.1" xmlns:xlink="http://www.w3.org/1999/xlink" xmlns:svgjs="http://svgjs.dev/svgjs" width="1500" height="1500" viewBox="0 0 1500 1500"><rect width="1500" height="1500" fill="#ffffff"></rect><g transform="matrix(0.6666666666666666,0,0,0.6666666666666666,249.39393939393938,435.99032258064517)"><svg viewBox="0 0 396 248" data-background-color="#f8efed" preserveAspectRatio="xMidYMid meet" height="939" width="1500" xmlns="http://www.w3.org/2000/svg" xmlns:xlink="http://www.w3.org/1999/xlink"><g id="tight-bounds" transform="matrix(1,0,0,1,0.2400000000000091,0.4000000000000057)"><svg viewBox="0 0 395.52 247.2" height="247.2" width="395.52"><g><svg></svg></g><g><svg viewBox="0 0 395.52 247.2" height="247.2" width="395.52"><mask id="ba19444d-e09e-4ce1-851a-efdd2d3a6b75"><rect width="395.52" height="247.2" fill="white"></rect><g transform="matrix(1,0,0,1,85.1957142857143,37.08)" id="clone"><svg viewBox="0 0 225.12857142857138 173.04" height="173.04" width="225.12857142857138"><g><svg viewBox="0 0 225.12857142857138 173.04" height="173.04" width="225.12857142857138"><g><svg viewBox="0 0 225.12857142857138 173.04" height="173.04" width="225.12857142857138"><g><svg viewBox="0 0 225.12857142857138 173.04" height="173.04" width="225.12857142857138"><g id="SvgjsG1280"><svg viewBox="0 0 225.12857142857138 173.04" height="173.04" width="225.12857142857138" id="SvgjsSvg1279"><g><svg viewBox="0 0 225.12857142857138 173.04" height="173.04" width="225.12857142857138"><g transform="matrix(1,0,0,1,0,0)"><svg width="225.12857142857138" viewBox="0.1499999999999999 -32.2 69.85 53.920833333332" height="173.04" data-palette-color="#3a424c"><path d="M44.8 18.7L44.8 18.7Q44.5 18.6 44.35 18.5 44.2 18.4 43.9 18.55L43.9 18.55Q43.75 18.5 43.5 18.43 43.25 18.35 43.1 18.2L43.1 18.2 42.15 17.45Q41.8 17.15 41.38 16.9 40.95 16.65 40.65 16.4L40.65 16.4 40.5 16.15Q39.4 16.25 38.15 15.75 36.9 15.25 35.65 14.05L35.65 14.05Q35.35 14 35.13 13.63 34.9 13.25 34.7 13L34.7 13Q34.35 12.95 34.25 12.73 34.15 12.5 34.05 12.15L34.05 12.15Q34 12.15 33.98 12.08 33.95 12 33.95 12L33.95 12 33.65 11.8 33.65 11.75Q33.45 11.25 33.4 11.08 33.35 10.9 32.95 10.55L32.95 10.55Q32.85 10.45 32.8 10.2 32.75 9.95 32.65 9.8L32.65 9.8Q32 8.3 31.5 6.8 31 5.3 31 3.6L31 3.6Q31 3.1 31.28 2.83 31.55 2.55 31.9 2.55L31.9 2.55Q32.5 2.55 32.8 3.3L32.8 3.3Q32.9 3.5 33 3.75 33.1 4 33.15 4.25L33.15 4.25 33.25 4.8Q33.35 5.25 33.75 6.25 34.15 7.25 34.7 8.22 35.25 9.2 35.8 9.75L35.8 9.75 36.6 11.05Q36.85 11.7 37.35 12.35 37.85 13 38.2 13.25L38.2 13.25 40 15 40.5 15.45Q41.15 15.45 41.85 15.13 42.55 14.8 43.2 14.05L43.2 14.05Q44.5 12.65 45.5 10.55 46.5 8.45 47.3 6.13 48.1 3.8 48.75 1.7L48.75 1.7 49.05 1.35Q49.2 0.95 49.2 0.68 49.2 0.4 49.25-0.1L49.25-0.1 49.55-1.05 49.55-1.25 48.8-2.45 48.05-3.4 47.3-4.1Q47.15-4.5 46.55-5.1L46.55-5.1Q46.5-5.75 44.1-8.35L44.1-8.35Q44.15-8.4 44.15-8.45L44.15-8.45Q44.15-8.6 43.8-8.95 43.45-9.3 43.4-9.4L43.4-9.4 43.25-9.75 43.15-9.75 43.15-9.85Q43.15-10.35 42.45-10.75L42.45-10.75Q42.4-11.2 42-11.3L42-11.3Q42-11.3 41.9-11.7L41.9-11.7Q41.85-11.75 41.7-11.75L41.7-11.75Q41.05-12.45 40.9-12.4L40.9-12.4Q40.85-12.6 40-13.8L40-13.8Q39.8-13.65 39.5-13L39.5-13Q39.05-12.8 38.95-12.05L38.95-12.05 38.75-12Q38.65-11.9 38.45-11.65 38.25-11.4 37.65-10.5L37.65-10.5Q37.3-10.35 37.1-9.7L37.1-9.7Q36.95-9.65 36.65-9.25L36.65-9.25 36.7-9.1Q36.5-8.8 36.15-8.4 35.8-8 35.35-7.5L35.35-7.5 35.1-6.95 34.75-6.95Q34.65-6.7 34.5-6.45 34.35-6.2 34.15-5.95L34.15-5.95 34-6.05 34-5.75 32.55-4.2 32.45-4.3Q32.3-4.2 32.2-3.8L32.2-3.8 31.3-3.15 31.25-3.2Q31.2-3.2 30.95-2.9L30.95-2.9 30.95-2.7 30.2-1.95Q30-1.85 29.8-1.65L29.8-1.65Q29.05-1.1 28.95-0.88 28.85-0.65 28.4-0.4L28.4-0.4Q28.2 0.1 27.1 0.55L27.1 0.55Q27 0.65 26.95 0.8L26.95 0.8 26.85 0.85 26.55 1.15Q26.25 1.45 26.05 1.63 25.85 1.8 25.9 1.9L25.9 1.9Q25.85 1.85 25.75 1.85L25.75 1.85Q25.3 1.85 25.2 2.3L25.2 2.3 25.15 2.2Q24.75 2.6 23.85 3.15L23.85 3.15Q22.55 4.1 22.55 4.1L22.55 4.1Q22.45 4.1 22.45 4.05L22.45 4.05 22.35 4.05Q22.2 4.05 21.4 4.55L21.4 4.55Q20.6 5.05 20.45 5.05L20.45 5.05 20.3 5.05Q20.2 5 20.1 5L20.1 5Q20.3 5 19.9 5.3L19.9 5.3Q19.1 5.8 18.8 5.8L18.8 5.8 18.65 5.8Q18.6 5.75 18.45 5.75L18.45 5.75Q18.4 5.75 18.35 5.88 18.3 6 18.25 6L18.25 6Q17.9 6 17.8 5.95L17.8 5.95Q17.6 6.25 17.4 6.25L17.4 6.25 17.3 6.25Q17.3 6.2 17.25 6.2L17.25 6.2Q17.15 6.2 17.05 6.35L17.05 6.35 16.95 6.35Q16.55 6.35 15.7 6.65L15.7 6.65Q15.35 6.65 15.2 6.85L15.2 6.85 15.05 6.75Q14.4 7.15 13.45 7.1L13.45 7.1Q12.9 7.15 11.7 7.4L11.7 7.4Q11.55 7.4 11.33 7.38 11.1 7.35 10.8 7.3L10.8 7.3Q10.4 7.3 9.7 7.2 9 7.1 8.1 6.85L8.1 6.85Q8.15 6.9 7.7 6.9L7.7 6.9Q7.4 6.9 7 6.5L7 6.5Q6.85 6.5 6.8 6.55L6.8 6.55 6.65 6.55Q6.55 6.55 6.18 6.33 5.8 6.1 5.7 6.1L5.7 6.1Q5.6 6.1 5.55 6.15L5.55 6.15Q5.4 5.95 5 5.45L5 5.45Q5 5.3 4.83 5.05 4.65 4.8 3.95 4.3L3.95 4.3 3.8 3.2Q3.75 2.45 3.3 2.3L3.3 2.3Q3.15 2.05 3.15 1.9L3.15 1.9Q3.15 1.8 3.2 1.68 3.25 1.55 3.25 1.5L3.25 1.5 3.25 0.95Q3.25 0.8 3.3 0.58 3.35 0.35 3.35 0.25L3.35 0.25Q3.35 0.1 3.3-0.15 3.25-0.4 3.25-0.55L3.25-0.55Q3.25-0.7 3.3-1 3.35-1.3 3.35-1.45L3.35-1.45 3.35-1.7Q3.3-1.85 3.3-1.95L3.3-1.95Q3.3-1.8 3.8-3.85L3.8-3.85 3.95-4Q4.15-5.2 4.6-5.65L4.6-5.65 4.6-5.8Q5.8-7.15 5.85-7.8L5.85-7.8Q6.55-8.65 6.95-9.18 7.35-9.7 7.45-9.9L7.45-9.9 8.35-10.7Q8.35-10.85 8.5-11.15L8.5-11.15 9.15-11.75Q9.15-11.8 9.25-12L9.25-12Q10.05-12.55 9.9-12.55L9.9-12.55Q9.95-12.55 9.95-12.5L9.95-12.5 10-12.5Q10.1-12.5 10.55-13.05L10.55-13.05Q11-13.65 11.05-13.65L11.05-13.65Q11.15-13.65 11.13-13.6 11.1-13.55 11.2-13.55L11.2-13.55Q11.2-13.55 11.38-13.78 11.55-14 11.9-14.5L11.9-14.5Q12-14.4 12.4-14.35L12.4-14.35Q12.4-14.45 13-14.95L13-14.95Q13.35-15.3 13.25-15.3L13.25-15.3Q13.35-15.3 13.3-15.25L13.3-15.25 13.4-15.25Q13.45-15.25 13.48-15.35 13.5-15.45 13.6-15.45L13.6-15.45 13.65-15.45Q13.65-15.4 13.7-15.4L13.7-15.4Q13.95-15.4 14.23-15.68 14.5-15.95 14.5-15.95L14.5-15.95Q14.75-15.95 14.85-15.9L14.85-15.9 14.85-15.6 14.05-14.9 13.3-14.6Q12.85-14.1 12.8-14.1L12.8-14.1 12.7-14.1Q12.75-14.15 12.65-14.15L12.65-14.15Q12.55-14.15 11.8-13.35L11.8-13.35Q11.7-13.3 11.58-13.2 11.45-13.1 11.25-12.95L11.25-12.95Q11.15-12.6 10.55-12L10.55-12 10.5-11.8Q10-11.45 9-10.15L9-10.15 8.8-10.05 8.8-9.95Q8.8-9.8 8.6-9.6L8.6-9.6Q8.45-9.55 8.43-9.45 8.4-9.35 8-8.6L8-8.6 7.75-8.4Q7.6-8.2 7.43-7.93 7.25-7.65 7-7.25L7-7.25Q6.9-7.05 6.73-6.7 6.55-6.35 6.3-5.9L6.3-5.9Q6.25-5.85 6.15-5.75 6.05-5.65 5.95-5.55L5.95-5.55Q5.85-5 5.45-4.5L5.45-4.5Q5.35-4.4 5.13-4.13 4.9-3.85 4.7-2.85L4.7-2.85 4.65-2.8 4.35-1.85Q4.3-1.6 4.23-1.35 4.15-1.1 4.2-0.9L4.2-0.9Q3.9-0.6 3.9 0.7L3.9 0.7Q3.9 0.8 3.95 0.9 4 1 4 1L4 1Q4 1.05 3.95 1.15 3.9 1.25 3.9 1.3L3.9 1.3Q3.9 1.35 3.98 1.48 4.05 1.6 4.05 1.65L4.05 1.65 4.05 1.9Q4 2.05 4 2.2L4 2.2Q4 2.4 4.28 2.73 4.55 3.05 4.5 3.4L4.5 3.4Q4.75 3.8 5.2 4.2 5.65 4.6 6.25 5L6.25 5Q6.95 5.4 7 5.4L7 5.4 7.05 5.4Q7.05 5.35 7.1 5.35L7.1 5.35Q8.2 6.15 8.5 6.15L8.5 6.15Q8.6 6.15 8.7 6.05L8.7 6.05 9.25 6.05Q9.45 5.95 9.45 5.95L9.45 5.95Q9.6 5.95 9.95 6.08 10.3 6.2 10.45 6.2L10.45 6.2 10.6 6.1 10.95 6.1Q11.5 6.1 12.13 5.98 12.75 5.85 13.45 5.65L13.45 5.65 15.05 5.25 15.6 5.15Q16.2 5.2 16.48 4.93 16.75 4.65 17.25 4.5L17.25 4.5Q17.3 4.5 17.35 4.55L17.35 4.55 17.5 4.55Q17.7 4.55 17.98 4.4 18.25 4.25 18.65 4.25L18.65 4.25 19.7 3.65Q19.8 3.55 19.98 3.4 20.15 3.25 20.4 3.05L20.4 3.05Q20.6 3.05 20.93 2.88 21.25 2.7 21.7 2.1L21.7 2.1Q21.9 2.05 22.33 1.7 22.75 1.35 23.05 1.35L23.05 1.35Q23.1 1.35 23.1 1.4L23.1 1.4 23.2 1.4Q23.25 1.4 23.73 1.18 24.2 0.95 24.25 0.95L24.25 0.95Q24.4 0.95 24.45 1L24.45 1Q24.5 0.85 24.58 0.63 24.65 0.4 24.85 0.1L24.85 0.1Q25.7-0.65 25.95-0.65L25.95-0.65Q26-0.65 26-0.6L26-0.6 26.05-0.6Q26.3-0.6 28.15-2.1L28.15-2.1 30.35-3.8Q30.45-3.85 30.6-3.95 30.75-4.05 30.95-4.15L30.95-4.15 31.75-5.1Q32-5.2 32.25-5.38 32.5-5.55 32.6-5.8L32.6-5.8 32.8-6.3Q32.85-6.35 32.9-6.4 32.95-6.45 33-6.5L33-6.5Q33.6-6.5 33.8-7.25L33.8-7.25Q34-7.35 34.1-7.35L34.1-7.35 34.4-7.95 34.55-7.85 35.1-8.3 35.15-8.3Q35.1-8.25 35.2-8.25L35.2-8.25Q35.45-8.5 35.65-8.8 35.85-9.1 36.05-9.35L36.05-9.35Q36.15-9.4 36.3-9.58 36.45-9.75 36.35-9.85L36.35-9.85 36.55-9.85Q38.65-12.8 38.65-13.15L38.65-13.15Q38.75-13.2 38.95-13.43 39.15-13.65 39.5-14.3L39.5-14.3 34.05-21Q33.6-21.4 33.05-22.15L33.05-22.15Q32.9-22.35 32.35-22.7L32.35-22.7Q32.15-23.15 31.4-23.65L31.4-23.65Q30.65-24.25 30.65-24.7L30.65-24.7 30.05-24.9Q29.9-25.05 29.85-25.13 29.8-25.2 29.65-25.2L29.65-25.2Q29.45-25.35 29.2-25.58 28.95-25.8 28.7-26.1L28.7-26.1 28.65-26Q28.1-26.7 26.85-27.4L26.85-27.4Q26.85-27.4 26.83-27.38 26.8-27.35 26.75-27.35L26.75-27.35Q26.55-27.35 26.2-27.6 25.85-27.85 25.7-27.9L25.7-27.9 25.6-27.9Q25.6-27.85 25.55-27.85L25.55-27.85Q25.45-27.85 25.38-27.95 25.3-28.05 25.25-28.05L25.25-28.05Q25.15-28.05 25.15-28L25.15-28 25.2-27.95Q25.15-28 25.03-28.05 24.9-28.1 24.8-28.2L24.8-28.2Q24.65-28.05 24.6-28.05L24.6-28.05Q24.55-28.05 24.45-28.13 24.35-28.2 24.25-28.2L24.25-28.2Q24.2-28.2 24.1-28.13 24-28.05 23.95-28.05L23.95-28.05 23.85-28.05Q23.8-28.1 23.75-28.1L23.75-28.1Q23.3-28.1 22.53-27.58 21.75-27.05 21.7-26.65L21.7-26.65Q21.55-26.55 21.45-26.25L21.45-26.25Q21.25-26.05 21.08-25.7 20.9-25.35 20.8-24.8L20.8-24.8Q20.75-24.75 20.7-24.7 20.65-24.65 20.6-24.6L20.6-24.6Q20.5-23.45 20.43-22.88 20.35-22.3 20.35-22.35L20.35-22.35Q20.35-22.1 20.45-21.3 20.55-20.5 20.75-19.15L20.75-19.15Q20.75-19.05 20.83-18.85 20.9-18.65 20.9-18.5L20.9-18.5Q20.9-18.35 20.85-18.3L20.85-18.3Q20.95-17.85 21.25-16.88 21.55-15.9 21.85-15.25L21.85-15.25 22.1-14.95 22.1-14.75Q22.1-14.6 22.23-14.45 22.35-14.3 22.45-14.2L22.45-14.2Q22.55-14 22.9-13.45L22.9-13.45 23.15-12.8Q23.65-12.05 25.55-10L25.55-10 26-9.7 25.95-9.45Q25.25-9.75 23.5-11.55L23.5-11.55Q23.55-11.6 23.55-11.7L23.55-11.7Q23.55-12.25 23.05-12.05L23.05-12.05Q22.85-12.5 22.1-13.55L22.1-13.55Q22-13.8 21.5-14.55L21.5-14.55Q21.4-15.15 20.95-15.6L20.95-15.6Q20.95-15.65 20.95-15.75 20.95-15.85 21-15.95L21-15.95Q20.95-15.95 20.9-16L20.9-16 20.7-15.9Q20.7-16.15 20.45-16.25L20.45-16.25Q20.5-16.35 20.55-16.48 20.6-16.6 20.6-16.65L20.6-16.65Q20.6-16.8 20.4-16.85L20.4-16.85Q20.3-17.4 20.15-17.6L20.15-17.6Q20.2-17.65 20.2-17.75L20.2-17.75Q20.2-17.8 19.88-18.63 19.55-19.45 19.55-20.35L19.55-20.35Q19.55-20.45 19.48-20.63 19.4-20.8 19.4-20.9L19.4-20.9Q19.4-21.05 19.45-21.28 19.5-21.5 19.5-21.6L19.5-21.6Q19.85-21.8 19.85-22.2L19.85-22.2Q19.85-22.4 19.75-22.6L19.75-22.6Q19.85-22.9 19.85-23.8L19.85-23.8 19.85-23.75Q19.95-23.75 20-24.15L20-24.15Q20-24.25 20-24.35 20-24.45 20.05-24.65L20.05-24.65Q20.7-26.85 21.15-27.2L21.15-27.2 21.9-27.8 22.05-27.65Q22.15-27.8 22.6-28.25L22.6-28.25 23.1-28.4Q23.7-28.55 23.6-28.65L23.6-28.65 23.7-28.6 23.8-28.7Q23.9-28.6 24-28.6L24-28.6Q24.05-28.6 24.5-28.9 24.95-29.2 25.3-29.2L25.3-29.2Q25.55-29.2 25.83-29.18 26.1-29.15 26.3-29.1L26.3-29.1Q26.4-29.1 26.73-28.98 27.05-28.85 27.15-28.85L27.15-28.85 27.2-28.85Q27.2-28.9 27.25-28.9L27.25-28.9Q27.35-28.9 27.63-28.73 27.9-28.55 28-28.55L28-28.55Q28.1-28.55 29.35-28L29.35-28Q29.4-28 29.53-27.85 29.65-27.7 29.75-27.7L29.75-27.7 29.8-27.7Q29.8-27.75 29.85-27.75L29.85-27.75Q29.9-27.75 29.95-27.6L29.95-27.6Q30.35-27.3 31-26.55L31-26.55 31.15-26.65Q31.3-26.45 31.8-26.15L31.8-26.15Q32.05-25.9 32.4-25.58 32.75-25.25 33.15-24.9L33.15-24.9Q33.25-24.8 33.43-24.65 33.6-24.5 33.8-24.25L33.8-24.25 33.9-23.9 35.1-22.8 35.55-21.9Q35.75-21.8 35.98-21.65 36.2-21.5 36.45-21.25L36.45-21.25 36.55-21.2Q36.65-20.85 37-20.35L37-20.35Q37.25-20.25 37.95-19.2L37.95-19.2Q37.95-19.1 38.85-17.95L38.85-17.95Q38.95-17.7 39.25-17.3L39.25-17.3Q39.6-17.25 39.55-16.65L39.55-16.65Q39.75-16.15 40.2-16.15L40.2-16.15Q40.3-16.15 40.3-16.1 40.3-16.05 40.35-16.05L40.35-16.05Q40.4-16.05 40.85-16.75L40.85-16.75Q40.95-16.8 41.2-17.38 41.45-17.95 41.45-18.1L41.45-18.1Q41.45-18.3 41.25-18.32 41.05-18.35 40.9-18.4L40.9-18.4Q41.55-20.4 41.55-21.03 41.55-21.65 41.9-21.65L41.9-21.65 42.05-21.45Q42.2-21.65 42.35-21.65L42.35-21.65Q42.45-21.65 42.58-21.55 42.7-21.45 42.75-21.45L42.75-21.45Q42.85-21.15 43-21.05L43-21.05 43-20.1Q42.65-19.55 42.55-19.2 42.45-18.85 42.25-18.2L42.25-18.2Q42-17.95 41.8-17.7 41.6-17.45 41.7-16.7L41.7-16.7 41.65-16.8Q41.45-16.8 41.15-16.15 40.85-15.5 40.85-15.25L40.85-15.25Q40.9-15.35 41.1-14.7L41.1-14.7Q41.2-14.3 41.5-13.95L41.5-13.95Q41.4-13.75 41.4-13.65L41.4-13.65Q41.4-13.55 41.8-13L41.8-13 41.95-13.1 43.1-12 43.1-11.9Q43.1-11.5 43.2-11.4L43.2-11.4Q43.65-11.3 43.88-11.03 44.1-10.75 44.35-10.45L44.35-10.45 44.3-10.3Q44.3-10 44.8-9.8L44.8-9.8Q44.9-9.65 44.93-9.58 44.95-9.5 45.15-9.3L45.15-9.3Q45.15-9.2 45.33-9 45.5-8.8 45.7-8.4L45.7-8.4 46-7.9Q46.75-7.2 47.55-6.2L47.55-6.2Q47.55-6.1 47.5-6L47.5-6Q47.6-5.95 48-5.48 48.4-5 48.6-5.05L48.6-5.05 48.6-4.8Q48.75-4.45 49.18-3.98 49.6-3.5 49.65-3.55L49.65-3.55Q49.8-3.35 49.95-3.25L49.95-3.25Q49.95-3.1 50.1-3L50.1-3Q50.15-3.1 50.25-3.23 50.35-3.35 50.4-3.45L50.4-3.45 50.5-3.6 50.45-3.6Q50.25-3.95 50.25-4.2L50.25-4.2Q50.25-4.3 50.33-4.45 50.4-4.6 50.4-4.7L50.4-4.7Q50.45-5.4 50.5-6.18 50.55-6.95 51-7.4L51-7.4Q51-7.25 51.05-7.2L51.05-7.2Q51.1-7.3 51.2-7.38 51.3-7.45 51.4-7.55L51.4-7.55Q51.35-7.65 51.33-7.75 51.3-7.85 51.3-7.95L51.3-7.95Q51.3-8.2 51.5-8.68 51.7-9.15 51.7-9.35L51.7-9.35Q51.8-9.45 52-10L52-10Q52.4-10.25 52.3-10.85L52.3-10.85 52.65-11.55Q52.55-11.6 52.25-11.9L52.25-11.9 51.75-10.7Q51.55-10.65 51.48-10.25 51.4-9.85 51.35-9.5L51.35-9.5Q51.1-9.7 51.05-9.75L51.05-9.75Q51.15-9.65 51.6-11.65L51.6-11.65Q51.8-11.85 51.85-12.35 51.9-12.85 52-13L52-13Q52.15-13 52.2-13.2L52.2-13.2 52.2-13.55Q52.55-14.35 53-14.35L53-14.35 53-14.55Q52.95-14.6 52.95-14.65L52.95-14.65Q52.95-15.45 53.8-16L53.8-16 53.8-16.35Q53.8-16.55 54.4-17.1L54.4-17.1Q54.65-17.85 54.7-17.7L54.7-17.7 56.1-19.45 56.4-20.2 56.75-20.65Q57-21 56.95-21.15L56.95-21.15 57.05-21.15Q57.2-21.15 57.35-21.2L57.35-21.2 57.95-21.9 57.95-22.05Q57.95-22.3 58.6-22.8L58.6-22.8Q59.3-23.35 59.3-23.7L59.3-23.7Q59.75-23.9 59.95-24.2L59.95-24.2 59.95-24.35Q60-24.45 60.1-24.53 60.2-24.6 60.3-24.7L60.3-24.7Q60.4-24.7 61.4-25.55L61.4-25.55Q63.15-26.8 63.35-26.8L63.35-26.8Q63.4-26.8 63.48-26.75 63.55-26.7 63.6-26.7L63.6-26.7 63.6-26.75Q63.6-26.8 63.83-26.98 64.05-27.15 64-27.3L64-27.3 64.45-27.3Q64.85-27.3 64.98-27.45 65.1-27.6 65.3-27.7L65.3-27.7Q65.35-27.7 65.4-27.65 65.45-27.6 65.5-27.6L65.5-27.6Q65.75-27.6 65.9-27.9L65.9-27.9Q66.05-27.95 66.2-27.7L66.2-27.7Q66.4-27.9 66.35-27.9L66.35-27.9 66.45-27.9Q66.45-27.85 66.5-27.85L66.5-27.85Q66.7-27.85 66.8-28.1L66.8-28.1Q66.95-28 67-27.75L67-27.75Q66.9-27.55 66.53-27.45 66.15-27.35 65.15-26.7L65.15-26.7Q64.95-26.65 64.78-26.48 64.6-26.3 64.55-26.3L64.55-26.3Q64.45-26.3 64.48-26.35 64.5-26.4 64.4-26.4L64.4-26.4 63.3-25.5Q63.2-25.45 63.05-25.45L63.05-25.45 62.3-24.75Q61.75-24.2 61.8-24L61.8-24 61.65-24.1Q60.55-23.25 60.5-22.65L60.5-22.65Q60.2-22.6 60.2-22.3L60.2-22.3Q59.8-22 59.68-21.83 59.55-21.65 59.45-21.45L59.45-21.45Q59.25-21.25 58.98-20.88 58.7-20.5 58.35-20L58.35-20 57.85-19.45 57.3-18.45Q56.95-18.3 56.9-18 56.85-17.7 56.8-17.45L56.8-17.45Q56.55-17.2 56-16.3L56-16.3Q55.85-16.25 55.4-15.1L55.4-15.1Q55.35-15 55.1-14.55L55.1-14.55 54.9-14.05Q54.65-13.75 54.4-12.75L54.4-12.75Q54.35-12.7 54.3-12.65 54.25-12.6 54.2-12.55L54.2-12.55 54.2-12.5Q54.2-12.1 53.9-12L53.9-12 53.6-11.4 53.6-11Q53.6-10.8 53.38-10.38 53.15-9.95 53.1-9.7L53.1-9.7Q53.1-9.5 52.95-8.95L52.95-8.95Q52.8-8.45 52.8-8.2 52.8-7.95 52.6-7.65L52.6-7.65 52.6-7.55Q52.6-7.4 52.45-7L52.45-7Q52.5-6.9 52.5-6.75 52.5-6.6 52.5-6.5L52.5-6.5 52.5-5.9Q52.45-5.7 52.45-5.53 52.45-5.35 52.45-5.25L52.45-5.25Q52.45-5.35 52.3-4.9L52.3-4.9 52.45-4.6Q52.25-4.55 52.2-4.5L52.2-4.5Q52.3-4.3 52.35-4.2 52.4-4.1 52.4-4.1L52.4-4.1Q52.4-3.95 52.25-3.65 52.1-3.35 52.1-3.2L52.1-3.2Q52.1-3.1 52.2-2.93 52.3-2.75 52.3-2.7L52.3-2.7Q52.3-2.6 52.2-2.35 52.1-2.1 52.1-2L52.1-2Q52.1-1.75 52.15-1.23 52.2-0.7 52.25-0.5L52.25-0.5Q52.35-0.3 53 0.2L53 0.2Q53.7 0.8 53.7 0.8L53.7 0.8Q53.8 0.8 53.8 0.75 53.8 0.7 53.85 0.7L53.85 0.7Q54 0.7 54.1 0.95 54.2 1.2 54.2 1.25L54.2 1.25Q54.2 1.3 54.3 1.3L54.3 1.3Q54.35 1.3 54.35 1.25L54.35 1.25 54.4 1.25Q54.5 1.25 54.4 1.35L54.4 1.35 54.45 1.35Q54.8 1.35 54.85 1.4L54.85 1.4Q55.1 1 55.25 0.9L55.25 0.9Q55.7 0.95 55.7 1.8L55.7 1.8Q55.7 2.1 55.38 2.5 55.05 2.9 54.75 3.25L54.75 3.25Q54.55 3.2 54.45 3L54.45 3Q54.35 3.1 54.15 3.1L54.15 3.1Q54.05 3.1 53.88 3 53.7 2.9 53.6 2.9L53.6 2.9Q53.55 2.9 53.53 2.95 53.5 3 53.45 3L53.45 3 53.35 2.95Q52.85 2.7 52.73 2.73 52.6 2.75 51.9 2.1L51.9 2.1 51.35 1.55Q51.3 1.1 51 0.7L51 0.7Q50.75 1.25 50.6 1.5L50.6 1.5Q50.45 1.95 50.2 1.95L50.2 1.95Q50.1 1.95 49.98 1.9 49.85 1.85 49.75 1.85L49.75 1.85Q49.85 2.15 49.95 2.25 50.05 2.35 50.1 2.65L50.1 2.65Q49.7 3.85 49.1 5.5 48.5 7.15 47.85 8.15L47.85 8.15Q47.15 8.4 47.15 8.85L47.15 8.85Q47.15 8.95 47.25 9.35L47.25 9.35Q47.05 9.75 47.05 10L47.05 10 46.6 10.8Q46.35 11 46.13 11.23 45.9 11.45 45.9 11.9L45.9 11.9 45.6 12.5Q45.25 12.7 45.03 12.88 44.8 13.05 44.8 13.55L44.8 13.55Q43.2 15.55 41.2 16.05L41.2 16.05 41.65 16.4Q41.75 16.4 42.1 16.65 42.45 16.9 42.5 17L42.5 17Q43.2 17.5 43.6 17.68 44 17.85 44.35 17.85L44.35 17.85Q44.8 17.85 45.6 17.7L45.6 17.7Q45.7 17.7 45.78 17.68 45.85 17.65 45.9 17.65L45.9 17.65Q46.25 17.65 46.28 17.82 46.3 18 46.1 18.25L46.1 18.25Q46.05 18.3 45.9 18.45 45.75 18.6 45.7 18.6L45.7 18.6Q45.5 18.6 45.28 18.68 45.05 18.75 44.8 18.7ZM39.2 15.2L39.2 15.2 39.05 15.05Q38.85 14.7 38.4 14.43 37.95 14.15 37.55 13.7L37.55 13.7Q37.2 13.3 36.9 12.88 36.6 12.45 36.3 12.15L36.3 12.15Q36.2 11.95 35.9 11.5 35.6 11.05 35.3 10.7L35.3 10.7Q35.1 10.45 35.05 10.15 35 9.85 34.9 9.8L34.9 9.8Q34.7 9.5 34.48 9.25 34.25 9 34.05 8.55L34.05 8.55Q33.8 8.15 33.52 7.53 33.25 6.9 32.85 6.4L32.85 6.4 31.85 5.15Q32.65 8.25 34.15 10.65 35.65 13.05 37.35 14.2L37.35 14.2Q37.85 14.55 38.3 14.8 38.75 15.05 39.2 15.2Z" opacity="1" transform="matrix(1,0,0,1,0,0)" fill="black" class="wordmark-text-0" id="SvgjsPath1278" stroke-width="5" stroke="black" stroke-linejoin="round"></path></svg></g></svg></g></svg></g></svg></g><g></g></svg></g></svg></g></svg></g></mask><g mask="url(#ba19444d-e09e-4ce1-851a-efdd2d3a6b75)"><g><path d="M231.855 207.53v0c-0.701-0.234-1.227-0.467-1.578-0.701-0.351-0.234-0.876-0.175-1.577 0.175v0c-0.351-0.117-0.818-0.257-1.403-0.421-0.584-0.187-1.052-0.456-1.402-0.806v0l-3.331-2.63c-0.818-0.701-1.718-1.344-2.699-1.928-1.005-0.584-1.858-1.169-2.56-1.753v0l-0.525-0.876c-2.571 0.234-5.317-0.234-8.239-1.403-2.922-1.169-5.843-3.155-8.765-5.96v0c-0.701-0.117-1.309-0.608-1.823-1.472-0.538-0.888-1.04-1.624-1.508-2.209v0c-0.818-0.117-1.344-0.432-1.577-0.946-0.234-0.538-0.467-1.215-0.702-2.034v0c-0.117 0-0.199-0.082-0.245-0.245-0.07-0.187-0.105-0.28-0.105-0.281v0l-1.052-0.701v-0.175c-0.467-1.169-0.76-1.952-0.876-2.349-0.117-0.421-0.643-1.04-1.578-1.858v0c-0.234-0.234-0.409-0.643-0.526-1.227-0.117-0.584-0.292-1.052-0.526-1.403v0c-1.519-3.506-2.863-7.012-4.032-10.517-1.169-3.506-1.753-7.246-1.752-11.219v0c0-1.169 0.327-2.068 0.981-2.7 0.631-0.654 1.356-0.982 2.174-0.982v0c1.402 0 2.454 0.876 3.155 2.63v0c0.234 0.467 0.467 0.993 0.701 1.578 0.234 0.584 0.409 1.169 0.526 1.753v0l0.351 1.928c0.234 1.052 0.818 2.746 1.753 5.083 0.935 2.337 2.045 4.639 3.33 6.907 1.286 2.291 2.571 4.079 3.857 5.364v0l2.805 4.558c0.584 1.519 1.461 3.038 2.629 4.557 1.169 1.519 2.162 2.571 2.98 3.156v0l6.311 6.135 1.753 1.578c1.519 0 3.097-0.374 4.732-1.122 1.636-0.771 3.214-2.033 4.733-3.787v0c3.038-3.272 5.726-7.362 8.064-12.27 2.337-4.908 4.441-10.074 6.311-15.496 1.87-5.446 3.564-10.623 5.083-15.532v0l1.052-1.227c0.351-0.935 0.526-1.718 0.526-2.349 0-0.654 0.058-1.566 0.175-2.734v0l1.052-3.331v-0.701l-2.63-4.207-2.629-3.331-2.629-2.454c-0.351-0.935-1.227-2.104-2.63-3.506v0c-0.117-1.519-2.98-5.317-8.589-11.394v0c0.117-0.117 0.175-0.234 0.175-0.35v0c0-0.351-0.409-0.935-1.227-1.753-0.818-0.818-1.286-1.344-1.402-1.578v0l-0.526-1.227h-0.351v-0.351c0-1.169-0.818-2.22-2.454-3.155v0c-0.117-1.052-0.643-1.695-1.578-1.928v0c0 0-0.117-0.467-0.35-1.403v0c-0.117-0.117-0.351-0.175-0.701-0.175v0c-1.519-1.636-2.454-2.396-2.805-2.279v0c-0.117-0.467-1.169-2.104-3.155-4.908v0c-0.467 0.351-1.052 1.286-1.753 2.805v0c-1.052 0.467-1.695 1.578-1.929 3.33v0l-0.701 0.176c-0.234 0.234-0.584 0.643-1.052 1.227-0.467 0.584-1.402 1.928-2.804 4.032v0c-0.818 0.351-1.461 1.286-1.929 2.804v0c-0.351 0.117-0.876 0.643-1.577 1.578v0l0.175 0.526c-0.467 0.701-1.11 1.519-1.928 2.454-0.818 0.935-1.753 1.987-2.805 3.155v0l-0.876 1.928h-1.227c-0.234 0.584-0.526 1.169-0.877 1.753-0.351 0.584-0.76 1.169-1.227 1.753v0l-0.526-0.35v1.052l-5.083 5.434-0.351-0.351c-0.351 0.234-0.643 0.818-0.876 1.753v0l-3.156 2.279-0.175-0.175c-0.117 0-0.467 0.351-1.052 1.051v0 0.702l-2.629 2.629c-0.467 0.234-0.935 0.584-1.403 1.052v0c-1.753 1.286-2.746 2.185-2.98 2.699-0.234 0.538-0.876 1.099-1.928 1.683v0c-0.467 1.169-1.987 2.279-4.557 3.331v0c-0.234 0.234-0.409 0.526-0.526 0.876v0l-0.351 0.175-1.052 1.052c-0.701 0.701-1.286 1.262-1.753 1.683-0.467 0.397-0.643 0.713-0.526 0.947v0c-0.117-0.117-0.292-0.175-0.525-0.176v0c-1.052 0-1.695 0.526-1.929 1.578v0l-0.175-0.351c-0.935 0.935-2.454 2.045-4.558 3.331v0c-3.038 2.22-4.558 3.331-4.557 3.331v0c-0.234 0-0.351-0.058-0.351-0.176v0h-0.35c-0.351 0-1.461 0.584-3.331 1.753v0c-1.87 1.169-2.98 1.753-3.331 1.753v0h-0.526c-0.234-0.117-0.467-0.175-0.701-0.175v0c0.467 0 0.234 0.351-0.701 1.052v0c-1.87 1.169-3.155 1.753-3.856 1.753v0h-0.526c-0.117-0.117-0.351-0.175-0.701-0.176v0c-0.117 0-0.234 0.152-0.351 0.456-0.117 0.28-0.234 0.421-0.351 0.421v0c-0.818 0-1.344-0.058-1.577-0.175v0c-0.467 0.701-0.935 1.052-1.403 1.051v0h-0.35c0-0.117-0.058-0.175-0.176-0.175v0c-0.234 0-0.467 0.175-0.701 0.526v0h-0.35c-0.935 0-2.396 0.351-4.383 1.052v0c-0.818 0-1.402 0.234-1.753 0.701v0l-0.525-0.351c-1.519 0.935-3.389 1.344-5.61 1.227v0c-1.286 0.117-3.331 0.467-6.135 1.052v0c-0.351 0-0.783-0.023-1.297-0.07-0.538-0.07-1.157-0.164-1.859-0.281v0c-0.935 0-2.22-0.117-3.856-0.35-1.636-0.234-3.506-0.643-5.609-1.227v0c0.117 0.117-0.351 0.175-1.403 0.175v0c-0.701 0-1.519-0.467-2.454-1.402v0c-0.351 0-0.584 0.058-0.701 0.175v0h-0.526c-0.234 0-0.783-0.257-1.648-0.771-0.888-0.538-1.449-0.806-1.683-0.807v0c-0.234 0-0.409 0.058-0.526 0.176v0c-0.351-0.467-0.993-1.286-1.928-2.454v0c0-0.351-0.199-0.818-0.596-1.403-0.421-0.584-1.449-1.461-3.085-2.629v0l-0.526-3.857c-0.117-1.753-0.701-2.805-1.753-3.155v0c-0.351-0.584-0.526-1.052-0.526-1.402v0c0-0.234 0.058-0.491 0.176-0.772 0.117-0.304 0.175-0.514 0.175-0.631v0-1.928c0-0.351 0.058-0.783 0.175-1.297 0.117-0.538 0.175-0.923 0.176-1.157v0c0-0.351-0.058-0.818-0.176-1.402-0.117-0.584-0.175-1.052-0.175-1.403v0c0-0.351 0.058-0.876 0.175-1.577 0.117-0.701 0.175-1.227 0.176-1.578v0-0.877c-0.117-0.351-0.175-0.643-0.176-0.876v0c0 0.351 0.584-1.87 1.753-6.661v0l0.526-0.526c0.467-2.805 1.227-4.733 2.279-5.785v0-0.526c2.805-3.155 4.266-5.493 4.382-7.012v0c1.636-1.987 2.922-3.599 3.857-4.838 0.935-1.215 1.519-2.057 1.753-2.524v0l3.155-2.805c0-0.351 0.175-0.876 0.526-1.577v0l2.279-2.104c0-0.117 0.117-0.409 0.35-0.876v0c1.87-1.286 2.629-1.928 2.279-1.929v0c0.117 0 0.175 0.058 0.175 0.176v0h0.176c0.234 0 0.876-0.643 1.928-1.929v0c1.052-1.402 1.636-2.104 1.753-2.103v0c0.234 0 0.327 0.058 0.28 0.175-0.07 0.117 0.012 0.175 0.246 0.176v0c0 0 0.21-0.269 0.631-0.807 0.397-0.514 1.005-1.356 1.823-2.524v0c0.234 0.234 0.818 0.409 1.753 0.526v0c0-0.234 0.701-0.935 2.103-2.104v0c0.818-0.818 1.11-1.227 0.877-1.227v0c0.234 0 0.292 0.058 0.175 0.175v0h0.351c0.117 0 0.21-0.117 0.28-0.35 0.047-0.234 0.187-0.351 0.421-0.351v0h0.175c0 0.117 0.058 0.175 0.176 0.176v0c0.584 0 1.204-0.327 1.858-0.982 0.631-0.631 0.947-0.947 0.946-0.947v0c0.584 0 0.993 0.058 1.227 0.176v0 1.051l-2.804 2.455-2.63 1.051c-1.052 1.169-1.636 1.753-1.753 1.753v0h-0.35c0.117-0.117 0.058-0.175-0.176-0.175v0c-0.234 0-1.227 0.935-2.98 2.805v0c-0.234 0.117-0.491 0.292-0.771 0.526-0.304 0.234-0.689 0.526-1.157 0.876v0c-0.234 0.818-1.052 1.928-2.454 3.331v0l-0.175 0.701c-1.169 0.818-2.922 2.746-5.259 5.785v0l-0.701 0.35v0.351c0 0.351-0.234 0.76-0.702 1.227v0c-0.351 0.117-0.549 0.292-0.596 0.526-0.07 0.234-0.573 1.227-1.507 2.98v0l-0.877 0.701c-0.351 0.467-0.725 1.017-1.121 1.648-0.421 0.654-0.923 1.449-1.508 2.384v0c-0.234 0.467-0.549 1.11-0.947 1.928-0.421 0.818-0.923 1.753-1.507 2.805v0c-0.117 0.117-0.292 0.292-0.526 0.525-0.234 0.234-0.467 0.467-0.701 0.702v0c-0.234 1.286-0.818 2.513-1.753 3.681v0c-0.234 0.234-0.608 0.666-1.122 1.297-0.538 0.654-1.04 2.15-1.508 4.488v0l-0.175 0.175-1.052 3.33c-0.117 0.584-0.257 1.169-0.42 1.753-0.187 0.584-0.222 1.11-0.106 1.578v0c-0.701 0.701-1.052 2.571-1.051 5.61v0c0 0.234 0.058 0.467 0.175 0.701 0.117 0.234 0.175 0.351 0.175 0.35v0c0 0.117-0.058 0.292-0.175 0.526-0.117 0.234-0.175 0.409-0.175 0.526v0c0 0.117 0.093 0.327 0.28 0.631 0.164 0.28 0.245 0.479 0.246 0.596v0 0.877c-0.117 0.351-0.175 0.701-0.176 1.051v0c0 0.467 0.327 1.087 0.982 1.858 0.631 0.748 0.888 1.531 0.771 2.349v0c0.584 0.935 1.402 1.87 2.454 2.805 1.052 0.935 2.279 1.87 3.682 2.805v0c1.636 0.935 2.513 1.402 2.629 1.402v0h0.175c0-0.117 0.058-0.175 0.176-0.175v0c2.571 1.87 4.207 2.805 4.908 2.805v0c0.234 0 0.467-0.117 0.701-0.351v0h1.928c0.467-0.234 0.701-0.351 0.701-0.351v0c0.351 0 0.935 0.152 1.753 0.456 0.818 0.28 1.402 0.421 1.753 0.421v0l0.526-0.351h1.227c1.286 0 2.664-0.14 4.137-0.42 1.449-0.304 2.992-0.689 4.628-1.157v0l5.609-1.403 1.929-0.35c1.402 0.117 2.431-0.14 3.085-0.772 0.631-0.654 1.531-1.157 2.699-1.507v0c0.117 0 0.234 0.058 0.351 0.175v0h0.526c0.467 0 1.028-0.175 1.683-0.526 0.631-0.351 1.414-0.526 2.349-0.526v0l3.681-2.103c0.234-0.234 0.561-0.526 0.982-0.877 0.397-0.351 0.888-0.76 1.472-1.227v0c0.467 0 1.087-0.199 1.858-0.596 0.748-0.421 1.648-1.332 2.7-2.734v0c0.467-0.117 1.204-0.584 2.208-1.403 0.982-0.818 1.823-1.227 2.525-1.227v0c0.117 0 0.175 0.058 0.175 0.176v0h0.351c0.117 0 0.736-0.257 1.858-0.772 1.099-0.538 1.706-0.806 1.823-0.806v0c0.351 0 0.584 0.058 0.701 0.175v0c0.117-0.351 0.269-0.783 0.456-1.297 0.164-0.538 0.479-1.157 0.946-1.858v0c1.987-1.753 3.272-2.629 3.857-2.629v0c0.117 0 0.175 0.058 0.175 0.175v0h0.175c0.584 0 3.038-1.753 7.363-5.259v0l7.713-5.96c0.234-0.117 0.526-0.292 0.876-0.526 0.351-0.234 0.76-0.467 1.227-0.701v0l2.805-3.331c0.584-0.234 1.169-0.561 1.753-0.981 0.584-0.397 0.993-0.888 1.227-1.473v0l0.701-1.753c0.117-0.117 0.234-0.234 0.351-0.35 0.117-0.117 0.234-0.234 0.35-0.351v0c1.402 0 2.337-0.876 2.805-2.629v0c0.467-0.234 0.818-0.351 1.052-0.351v0l1.052-2.104 0.525 0.351 1.929-1.578h0.175c-0.117 0.117-0.058 0.175 0.175 0.176v0c0.584-0.584 1.11-1.227 1.578-1.929 0.467-0.701 0.935-1.344 1.402-1.928v0c0.234-0.117 0.526-0.386 0.877-0.806 0.351-0.397 0.409-0.713 0.175-0.947v0h0.701c4.908-6.895 7.362-10.751 7.363-11.569v0c0.234-0.117 0.584-0.444 1.051-0.982 0.467-0.514 1.11-1.531 1.929-3.05v0l-19.108-23.489c-1.052-0.935-2.22-2.279-3.505-4.032v0c-0.351-0.467-1.169-1.11-2.455-1.928v0c-0.467-1.052-1.578-2.162-3.33-3.331v0c-1.753-1.402-2.629-2.629-2.63-3.681v0l-2.103-0.701c-0.351-0.351-0.584-0.619-0.701-0.807-0.117-0.164-0.351-0.245-0.701-0.245v0c-0.467-0.351-0.993-0.795-1.578-1.332-0.584-0.514-1.169-1.122-1.753-1.824v0l-0.175 0.351c-1.286-1.636-3.389-3.272-6.311-4.908v0c0 0-0.023 0.023-0.07 0.07-0.07 0.07-0.164 0.105-0.281 0.105v0c-0.467 0-1.11-0.292-1.928-0.876-0.818-0.584-1.402-0.935-1.753-1.052v0h-0.35c0 0.117-0.058 0.175-0.176 0.175v0c-0.234 0-0.432-0.117-0.596-0.35-0.187-0.234-0.339-0.351-0.455-0.351v0c-0.234 0-0.351 0.058-0.351 0.175v0l0.175 0.176c-0.117-0.117-0.316-0.234-0.596-0.351-0.304-0.117-0.573-0.292-0.806-0.526v0c-0.351 0.351-0.584 0.526-0.701 0.526v0c-0.117 0-0.292-0.093-0.526-0.281-0.234-0.164-0.467-0.245-0.701-0.245v0c-0.117 0-0.292 0.082-0.526 0.245-0.234 0.187-0.409 0.28-0.526 0.281v0h-0.351c-0.117-0.117-0.234-0.175-0.35-0.175v0c-1.052 0-2.478 0.608-4.277 1.823-1.823 1.239-2.793 2.326-2.91 3.26v0c-0.351 0.234-0.643 0.701-0.877 1.403v0c-0.467 0.467-0.9 1.11-1.297 1.928-0.421 0.818-0.748 1.87-0.982 3.155v0c-0.117 0.117-0.234 0.234-0.35 0.351-0.117 0.117-0.234 0.234-0.351 0.35v0c-0.234 2.688-0.432 4.698-0.596 6.03-0.187 1.356-0.28 1.975-0.28 1.859v0c0 0.584 0.117 1.811 0.35 3.681 0.234 1.87 0.584 4.382 1.052 7.537v0c0 0.234 0.093 0.584 0.281 1.052 0.164 0.467 0.245 0.876 0.245 1.227v0c0 0.351-0.058 0.584-0.175 0.701v0c0.234 1.052 0.701 2.711 1.402 4.979 0.701 2.291 1.402 4.195 2.104 5.714v0l0.876 1.052v0.701c0 0.351 0.152 0.701 0.456 1.052 0.28 0.351 0.538 0.643 0.771 0.877v0c0.234 0.467 0.76 1.344 1.578 2.629v0l0.876 2.279c1.169 1.753 3.973 5.025 8.414 9.816v0l1.578 1.052-0.175 0.877c-1.636-0.701-4.499-3.155-8.59-7.363v0c0.117-0.117 0.175-0.292 0.176-0.526v0c0-1.286-0.584-1.695-1.753-1.227v0c-0.467-1.052-1.578-2.805-3.331-5.259v0c-0.234-0.584-0.935-1.753-2.104-3.505v0c-0.234-1.402-0.876-2.629-1.928-3.682v0c0-0.117 0-0.292 0-0.526 0-0.234 0.058-0.467 0.176-0.701v0c-0.117 0-0.234-0.058-0.351-0.175v0l-0.701 0.351c0-0.584-0.292-0.993-0.877-1.227v0c0.117-0.234 0.234-0.503 0.351-0.807 0.117-0.28 0.175-0.479 0.175-0.596v0c0-0.351-0.234-0.584-0.701-0.701v0c-0.234-1.286-0.526-2.162-0.876-2.629v0c0.117-0.117 0.175-0.292 0.175-0.526v0c0-0.117-0.374-1.145-1.122-3.086-0.771-1.917-1.157-3.927-1.157-6.03v0c0-0.234-0.082-0.561-0.245-0.981-0.187-0.397-0.28-0.713-0.281-0.947v0c0-0.351 0.058-0.795 0.175-1.332 0.117-0.514 0.175-0.888 0.176-1.122v0c0.818-0.467 1.227-1.169 1.227-2.104v0c0-0.467-0.117-0.935-0.351-1.402v0c0.234-0.701 0.351-2.104 0.351-4.207v0 0.175c0.234 0 0.409-0.467 0.526-1.402v0c0-0.234 0-0.467 0-0.701 0-0.234 0.058-0.584 0.175-1.052v0c1.519-5.142 2.805-8.122 3.856-8.94v0l2.63-2.104 0.526 0.526c0.234-0.351 0.876-1.052 1.928-2.103v0l1.753-0.526c1.402-0.351 1.987-0.643 1.753-0.877v0l0.35 0.176 0.351-0.351c0.234 0.234 0.467 0.351 0.701 0.351v0c0.117 0 0.701-0.351 1.753-1.052 1.052-0.701 1.987-1.052 2.805-1.052v0c0.584 0 1.204 0.023 1.858 0.07 0.631 0.07 1.18 0.164 1.648 0.281v0c0.234 0 0.736 0.14 1.507 0.42 0.748 0.304 1.239 0.456 1.473 0.456v0h0.175c0-0.117 0.058-0.175 0.175-0.175v0c0.234 0 0.678 0.199 1.333 0.596 0.631 0.421 1.063 0.631 1.297 0.631v0c0.234 0 1.811 0.643 4.733 1.928v0c0.117 0 0.327 0.175 0.631 0.526 0.28 0.351 0.538 0.526 0.771 0.526v0h0.175c0-0.117 0.058-0.175 0.176-0.175v0c0.117 0 0.234 0.175 0.35 0.526v0c0.935 0.701 2.162 1.928 3.681 3.681v0l0.526-0.351c0.351 0.467 1.11 1.052 2.279 1.753v0c0.584 0.584 1.286 1.25 2.104 1.998 0.818 0.771 1.695 1.566 2.629 2.384v0c0.234 0.234 0.561 0.526 0.982 0.877 0.397 0.351 0.83 0.818 1.297 1.402v0l0.351 1.227 4.207 3.857 1.577 3.155c0.467 0.234 0.97 0.526 1.508 0.877 0.514 0.351 1.063 0.818 1.648 1.402v0l0.35 0.175c0.234 0.818 0.76 1.811 1.578 2.98v0c0.584 0.234 1.695 1.578 3.33 4.032v0c0 0.234 1.052 1.695 3.156 4.382v0c0.234 0.584 0.701 1.344 1.402 2.279v0c0.818 0.117 1.169 0.876 1.052 2.279v0c0.467 1.169 1.227 1.753 2.279 1.753v0c0.234 0 0.351 0.058 0.35 0.175 0 0.117 0.058 0.175 0.176 0.176v0c0.117 0 0.701-0.818 1.753-2.454v0c0.234-0.117 0.643-0.853 1.227-2.209 0.584-1.332 0.876-2.174 0.876-2.524v0c0-0.467-0.234-0.725-0.701-0.772-0.467-0.07-0.876-0.164-1.227-0.28v0c1.519-4.675 2.279-7.748 2.279-9.221 0-1.449 0.409-2.174 1.227-2.173v0l0.526 0.701c0.351-0.467 0.701-0.701 1.051-0.701v0c0.234 0 0.503 0.117 0.807 0.35 0.28 0.234 0.479 0.351 0.596 0.351v0c0.234 0.701 0.526 1.169 0.876 1.402v0 3.331c-0.818 1.286-1.344 2.337-1.577 3.155-0.234 0.818-0.584 1.987-1.052 3.506v0c-0.584 0.584-1.11 1.169-1.578 1.753-0.467 0.584-0.584 1.753-0.35 3.506v0l-0.176-0.351c-0.467 0-1.052 0.76-1.753 2.279-0.701 1.519-1.052 2.571-1.051 3.155v0c0.117-0.234 0.409 0.409 0.876 1.929v0c0.234 0.935 0.701 1.811 1.402 2.629v0c-0.234 0.467-0.351 0.818-0.35 1.052v0c0 0.234 0.467 0.993 1.402 2.279v0l0.526-0.351 4.032 3.857v0.35c0 0.935 0.117 1.519 0.35 1.753v0c1.052 0.234 1.846 0.666 2.384 1.297 0.514 0.654 1.063 1.332 1.648 2.034v0l-0.175 0.526c0 0.701 0.584 1.286 1.753 1.752v0c0.234 0.351 0.386 0.608 0.456 0.772 0.047 0.187 0.304 0.514 0.771 0.981v0c0 0.234 0.21 0.584 0.631 1.052 0.397 0.467 0.83 1.169 1.297 2.104v0l1.052 1.753c1.753 1.636 3.564 3.623 5.434 5.96v0c0 0.234-0.058 0.467-0.175 0.701v0c0.234 0.117 0.818 0.725 1.753 1.823 0.935 1.122 1.636 1.624 2.103 1.508v0 0.876c0.351 0.818 1.028 1.776 2.034 2.875 0.982 1.122 1.531 1.624 1.647 1.507v0c0.351 0.467 0.701 0.818 1.052 1.052v0c0 0.351 0.175 0.643 0.526 0.877v0c0.117-0.234 0.292-0.503 0.526-0.807 0.234-0.28 0.409-0.538 0.526-0.771v0l0.35-0.526h-0.175c-0.467-0.818-0.701-1.519-0.701-2.103v0c0-0.234 0.093-0.526 0.28-0.877 0.164-0.351 0.245-0.643 0.246-0.876v0c0.117-1.636 0.234-3.366 0.35-5.189 0.117-1.8 0.701-3.225 1.753-4.277v0c0 0.351 0.058 0.584 0.176 0.701v0c0.117-0.234 0.292-0.444 0.526-0.631 0.234-0.164 0.467-0.362 0.701-0.596v0c-0.117-0.234-0.199-0.467-0.246-0.701-0.07-0.234-0.105-0.467-0.105-0.702v0c0-0.584 0.234-1.437 0.701-2.559 0.467-1.099 0.701-1.881 0.701-2.349v0c0.234-0.234 0.584-0.993 1.052-2.279v0c0.935-0.584 1.286-1.578 1.052-2.98v0l1.227-2.454c-0.234-0.117-0.701-0.526-1.402-1.227v0l-1.753 4.207c-0.467 0.117-0.783 0.643-0.947 1.578-0.187 0.935-0.339 1.811-0.456 2.629v0c-0.584-0.467-0.935-0.76-1.051-0.876v0c0.234 0.234 0.876-1.987 1.928-6.661v0c0.467-0.467 0.76-1.286 0.876-2.455 0.117-1.169 0.292-1.928 0.526-2.278v0c0.351 0 0.584-0.234 0.701-0.702v0-1.227c0.818-1.87 1.753-2.805 2.805-2.804v0-0.701c-0.117-0.117-0.175-0.234-0.175-0.351v0c0-1.87 0.993-3.447 2.98-4.733v0-1.227c0-0.467 0.701-1.344 2.103-2.63v0c0.584-1.753 0.935-2.454 1.052-2.103v0l4.908-6.135 1.052-2.63 1.227-1.577c0.584-0.818 0.818-1.402 0.701-1.753v0h0.351c0.351 0 0.701-0.058 1.052-0.176v0l2.103-2.454v-0.526c0-0.584 0.76-1.461 2.279-2.629v0c1.636-1.286 2.454-2.337 2.454-3.155v0c1.052-0.467 1.811-1.052 2.279-1.753v0-0.526c0.117-0.234 0.292-0.444 0.526-0.631 0.234-0.164 0.467-0.362 0.701-0.596v0c0.234 0 1.519-0.993 3.857-2.98v0c4.09-2.922 6.369-4.382 6.836-4.383v0c0.117 0 0.269 0.058 0.456 0.176 0.164 0.117 0.304 0.175 0.421 0.175v0-0.175c0-0.117 0.269-0.386 0.806-0.807 0.514-0.397 0.713-0.771 0.596-1.122v0h1.578c0.935 0 1.554-0.175 1.858-0.526 0.28-0.351 0.654-0.643 1.122-0.876v0c0.117 0 0.234 0.058 0.35 0.175 0.117 0.117 0.234 0.175 0.351 0.176v0c0.584 0 1.052-0.351 1.402-1.052v0c0.351-0.117 0.701 0.117 1.052 0.701v0c0.467-0.467 0.643-0.701 0.526-0.701v0h0.35c0 0.117 0.058 0.175 0.176 0.175v0c0.467 0 0.818-0.292 1.052-0.876v0c0.351 0.234 0.584 0.643 0.701 1.227v0c-0.234 0.467-0.783 0.818-1.648 1.051-0.888 0.234-2.501 1.11-4.838 2.63v0c-0.467 0.117-0.9 0.374-1.297 0.771-0.421 0.421-0.689 0.631-0.807 0.631v0c-0.234 0-0.316-0.058-0.245-0.175 0.047-0.117-0.047-0.175-0.281-0.175v0l-3.856 3.155c-0.234 0.117-0.526 0.175-0.877 0.175v0l-2.629 2.454c-1.286 1.286-1.87 2.162-1.753 2.63v0l-0.526-0.351c-2.571 1.987-3.915 3.681-4.032 5.084v0c-0.701 0.117-1.052 0.526-1.051 1.227v0c-0.935 0.701-1.543 1.25-1.823 1.648-0.304 0.421-0.573 0.865-0.807 1.332v0c-0.467 0.467-1.017 1.134-1.648 1.998-0.654 0.888-1.391 1.917-2.208 3.085v0l-1.753 1.929-1.929 3.506c-0.818 0.351-1.286 0.876-1.402 1.577-0.117 0.701-0.234 1.344-0.35 1.928v0c-0.584 0.584-1.519 1.928-2.805 4.032v0c-0.351 0.117-1.052 1.519-2.104 4.207v0c-0.117 0.234-0.467 0.876-1.051 1.929v0l-0.702 1.752c-0.584 0.701-1.169 2.22-1.753 4.558v0c-0.117 0.117-0.234 0.234-0.35 0.351-0.117 0.117-0.234 0.234-0.351 0.35v0 0.176c0 0.935-0.351 1.519-1.052 1.753v0l-1.051 2.103v1.402c0 0.467-0.257 1.192-0.772 2.174-0.538 1.005-0.865 1.8-0.981 2.384v0c0 0.467-0.175 1.344-0.526 2.63v0c-0.351 1.169-0.526 2.045-0.526 2.629 0 0.584-0.234 1.227-0.701 1.928v0 0.351c0 0.351-0.175 0.993-0.526 1.928v0c0.117 0.234 0.175 0.526 0.175 0.876 0 0.351 0 0.643 0 0.877v0 2.104c-0.117 0.467-0.175 0.9-0.175 1.297 0 0.421 0 0.748 0 0.981v0c0-0.234-0.175 0.175-0.526 1.227v0l0.526 1.052c-0.467 0.117-0.76 0.234-0.877 0.351v0c0.234 0.467 0.409 0.818 0.526 1.052 0.117 0.234 0.175 0.351 0.176 0.35v0c0 0.351-0.175 0.876-0.526 1.578-0.351 0.701-0.526 1.227-0.526 1.577v0c0 0.234 0.117 0.549 0.35 0.947 0.234 0.421 0.351 0.689 0.351 0.806v0c0 0.234-0.117 0.643-0.351 1.227-0.234 0.584-0.351 0.993-0.35 1.227v0c0 0.584 0.058 1.484 0.175 2.7 0.117 1.239 0.234 2.092 0.351 2.559v0c0.234 0.467 1.11 1.286 2.629 2.454v0c1.636 1.402 2.454 2.104 2.454 2.104v0c0.234 0 0.351-0.058 0.351-0.175 0-0.117 0.058-0.175 0.175-0.176v0c0.351 0 0.643 0.292 0.877 0.877 0.234 0.584 0.351 0.935 0.35 1.052v0c0 0.117 0.117 0.175 0.351 0.175v0c0.117 0 0.175-0.058 0.175-0.175v0h0.175c0.234 0 0.234 0.117 0 0.35v0h0.176c0.818 0 1.286 0.058 1.402 0.176v0c0.584-0.935 1.052-1.519 1.402-1.753v0c1.052 0.117 1.578 1.169 1.578 3.155v0c0 0.701-0.374 1.519-1.122 2.454-0.771 0.935-1.508 1.811-2.209 2.629v0c-0.467-0.117-0.818-0.409-1.051-0.876v0c-0.234 0.234-0.584 0.351-1.052 0.351v0c-0.234 0-0.549-0.117-0.947-0.351-0.421-0.234-0.748-0.351-0.981-0.351v0c-0.117 0-0.199 0.058-0.246 0.176-0.07 0.117-0.164 0.175-0.28 0.175v0l-0.351-0.175c-1.169-0.584-1.893-0.841-2.173-0.772-0.304 0.047-1.274-0.689-2.91-2.208v0l-1.929-1.929c-0.117-1.052-0.526-2.045-1.227-2.98v0c-0.584 1.286-1.052 2.22-1.402 2.805v0c-0.351 1.052-0.818 1.578-1.402 1.578v0c-0.234 0-0.491-0.058-0.772-0.176-0.304-0.117-0.573-0.175-0.806-0.175v0c0.234 0.701 0.467 1.169 0.701 1.403 0.234 0.234 0.409 0.701 0.526 1.402v0c-0.935 2.805-2.104 6.135-3.506 9.992-1.402 3.856-2.863 6.953-4.382 9.29v0c-1.636 0.584-2.454 1.402-2.454 2.454v0c0 0.234 0.117 0.818 0.35 1.753v0c-0.467 0.935-0.701 1.695-0.701 2.279v0l-1.578 2.805c-0.584 0.467-1.134 0.97-1.647 1.508-0.538 0.514-0.806 1.297-0.807 2.348v0l-1.052 2.104c-0.818 0.467-1.484 0.912-1.998 1.332-0.538 0.397-0.806 1.18-0.806 2.349v0c-3.74 4.675-7.947 7.596-12.621 8.765v0l1.577 1.227c0.234 0 0.76 0.292 1.578 0.876 0.818 0.584 1.286 0.993 1.402 1.228v0c1.636 1.169 2.922 1.963 3.857 2.384 0.935 0.397 1.811 0.596 2.629 0.596v0c1.052 0 2.513-0.175 4.382-0.526v0c0.234 0 0.444-0.023 0.632-0.07 0.164-0.07 0.304-0.105 0.42-0.106v0c0.818 0 1.262 0.199 1.332 0.596 0.047 0.421-0.164 0.923-0.631 1.508v0c-0.117 0.117-0.351 0.351-0.701 0.701-0.351 0.351-0.584 0.526-0.701 0.526v0c-0.467 0-0.958 0.093-1.472 0.28-0.538 0.164-1.099 0.187-1.683 0.071zM212.222 195.259v0l-0.526-0.526c-0.467-0.818-1.227-1.543-2.279-2.173-1.052-0.654-2.045-1.508-2.98-2.56v0c-0.818-0.935-1.578-1.893-2.279-2.875-0.701-1.005-1.402-1.858-2.103-2.559v0c-0.234-0.467-0.701-1.227-1.403-2.279-0.701-1.052-1.402-1.987-2.103-2.804v0c-0.467-0.584-0.76-1.227-0.877-1.929-0.117-0.701-0.292-1.11-0.526-1.227v0c-0.467-0.701-0.958-1.344-1.472-1.928-0.538-0.584-1.04-1.402-1.508-2.454v0c-0.584-0.935-1.204-2.127-1.858-3.576-0.631-1.472-1.414-2.793-2.349-3.962v0l-3.506-4.382c1.87 7.246 4.558 13.673 8.064 19.282 3.506 5.609 7.246 9.758 11.219 12.446v0c1.169 0.818 2.279 1.519 3.331 2.104 1.052 0.584 2.104 1.052 3.155 1.402z" fill="#000000" fill-rule="nonzero" stroke="none" stroke-width="1" stroke-linecap="butt" stroke-linejoin="miter" stroke-miterlimit="10" stroke-dasharray="" stroke-dashoffset="0" font-family="none" font-weight="none" font-size="none" text-anchor="none" style="mix-blend-mode: normal" data-fill-palette-color="tertiary"></path></g></g><g transform="matrix(1,0,0,1,85.1957142857143,37.08)"><svg viewBox="0 0 225.12857142857138 173.04" height="173.04" width="225.12857142857138"><g><svg viewBox="0 0 225.12857142857138 173.04" height="173.04" width="225.12857142857138"><g><svg viewBox="0 0 225.12857142857138 173.04" height="173.04" width="225.12857142857138"><g><svg viewBox="0 0 225.12857142857138 173.04" height="173.04" width="225.12857142857138"><g id="textblocktransform"><svg viewBox="0 0 225.12857142857138 173.04" height="173.04" width="225.12857142857138" id="textblock"><g><svg viewBox="0 0 225.12857142857138 173.04" height="173.04" width="225.12857142857138"><g transform="matrix(1,0,0,1,0,0)"><svg width="225.12857142857138" viewBox="0.1499999999999999 -32.2 69.85 53.920833333332" height="173.04" data-palette-color="#3a424c"><path d="M44.8 18.7L44.8 18.7Q44.5 18.6 44.35 18.5 44.2 18.4 43.9 18.55L43.9 18.55Q43.75 18.5 43.5 18.43 43.25 18.35 43.1 18.2L43.1 18.2 42.15 17.45Q41.8 17.15 41.38 16.9 40.95 16.65 40.65 16.4L40.65 16.4 40.5 16.15Q39.4 16.25 38.15 15.75 36.9 15.25 35.65 14.05L35.65 14.05Q35.35 14 35.13 13.63 34.9 13.25 34.7 13L34.7 13Q34.35 12.95 34.25 12.73 34.15 12.5 34.05 12.15L34.05 12.15Q34 12.15 33.98 12.08 33.95 12 33.95 12L33.95 12 33.65 11.8 33.65 11.75Q33.45 11.25 33.4 11.08 33.35 10.9 32.95 10.55L32.95 10.55Q32.85 10.45 32.8 10.2 32.75 9.95 32.65 9.8L32.65 9.8Q32 8.3 31.5 6.8 31 5.3 31 3.6L31 3.6Q31 3.1 31.28 2.83 31.55 2.55 31.9 2.55L31.9 2.55Q32.5 2.55 32.8 3.3L32.8 3.3Q32.9 3.5 33 3.75 33.1 4 33.15 4.25L33.15 4.25 33.25 4.8Q33.35 5.25 33.75 6.25 34.15 7.25 34.7 8.22 35.25 9.2 35.8 9.75L35.8 9.75 36.6 11.05Q36.85 11.7 37.35 12.35 37.85 13 38.2 13.25L38.2 13.25 40 15 40.5 15.45Q41.15 15.45 41.85 15.13 42.55 14.8 43.2 14.05L43.2 14.05Q44.5 12.65 45.5 10.55 46.5 8.45 47.3 6.13 48.1 3.8 48.75 1.7L48.75 1.7 49.05 1.35Q49.2 0.95 49.2 0.68 49.2 0.4 49.25-0.1L49.25-0.1 49.55-1.05 49.55-1.25 48.8-2.45 48.05-3.4 47.3-4.1Q47.15-4.5 46.55-5.1L46.55-5.1Q46.5-5.75 44.1-8.35L44.1-8.35Q44.15-8.4 44.15-8.45L44.15-8.45Q44.15-8.6 43.8-8.95 43.45-9.3 43.4-9.4L43.4-9.4 43.25-9.75 43.15-9.75 43.15-9.85Q43.15-10.35 42.45-10.75L42.45-10.75Q42.4-11.2 42-11.3L42-11.3Q42-11.3 41.9-11.7L41.9-11.7Q41.85-11.75 41.7-11.75L41.7-11.75Q41.05-12.45 40.9-12.4L40.9-12.4Q40.85-12.6 40-13.8L40-13.8Q39.8-13.65 39.5-13L39.5-13Q39.05-12.8 38.95-12.05L38.95-12.05 38.75-12Q38.65-11.9 38.45-11.65 38.25-11.4 37.65-10.5L37.65-10.5Q37.3-10.35 37.1-9.7L37.1-9.7Q36.95-9.65 36.65-9.25L36.65-9.25 36.7-9.1Q36.5-8.8 36.15-8.4 35.8-8 35.35-7.5L35.35-7.5 35.1-6.95 34.75-6.95Q34.65-6.7 34.5-6.45 34.35-6.2 34.15-5.95L34.15-5.95 34-6.05 34-5.75 32.55-4.2 32.45-4.3Q32.3-4.2 32.2-3.8L32.2-3.8 31.3-3.15 31.25-3.2Q31.2-3.2 30.95-2.9L30.95-2.9 30.95-2.7 30.2-1.95Q30-1.85 29.8-1.65L29.8-1.65Q29.05-1.1 28.95-0.88 28.85-0.65 28.4-0.4L28.4-0.4Q28.2 0.1 27.1 0.55L27.1 0.55Q27 0.65 26.95 0.8L26.95 0.8 26.85 0.85 26.55 1.15Q26.25 1.45 26.05 1.63 25.85 1.8 25.9 1.9L25.9 1.9Q25.85 1.85 25.75 1.85L25.75 1.85Q25.3 1.85 25.2 2.3L25.2 2.3 25.15 2.2Q24.75 2.6 23.85 3.15L23.85 3.15Q22.55 4.1 22.55 4.1L22.55 4.1Q22.45 4.1 22.45 4.05L22.45 4.05 22.35 4.05Q22.2 4.05 21.4 4.55L21.4 4.55Q20.6 5.05 20.45 5.05L20.45 5.05 20.3 5.05Q20.2 5 20.1 5L20.1 5Q20.3 5 19.9 5.3L19.9 5.3Q19.1 5.8 18.8 5.8L18.8 5.8 18.65 5.8Q18.6 5.75 18.45 5.75L18.45 5.75Q18.4 5.75 18.35 5.88 18.3 6 18.25 6L18.25 6Q17.9 6 17.8 5.95L17.8 5.95Q17.6 6.25 17.4 6.25L17.4 6.25 17.3 6.25Q17.3 6.2 17.25 6.2L17.25 6.2Q17.15 6.2 17.05 6.35L17.05 6.35 16.95 6.35Q16.55 6.35 15.7 6.65L15.7 6.65Q15.35 6.65 15.2 6.85L15.2 6.85 15.05 6.75Q14.4 7.15 13.45 7.1L13.45 7.1Q12.9 7.15 11.7 7.4L11.7 7.4Q11.55 7.4 11.33 7.38 11.1 7.35 10.8 7.3L10.8 7.3Q10.4 7.3 9.7 7.2 9 7.1 8.1 6.85L8.1 6.85Q8.15 6.9 7.7 6.9L7.7 6.9Q7.4 6.9 7 6.5L7 6.5Q6.85 6.5 6.8 6.55L6.8 6.55 6.65 6.55Q6.55 6.55 6.18 6.33 5.8 6.1 5.7 6.1L5.7 6.1Q5.6 6.1 5.55 6.15L5.55 6.15Q5.4 5.95 5 5.45L5 5.45Q5 5.3 4.83 5.05 4.65 4.8 3.95 4.3L3.95 4.3 3.8 3.2Q3.75 2.45 3.3 2.3L3.3 2.3Q3.15 2.05 3.15 1.9L3.15 1.9Q3.15 1.8 3.2 1.68 3.25 1.55 3.25 1.5L3.25 1.5 3.25 0.95Q3.25 0.8 3.3 0.58 3.35 0.35 3.35 0.25L3.35 0.25Q3.35 0.1 3.3-0.15 3.25-0.4 3.25-0.55L3.25-0.55Q3.25-0.7 3.3-1 3.35-1.3 3.35-1.45L3.35-1.45 3.35-1.7Q3.3-1.85 3.3-1.95L3.3-1.95Q3.3-1.8 3.8-3.85L3.8-3.85 3.95-4Q4.15-5.2 4.6-5.65L4.6-5.65 4.6-5.8Q5.8-7.15 5.85-7.8L5.85-7.8Q6.55-8.65 6.95-9.18 7.35-9.7 7.45-9.9L7.45-9.9 8.35-10.7Q8.35-10.85 8.5-11.15L8.5-11.15 9.15-11.75Q9.15-11.8 9.25-12L9.25-12Q10.05-12.55 9.9-12.55L9.9-12.55Q9.95-12.55 9.95-12.5L9.95-12.5 10-12.5Q10.1-12.5 10.55-13.05L10.55-13.05Q11-13.65 11.05-13.65L11.05-13.65Q11.15-13.65 11.13-13.6 11.1-13.55 11.2-13.55L11.2-13.55Q11.2-13.55 11.38-13.78 11.55-14 11.9-14.5L11.9-14.5Q12-14.4 12.4-14.35L12.4-14.35Q12.4-14.45 13-14.95L13-14.95Q13.35-15.3 13.25-15.3L13.25-15.3Q13.35-15.3 13.3-15.25L13.3-15.25 13.4-15.25Q13.45-15.25 13.48-15.35 13.5-15.45 13.6-15.45L13.6-15.45 13.65-15.45Q13.65-15.4 13.7-15.4L13.7-15.4Q13.95-15.4 14.23-15.68 14.5-15.95 14.5-15.95L14.5-15.95Q14.75-15.95 14.85-15.9L14.85-15.9 14.85-15.6 14.05-14.9 13.3-14.6Q12.85-14.1 12.8-14.1L12.8-14.1 12.7-14.1Q12.75-14.15 12.65-14.15L12.65-14.15Q12.55-14.15 11.8-13.35L11.8-13.35Q11.7-13.3 11.58-13.2 11.45-13.1 11.25-12.95L11.25-12.95Q11.15-12.6 10.55-12L10.55-12 10.5-11.8Q10-11.45 9-10.15L9-10.15 8.8-10.05 8.8-9.95Q8.8-9.8 8.6-9.6L8.6-9.6Q8.45-9.55 8.43-9.45 8.4-9.35 8-8.6L8-8.6 7.75-8.4Q7.6-8.2 7.43-7.93 7.25-7.65 7-7.25L7-7.25Q6.9-7.05 6.73-6.7 6.55-6.35 6.3-5.9L6.3-5.9Q6.25-5.85 6.15-5.75 6.05-5.65 5.95-5.55L5.95-5.55Q5.85-5 5.45-4.5L5.45-4.5Q5.35-4.4 5.13-4.13 4.9-3.85 4.7-2.85L4.7-2.85 4.65-2.8 4.35-1.85Q4.3-1.6 4.23-1.35 4.15-1.1 4.2-0.9L4.2-0.9Q3.9-0.6 3.9 0.7L3.9 0.7Q3.9 0.8 3.95 0.9 4 1 4 1L4 1Q4 1.05 3.95 1.15 3.9 1.25 3.9 1.3L3.9 1.3Q3.9 1.35 3.98 1.48 4.05 1.6 4.05 1.65L4.05 1.65 4.05 1.9Q4 2.05 4 2.2L4 2.2Q4 2.4 4.28 2.73 4.55 3.05 4.5 3.4L4.5 3.4Q4.75 3.8 5.2 4.2 5.65 4.6 6.25 5L6.25 5Q6.95 5.4 7 5.4L7 5.4 7.05 5.4Q7.05 5.35 7.1 5.35L7.1 5.35Q8.2 6.15 8.5 6.15L8.5 6.15Q8.6 6.15 8.7 6.05L8.7 6.05 9.25 6.05Q9.45 5.95 9.45 5.95L9.45 5.95Q9.6 5.95 9.95 6.08 10.3 6.2 10.45 6.2L10.45 6.2 10.6 6.1 10.95 6.1Q11.5 6.1 12.13 5.98 12.75 5.85 13.45 5.65L13.45 5.65 15.05 5.25 15.6 5.15Q16.2 5.2 16.48 4.93 16.75 4.65 17.25 4.5L17.25 4.5Q17.3 4.5 17.35 4.55L17.35 4.55 17.5 4.55Q17.7 4.55 17.98 4.4 18.25 4.25 18.65 4.25L18.65 4.25 19.7 3.65Q19.8 3.55 19.98 3.4 20.15 3.25 20.4 3.05L20.4 3.05Q20.6 3.05 20.93 2.88 21.25 2.7 21.7 2.1L21.7 2.1Q21.9 2.05 22.33 1.7 22.75 1.35 23.05 1.35L23.05 1.35Q23.1 1.35 23.1 1.4L23.1 1.4 23.2 1.4Q23.25 1.4 23.73 1.18 24.2 0.95 24.25 0.95L24.25 0.95Q24.4 0.95 24.45 1L24.45 1Q24.5 0.85 24.58 0.63 24.65 0.4 24.85 0.1L24.85 0.1Q25.7-0.65 25.95-0.65L25.95-0.65Q26-0.65 26-0.6L26-0.6 26.05-0.6Q26.3-0.6 28.15-2.1L28.15-2.1 30.35-3.8Q30.45-3.85 30.6-3.95 30.75-4.05 30.95-4.15L30.95-4.15 31.75-5.1Q32-5.2 32.25-5.38 32.5-5.55 32.6-5.8L32.6-5.8 32.8-6.3Q32.85-6.35 32.9-6.4 32.95-6.45 33-6.5L33-6.5Q33.6-6.5 33.8-7.25L33.8-7.25Q34-7.35 34.1-7.35L34.1-7.35 34.4-7.95 34.55-7.85 35.1-8.3 35.15-8.3Q35.1-8.25 35.2-8.25L35.2-8.25Q35.45-8.5 35.65-8.8 35.85-9.1 36.05-9.35L36.05-9.35Q36.15-9.4 36.3-9.58 36.45-9.75 36.35-9.85L36.35-9.85 36.55-9.85Q38.65-12.8 38.65-13.15L38.65-13.15Q38.75-13.2 38.95-13.43 39.15-13.65 39.5-14.3L39.5-14.3 34.05-21Q33.6-21.4 33.05-22.15L33.05-22.15Q32.9-22.35 32.35-22.7L32.35-22.7Q32.15-23.15 31.4-23.65L31.4-23.65Q30.65-24.25 30.65-24.7L30.65-24.7 30.05-24.9Q29.9-25.05 29.85-25.13 29.8-25.2 29.65-25.2L29.65-25.2Q29.45-25.35 29.2-25.58 28.95-25.8 28.7-26.1L28.7-26.1 28.65-26Q28.1-26.7 26.85-27.4L26.85-27.4Q26.85-27.4 26.83-27.38 26.8-27.35 26.75-27.35L26.75-27.35Q26.55-27.35 26.2-27.6 25.85-27.85 25.7-27.9L25.7-27.9 25.6-27.9Q25.6-27.85 25.55-27.85L25.55-27.85Q25.45-27.85 25.38-27.95 25.3-28.05 25.25-28.05L25.25-28.05Q25.15-28.05 25.15-28L25.15-28 25.2-27.95Q25.15-28 25.03-28.05 24.9-28.1 24.8-28.2L24.8-28.2Q24.65-28.05 24.6-28.05L24.6-28.05Q24.55-28.05 24.45-28.13 24.35-28.2 24.25-28.2L24.25-28.2Q24.2-28.2 24.1-28.13 24-28.05 23.95-28.05L23.95-28.05 23.85-28.05Q23.8-28.1 23.75-28.1L23.75-28.1Q23.3-28.1 22.53-27.58 21.75-27.05 21.7-26.65L21.7-26.65Q21.55-26.55 21.45-26.25L21.45-26.25Q21.25-26.05 21.08-25.7 20.9-25.35 20.8-24.8L20.8-24.8Q20.75-24.75 20.7-24.7 20.65-24.65 20.6-24.6L20.6-24.6Q20.5-23.45 20.43-22.88 20.35-22.3 20.35-22.35L20.35-22.35Q20.35-22.1 20.45-21.3 20.55-20.5 20.75-19.15L20.75-19.15Q20.75-19.05 20.83-18.85 20.9-18.65 20.9-18.5L20.9-18.5Q20.9-18.35 20.85-18.3L20.85-18.3Q20.95-17.85 21.25-16.88 21.55-15.9 21.85-15.25L21.85-15.25 22.1-14.95 22.1-14.75Q22.1-14.6 22.23-14.45 22.35-14.3 22.45-14.2L22.45-14.2Q22.55-14 22.9-13.45L22.9-13.45 23.15-12.8Q23.65-12.05 25.55-10L25.55-10 26-9.7 25.95-9.45Q25.25-9.75 23.5-11.55L23.5-11.55Q23.55-11.6 23.55-11.7L23.55-11.7Q23.55-12.25 23.05-12.05L23.05-12.05Q22.85-12.5 22.1-13.55L22.1-13.55Q22-13.8 21.5-14.55L21.5-14.55Q21.4-15.15 20.95-15.6L20.95-15.6Q20.95-15.65 20.95-15.75 20.95-15.85 21-15.95L21-15.95Q20.95-15.95 20.9-16L20.9-16 20.7-15.9Q20.7-16.15 20.45-16.25L20.45-16.25Q20.5-16.35 20.55-16.48 20.6-16.6 20.6-16.65L20.6-16.65Q20.6-16.8 20.4-16.85L20.4-16.85Q20.3-17.4 20.15-17.6L20.15-17.6Q20.2-17.65 20.2-17.75L20.2-17.75Q20.2-17.8 19.88-18.63 19.55-19.45 19.55-20.35L19.55-20.35Q19.55-20.45 19.48-20.63 19.4-20.8 19.4-20.9L19.4-20.9Q19.4-21.05 19.45-21.28 19.5-21.5 19.5-21.6L19.5-21.6Q19.85-21.8 19.85-22.2L19.85-22.2Q19.85-22.4 19.75-22.6L19.75-22.6Q19.85-22.9 19.85-23.8L19.85-23.8 19.85-23.75Q19.95-23.75 20-24.15L20-24.15Q20-24.25 20-24.35 20-24.45 20.05-24.65L20.05-24.65Q20.7-26.85 21.15-27.2L21.15-27.2 21.9-27.8 22.05-27.65Q22.15-27.8 22.6-28.25L22.6-28.25 23.1-28.4Q23.7-28.55 23.6-28.65L23.6-28.65 23.7-28.6 23.8-28.7Q23.9-28.6 24-28.6L24-28.6Q24.05-28.6 24.5-28.9 24.95-29.2 25.3-29.2L25.3-29.2Q25.55-29.2 25.83-29.18 26.1-29.15 26.3-29.1L26.3-29.1Q26.4-29.1 26.73-28.98 27.05-28.85 27.15-28.85L27.15-28.85 27.2-28.85Q27.2-28.9 27.25-28.9L27.25-28.9Q27.35-28.9 27.63-28.73 27.9-28.55 28-28.55L28-28.55Q28.1-28.55 29.35-28L29.35-28Q29.4-28 29.53-27.85 29.65-27.7 29.75-27.7L29.75-27.7 29.8-27.7Q29.8-27.75 29.85-27.75L29.85-27.75Q29.9-27.75 29.95-27.6L29.95-27.6Q30.35-27.3 31-26.55L31-26.55 31.15-26.65Q31.3-26.45 31.8-26.15L31.8-26.15Q32.05-25.9 32.4-25.58 32.75-25.25 33.15-24.9L33.15-24.9Q33.25-24.8 33.43-24.65 33.6-24.5 33.8-24.25L33.8-24.25 33.9-23.9 35.1-22.8 35.55-21.9Q35.75-21.8 35.98-21.65 36.2-21.5 36.45-21.25L36.45-21.25 36.55-21.2Q36.65-20.85 37-20.35L37-20.35Q37.25-20.25 37.95-19.2L37.95-19.2Q37.95-19.1 38.85-17.95L38.85-17.95Q38.95-17.7 39.25-17.3L39.25-17.3Q39.6-17.25 39.55-16.65L39.55-16.65Q39.75-16.15 40.2-16.15L40.2-16.15Q40.3-16.15 40.3-16.1 40.3-16.05 40.35-16.05L40.35-16.05Q40.4-16.05 40.85-16.75L40.85-16.75Q40.95-16.8 41.2-17.38 41.45-17.95 41.45-18.1L41.45-18.1Q41.45-18.3 41.25-18.32 41.05-18.35 40.9-18.4L40.9-18.4Q41.55-20.4 41.55-21.03 41.55-21.65 41.9-21.65L41.9-21.65 42.05-21.45Q42.2-21.65 42.35-21.65L42.35-21.65Q42.45-21.65 42.58-21.55 42.7-21.45 42.75-21.45L42.75-21.45Q42.85-21.15 43-21.05L43-21.05 43-20.1Q42.65-19.55 42.55-19.2 42.45-18.85 42.25-18.2L42.25-18.2Q42-17.95 41.8-17.7 41.6-17.45 41.7-16.7L41.7-16.7 41.65-16.8Q41.45-16.8 41.15-16.15 40.85-15.5 40.85-15.25L40.85-15.25Q40.9-15.35 41.1-14.7L41.1-14.7Q41.2-14.3 41.5-13.95L41.5-13.95Q41.4-13.75 41.4-13.65L41.4-13.65Q41.4-13.55 41.8-13L41.8-13 41.95-13.1 43.1-12 43.1-11.9Q43.1-11.5 43.2-11.4L43.2-11.4Q43.65-11.3 43.88-11.03 44.1-10.75 44.35-10.45L44.35-10.45 44.3-10.3Q44.3-10 44.8-9.8L44.8-9.8Q44.9-9.65 44.93-9.58 44.95-9.5 45.15-9.3L45.15-9.3Q45.15-9.2 45.33-9 45.5-8.8 45.7-8.4L45.7-8.4 46-7.9Q46.75-7.2 47.55-6.2L47.55-6.2Q47.55-6.1 47.5-6L47.5-6Q47.6-5.95 48-5.48 48.4-5 48.6-5.05L48.6-5.05 48.6-4.8Q48.75-4.45 49.18-3.98 49.6-3.5 49.65-3.55L49.65-3.55Q49.8-3.35 49.95-3.25L49.95-3.25Q49.95-3.1 50.1-3L50.1-3Q50.15-3.1 50.25-3.23 50.35-3.35 50.4-3.45L50.4-3.45 50.5-3.6 50.45-3.6Q50.25-3.95 50.25-4.2L50.25-4.2Q50.25-4.3 50.33-4.45 50.4-4.6 50.4-4.7L50.4-4.7Q50.45-5.4 50.5-6.18 50.55-6.95 51-7.4L51-7.4Q51-7.25 51.05-7.2L51.05-7.2Q51.1-7.3 51.2-7.38 51.3-7.45 51.4-7.55L51.4-7.55Q51.35-7.65 51.33-7.75 51.3-7.85 51.3-7.95L51.3-7.95Q51.3-8.2 51.5-8.68 51.7-9.15 51.7-9.35L51.7-9.35Q51.8-9.45 52-10L52-10Q52.4-10.25 52.3-10.85L52.3-10.85 52.65-11.55Q52.55-11.6 52.25-11.9L52.25-11.9 51.75-10.7Q51.55-10.65 51.48-10.25 51.4-9.85 51.35-9.5L51.35-9.5Q51.1-9.7 51.05-9.75L51.05-9.75Q51.15-9.65 51.6-11.65L51.6-11.65Q51.8-11.85 51.85-12.35 51.9-12.85 52-13L52-13Q52.15-13 52.2-13.2L52.2-13.2 52.2-13.55Q52.55-14.35 53-14.35L53-14.35 53-14.55Q52.95-14.6 52.95-14.65L52.95-14.65Q52.95-15.45 53.8-16L53.8-16 53.8-16.35Q53.8-16.55 54.4-17.1L54.4-17.1Q54.65-17.85 54.7-17.7L54.7-17.7 56.1-19.45 56.4-20.2 56.75-20.65Q57-21 56.95-21.15L56.95-21.15 57.05-21.15Q57.2-21.15 57.35-21.2L57.35-21.2 57.95-21.9 57.95-22.05Q57.95-22.3 58.6-22.8L58.6-22.8Q59.3-23.35 59.3-23.7L59.3-23.7Q59.75-23.9 59.95-24.2L59.95-24.2 59.95-24.35Q60-24.45 60.1-24.53 60.2-24.6 60.3-24.7L60.3-24.7Q60.4-24.7 61.4-25.55L61.4-25.55Q63.15-26.8 63.35-26.8L63.35-26.8Q63.4-26.8 63.48-26.75 63.55-26.7 63.6-26.7L63.6-26.7 63.6-26.75Q63.6-26.8 63.83-26.98 64.05-27.15 64-27.3L64-27.3 64.45-27.3Q64.85-27.3 64.98-27.45 65.1-27.6 65.3-27.7L65.3-27.7Q65.35-27.7 65.4-27.65 65.45-27.6 65.5-27.6L65.5-27.6Q65.75-27.6 65.9-27.9L65.9-27.9Q66.05-27.95 66.2-27.7L66.2-27.7Q66.4-27.9 66.35-27.9L66.35-27.9 66.45-27.9Q66.45-27.85 66.5-27.85L66.5-27.85Q66.7-27.85 66.8-28.1L66.8-28.1Q66.95-28 67-27.75L67-27.75Q66.9-27.55 66.53-27.45 66.15-27.35 65.15-26.7L65.15-26.7Q64.95-26.65 64.78-26.48 64.6-26.3 64.55-26.3L64.55-26.3Q64.45-26.3 64.48-26.35 64.5-26.4 64.4-26.4L64.4-26.4 63.3-25.5Q63.2-25.45 63.05-25.45L63.05-25.45 62.3-24.75Q61.75-24.2 61.8-24L61.8-24 61.65-24.1Q60.55-23.25 60.5-22.65L60.5-22.65Q60.2-22.6 60.2-22.3L60.2-22.3Q59.8-22 59.68-21.83 59.55-21.65 59.45-21.45L59.45-21.45Q59.25-21.25 58.98-20.88 58.7-20.5 58.35-20L58.35-20 57.85-19.45 57.3-18.45Q56.95-18.3 56.9-18 56.85-17.7 56.8-17.45L56.8-17.45Q56.55-17.2 56-16.3L56-16.3Q55.85-16.25 55.4-15.1L55.4-15.1Q55.35-15 55.1-14.55L55.1-14.55 54.9-14.05Q54.65-13.75 54.4-12.75L54.4-12.75Q54.35-12.7 54.3-12.65 54.25-12.6 54.2-12.55L54.2-12.55 54.2-12.5Q54.2-12.1 53.9-12L53.9-12 53.6-11.4 53.6-11Q53.6-10.8 53.38-10.38 53.15-9.95 53.1-9.7L53.1-9.7Q53.1-9.5 52.95-8.95L52.95-8.95Q52.8-8.45 52.8-8.2 52.8-7.95 52.6-7.65L52.6-7.65 52.6-7.55Q52.6-7.4 52.45-7L52.45-7Q52.5-6.9 52.5-6.75 52.5-6.6 52.5-6.5L52.5-6.5 52.5-5.9Q52.45-5.7 52.45-5.53 52.45-5.35 52.45-5.25L52.45-5.25Q52.45-5.35 52.3-4.9L52.3-4.9 52.45-4.6Q52.25-4.55 52.2-4.5L52.2-4.5Q52.3-4.3 52.35-4.2 52.4-4.1 52.4-4.1L52.4-4.1Q52.4-3.95 52.25-3.65 52.1-3.35 52.1-3.2L52.1-3.2Q52.1-3.1 52.2-2.93 52.3-2.75 52.3-2.7L52.3-2.7Q52.3-2.6 52.2-2.35 52.1-2.1 52.1-2L52.1-2Q52.1-1.75 52.15-1.23 52.2-0.7 52.25-0.5L52.25-0.5Q52.35-0.3 53 0.2L53 0.2Q53.7 0.8 53.7 0.8L53.7 0.8Q53.8 0.8 53.8 0.75 53.8 0.7 53.85 0.7L53.85 0.7Q54 0.7 54.1 0.95 54.2 1.2 54.2 1.25L54.2 1.25Q54.2 1.3 54.3 1.3L54.3 1.3Q54.35 1.3 54.35 1.25L54.35 1.25 54.4 1.25Q54.5 1.25 54.4 1.35L54.4 1.35 54.45 1.35Q54.8 1.35 54.85 1.4L54.85 1.4Q55.1 1 55.25 0.9L55.25 0.9Q55.7 0.95 55.7 1.8L55.7 1.8Q55.7 2.1 55.38 2.5 55.05 2.9 54.75 3.25L54.75 3.25Q54.55 3.2 54.45 3L54.45 3Q54.35 3.1 54.15 3.1L54.15 3.1Q54.05 3.1 53.88 3 53.7 2.9 53.6 2.9L53.6 2.9Q53.55 2.9 53.53 2.95 53.5 3 53.45 3L53.45 3 53.35 2.95Q52.85 2.7 52.73 2.73 52.6 2.75 51.9 2.1L51.9 2.1 51.35 1.55Q51.3 1.1 51 0.7L51 0.7Q50.75 1.25 50.6 1.5L50.6 1.5Q50.45 1.95 50.2 1.95L50.2 1.95Q50.1 1.95 49.98 1.9 49.85 1.85 49.75 1.85L49.75 1.85Q49.85 2.15 49.95 2.25 50.05 2.35 50.1 2.65L50.1 2.65Q49.7 3.85 49.1 5.5 48.5 7.15 47.85 8.15L47.85 8.15Q47.15 8.4 47.15 8.85L47.15 8.85Q47.15 8.95 47.25 9.35L47.25 9.35Q47.05 9.75 47.05 10L47.05 10 46.6 10.8Q46.35 11 46.13 11.23 45.9 11.45 45.9 11.9L45.9 11.9 45.6 12.5Q45.25 12.7 45.03 12.88 44.8 13.05 44.8 13.55L44.8 13.55Q43.2 15.55 41.2 16.05L41.2 16.05 41.65 16.4Q41.75 16.4 42.1 16.65 42.45 16.9 42.5 17L42.5 17Q43.2 17.5 43.6 17.68 44 17.85 44.35 17.85L44.35 17.85Q44.8 17.85 45.6 17.7L45.6 17.7Q45.7 17.7 45.78 17.68 45.85 17.65 45.9 17.65L45.9 17.65Q46.25 17.65 46.28 17.82 46.3 18 46.1 18.25L46.1 18.25Q46.05 18.3 45.9 18.45 45.75 18.6 45.7 18.6L45.7 18.6Q45.5 18.6 45.28 18.68 45.05 18.75 44.8 18.7ZM39.2 15.2L39.2 15.2 39.05 15.05Q38.85 14.7 38.4 14.43 37.95 14.15 37.55 13.7L37.55 13.7Q37.2 13.3 36.9 12.88 36.6 12.45 36.3 12.15L36.3 12.15Q36.2 11.95 35.9 11.5 35.6 11.05 35.3 10.7L35.3 10.7Q35.1 10.45 35.05 10.15 35 9.85 34.9 9.8L34.9 9.8Q34.7 9.5 34.48 9.25 34.25 9 34.05 8.55L34.05 8.55Q33.8 8.15 33.52 7.53 33.25 6.9 32.85 6.4L32.85 6.4 31.85 5.15Q32.65 8.25 34.15 10.65 35.65 13.05 37.35 14.2L37.35 14.2Q37.85 14.55 38.3 14.8 38.75 15.05 39.2 15.2Z" opacity="1" transform="matrix(1,0,0,1,0,0)" fill="#000000" class="wordmark-text-0" data-fill-palette-color="primary" id="text-0"></path></svg></g></svg></g></svg></g></svg></g><g></g></svg></g></svg></g></svg></g></svg></g><defs></defs></svg><rect width="395.52" height="247.2" fill="none" stroke="none" visibility="hidden"></rect></g></svg></g></svg>