<svg xmlns="http://www.w3.org/2000/svg" version="1.1" xmlns:xlink="http://www.w3.org/1999/xlink" xmlns:svgjs="http://svgjs.dev/svgjs" width="1500" height="939" viewBox="0 0 1500 939"><g transform="matrix(1,0,0,1,-0.9090909090909918,-1.5145161290323017)"><svg viewBox="0 0 396 248" data-background-color="#f8efed" preserveAspectRatio="xMidYMid meet" height="939" width="1500" xmlns="http://www.w3.org/2000/svg" xmlns:xlink="http://www.w3.org/1999/xlink"><g id="tight-bounds" transform="matrix(1,0,0,1,0.2400000000000091,0.4000000000000057)"><svg viewBox="0 0 395.52 247.2" height="247.2" width="395.52"><g><svg></svg></g><g><svg viewBox="0 0 395.52 247.2" height="247.2" width="395.52"><mask id="87d69ba7-524b-4726-9149-63ba0bf5ef74"><rect width="395.52" height="247.2" fill="white"></rect><g transform="matrix(1,0,0,1,0,76.62370255615801)" id="clone"><svg viewBox="0 0 395.52 93.95259488768396" height="93.95259488768396" width="395.52"><g><svg viewBox="0 0 395.52 93.95259488768396" height="93.95259488768396" width="395.52"><g><svg viewBox="0 0 395.52 93.95259488768396" height="93.95259488768396" width="395.52"><g><svg viewBox="0 0 395.52 93.95259488768396" height="93.95259488768396" width="395.52"><g id="SvgjsG4594"><svg viewBox="0 0 395.52 93.95259488768396" height="93.95259488768396" width="395.52" id="SvgjsSvg4593"><g><svg viewBox="0 0 395.52 93.95259488768396" height="93.95259488768396" width="395.52"><g transform="matrix(1,0,0,1,0,0)"><svg width="395.52" viewBox="-2.9 -38.15 194.64000000000001 47" height="93.95259488768396" data-palette-color="#3a424c"><path d="M20.1-0.6L20.1-0.6Q18.9 1.25 18.9 1.83 18.9 2.4 19.35 2.6L19.35 2.6Q19.35 2.7 18.53 3.23 17.7 3.75 16.25 3.75 14.8 3.75 14.8 3L14.8 3Q14.8 1.7 19.73-5.63 24.65-12.95 26.2-15.75L26.2-15.75Q29.6-21.85 29.6-25.4L29.6-25.4Q29.6-26.8 29.05-28L29.05-28Q28.2-29.8 24.95-29.8L24.95-29.8Q19-29.8 12.3-24.35L12.3-24.35Q7.2-20.15 4.45-15.65L4.45-15.65Q1.95-11.4 1.95-8.05L1.95-8.05Q1.95-3.25 6.4-3.15L6.4-3.15Q6.6-3.15 6.8-3.15L6.8-3.15Q12.7-3.15 15.75-7.3L15.75-7.3Q16.95-8.95 16.95-10.1 16.95-11.25 16.4-11.55L16.4-11.55Q16.35-11.6 16.35-11.75 16.35-11.9 16.65-11.9L16.65-11.9Q17.95-11.9 17.95-10.2L17.95-10.2Q17.95-9.15 16.95-7.35 15.95-5.55 13.33-3.95 10.7-2.35 7.35-2.35 4-2.35 2.05-4.3 0.1-6.25 0.1-9.55L0.1-9.55Q0.1-17.35 10.8-25.95L10.8-25.95Q13.5-28.1 17.82-29.55 22.15-31 25.68-31 29.2-31 30.65-29.68 32.1-28.35 32.1-26L32.1-26Q32.1-20.3 25.2-9.85L25.2-9.85Q26.75-11.8 30.25-14.8L30.25-14.8Q42.7-25.25 51.65-28.55L51.65-28.55Q52.1-28.75 52.65-28.75L52.65-28.75Q54.55-28.75 55.05-26.6L55.05-26.6Q55.3-25.75 52.65-23.05L52.65-23.05Q46.4-16.65 42.05-9.05 37.7-1.45 37.7 1.85L37.7 1.85Q37.7 2.65 38 2.98 38.3 3.3 38.95 3.18 39.6 3.05 41.68 2.15 43.75 1.25 44.4 1.1L44.4 1.1Q44.65 1.2 44.65 1.35L44.65 1.35Q44.65 2.1 42.03 3.45 39.4 4.8 38.1 4.8 36.8 4.8 36.45 4.35L36.45 4.35Q35.55 3.1 35.55 1.2L35.55 1.2Q35.55-3.1 40.15-11.15L40.15-11.15Q43.1-16.2 49.25-24.75L49.25-24.75Q42.6-24.15 32.05-14.25L32.05-14.25Q23.65-6.3 20.1-0.6ZM81.95-19.8L81.95-19.8 81.6-21.15Q81.6-21.55 82-21.55L82-21.55Q82.15-21.55 82.4-21.4L82.4-21.4Q83.55-20.55 83.55-19.15 83.55-17.75 81.75-16.43 79.95-15.1 77.2-15.1L77.2-15.1Q76.35-15.1 75.5-15.25L75.5-15.25Q72.05-8.9 67.1-3.55L67.1-3.55Q60.5 3.45 55.1 3.45L55.1 3.45Q47.3 3.45 47.3-5.75L47.3-5.75Q47.3-13.35 51.35-18L51.35-18Q54.75-22 59.15-22L59.15-22Q60.3-22 61.5-21.6L61.5-21.6Q64.45-20.45 64.45-16.73 64.45-13 61.4-8.95 58.35-4.9 55.15-4.9L55.15-4.9Q51.55-4.9 51.55-8.8L51.55-8.8Q51.55-9.9 52.02-11.1 52.5-12.3 53.1-12.3L53.1-12.3Q53.55-12.3 53.55-11.85L53.55-11.85Q53.55-11.6 53.1-10.6 52.65-9.6 52.65-8.83 52.65-8.05 53.47-7.38 54.3-6.7 55.2-6.7L55.2-6.7Q58.15-6.7 60.67-10.33 63.2-13.95 63.2-17.4L63.2-17.4Q63.2-20.05 61.3-20.9L61.3-20.9Q60.65-21.15 59.95-21.15L59.95-21.15Q56.4-21.15 52.85-16.25L52.85-16.25Q49.4-11.3 49.4-5.4L49.4-5.4Q49.4-2.15 50.8-0.1L50.8-0.1Q52.25 2 54.8 2L54.8 2Q61.4 2 72-15.95L72-15.95Q66.5-17.6 66.5-22.45L66.5-22.45Q66.5-28.9 73.05-32.75L73.05-32.75Q77.2-35.15 81.1-35.15L81.1-35.15Q84.15-35.15 86.6-34.15L86.6-34.15Q90.05-32.8 90.05-30.05L90.05-30.05Q90.05-29.45 89.77-28.9 89.5-28.35 89.2-28.35L89.2-28.35Q88.55-29 87.65-29L87.65-29Q83.4-29 76-16.35L76-16.35Q76.4-16.3 76.85-16.3L76.85-16.3Q78.55-16.3 80.25-17.3 81.95-18.3 81.95-19.8ZM82.3-33.75Q79.75-33.75 76.42-32.27 73.1-30.8 71.12-27.95 69.15-25.1 69.15-21.5 69.15-17.9 72.85-17.2L72.85-17.2Q75.6-21.7 79.95-26.18 84.3-30.65 87.2-30.65L87.2-30.65Q87.95-30.65 88.5-30.3L88.5-30.3Q88.45-31.7 86.55-32.75L86.55-32.75Q84.85-33.75 82.3-33.75ZM96.2-2.05L96.2-2.05Q95-0.2 95 0.35 95 0.9 95.45 1.15L95.45 1.15Q95.45 1.2 94.55 1.9L94.55 1.9Q93.75 2.3 92.75 2.3 91.75 2.3 91.3 2.08 90.84 1.85 91 1.35L91 1.35Q91.7-0.9 96.25-7.68 100.8-14.45 102.34-17.25L102.34-17.25Q105.7-23.3 105.7-26.9L105.7-26.9Q105.7-28.4 105.2-29.45L105.2-29.45Q104.2-31.5 100.45-31.5L100.45-31.5Q94.59-31.5 88.34-26.45L88.34-26.45Q83.34-22.4 80.7-17.88 78.05-13.35 78.05-9.8L78.05-9.8Q78.05-4.7 82.55-4.6L82.55-4.6Q82.75-4.6 82.95-4.6L82.95-4.6Q88.7-4.6 91.84-8.75L91.84-8.75Q93.05-10.4 93.05-11.55 93.05-12.7 92.55-13L92.55-13Q92.5-13.05 92.5-13.2 92.5-13.35 92.8-13.35L92.8-13.35Q94.09-13.35 94.09-11.65L94.09-11.65Q94.09-10.6 93.07-8.8 92.05-7 89.45-5.4 86.84-3.8 83.39-3.8 79.95-3.8 77.89-5.95 75.84-8.1 75.84-11.6L75.84-11.6Q75.84-19.5 86.15-27.75L86.15-27.75Q88.8-29.85 93.12-31.2 97.45-32.55 101.4-32.55 105.34-32.55 106.77-31.18 108.19-29.8 108.19-27.5L108.19-27.5Q108.19-24 105.34-18.05L105.34-18.05Q104.45-16.2 101.3-11.3L101.3-11.3 105.15-16.2Q107.94-19.85 114.84-26.6L114.84-26.6Q116.34-28.05 118.17-29.03 120-30 121.3-30L121.3-30Q123.09-30 123.09-28.1L123.09-28.1Q123.09-26.45 121.52-23.13 119.95-19.8 118.34-16.82 116.75-13.85 116.4-12.93 116.05-12 115.9-11.45 115.75-10.9 115.7-10.85L115.7-10.85Q115.84-11.1 119-14.68 122.15-18.25 128.3-23.6L128.3-23.6 136.3-30.2Q137.25-31 138-31 138.75-31 139.22-29.75 139.69-28.5 139.69-27.73 139.69-26.95 137.3-24.5L137.3-24.5Q131.05-18.1 126.7-10.5 122.34-2.9 122.34 0.35L122.34 0.35Q122.34 1.2 122.65 1.53 122.95 1.85 123.59 1.73 124.25 1.6 126.32 0.7 128.4-0.2 129.05-0.35L129.05-0.35Q129.3-0.25 129.3-0.1L129.3-0.1Q129.3 0.65 126.67 2 124.05 3.35 122.72 3.35 121.4 3.35 121.09 2.9L121.09 2.9Q120.2 1.6 120.2-0.25L120.2-0.25Q120.2-4.55 124.8-12.6L124.8-12.6Q127.75-17.65 133.9-26.2L133.9-26.2Q129.09-22.3 120.9-14.25 112.69-6.2 110.15-1.65L110.15-1.65Q108.84 0.7 107 0.7L107 0.7Q106.15 0.7 106.15 0.1L106.15 0.1Q106.15-0.1 107.17-1.7 108.19-3.3 111.69-9.2L111.69-9.2Q120.3-24.15 120.3-27.2L120.3-27.2Q120.3-28 119.75-28L119.75-28Q118.95-28 117.4-26.65L117.4-26.65Q111.84-22 105.59-14.5 99.34-7 96.2-2.05ZM179.14-14.3L179.14-14.3 183.99-14.4Q185.79-14.4 185.79-14.15L185.79-14.15Q185.79-13.5 178.49-13L178.49-13Q173.84-3.9 173.84-0.6L173.84-0.6Q173.84 1.7 175.29 1.7L175.29 1.7Q175.84 1.7 176.67 1.03 177.49 0.35 177.67 0.35 177.84 0.35 177.84 0.6L177.84 0.6Q177.59 1.5 176.32 2.1 175.04 2.7 174.17 2.7 173.29 2.7 172.79 2.6L172.79 2.6Q171.59 2.15 171.59-0.3L171.59-0.3Q171.59-5.35 175.44-13.15L175.44-13.15 169.44-13Q162.74-6.45 155.99-1.5L155.99-1.5Q145.89 5.85 140.19 5.85L140.19 5.85Q139.84 5.85 139.49 5.8L139.49 5.8Q131.79 5.15 131.79-2.1L131.79-2.1Q131.79-6.4 134.49-11.2L134.49-11.2Q138.09-17.6 144.34-22.13 150.59-26.65 155.54-26.65 160.49-26.65 160.49-23L160.49-23Q160.49-20.55 158.99-17.55 157.49-14.55 155.94-13.75L155.94-13.75Q155.79-13.7 155.62-13.7 155.44-13.7 155.44-13.8L155.44-13.8 157.09-16.5Q158.79-19.15 158.79-21.15 158.79-23.15 157.92-24.38 157.04-25.6 155.14-25.6L155.14-25.6Q151.24-25.6 145.82-21.25 140.39-16.9 137.57-10.55 134.74-4.2 134.74-0.65L134.74-0.65Q134.74 4.7 140.19 4.7L140.19 4.7Q145.39 4.7 154.29-2L154.29-2Q158.24-4.95 167.14-13.15L167.14-13.15Q165.39-13.05 163.89-12.8L163.89-12.8Q160.69-12.2 160.89-13L160.89-13Q161.09-14.85 162.79-14.85L162.79-14.85Q166.09-14.45 168.34-14.45L168.34-14.45Q172.64-18.4 181.19-27.4L181.19-27.4Q186.94-33.45 188.19-33.45L188.19-33.45Q188.74-33.45 188.74-32.6 188.74-31.75 188.29-29.95 187.84-28.15 187.29-27.75L187.29-27.75Q186.14-26.95 185.14-25.58 184.14-24.2 182.29-20.43 180.44-16.65 179.14-14.3ZM183.14-26.5L183.14-26.5 170.34-14.5 173.29-14.5Q174.34-14.45 175.89-14.45L175.89-14.45Q177.34-17.3 183.14-26.5Z" opacity="1" transform="matrix(1,0,0,1,0,0)" fill="black" class="wordmark-text-0" id="SvgjsPath4592" stroke-width="5" stroke="black" stroke-linejoin="round"></path></svg></g></svg></g></svg></g></svg></g><g></g></svg></g></svg></g></svg></g></mask><g mask="url(#87d69ba7-524b-4726-9149-63ba0bf5ef74)"><g><path d="M146.071 209.913v0c-5.524 8.516-8.286 14.109-8.287 16.779 0 2.624 1.036 4.396 3.108 5.317v0c0 0.46-1.887 1.91-5.662 4.35-3.821 2.394-9.069 3.591-15.744 3.591-6.675 0-10.012-1.726-10.012-5.179v0c0-5.984 11.347-25.848 34.042-59.59 22.648-33.697 37.54-56.989 44.675-69.879v0c15.651-28.08 23.477-50.292 23.477-66.634v0c0-6.445-1.266-12.429-3.797-17.953v0c-3.913-8.286-13.35-12.429-28.311-12.429v0c-27.39 0-56.506 12.544-87.349 37.632v0c-23.477 19.334-41.545 39.359-54.204 60.074v0c-11.508 19.564-17.263 37.057-17.263 52.478v0c0 22.096 10.242 33.374 30.728 33.835v0c0.921 0 1.841 0 2.762 0v0c27.16 0 47.76-9.552 61.8-28.656v0c5.524-7.596 8.286-14.04 8.286-19.334 0-5.294-1.266-8.631-3.798-10.012v0c-0.23-0.23-0.345-0.691-0.345-1.381 0-0.691 0.691-1.036 2.071-1.036v0c5.984 0 8.977 3.913 8.977 11.739v0c0 4.834-2.302 11.393-6.905 19.679-4.603 8.286-12.935 16.112-24.997 23.477-12.107 7.365-25.871 11.048-41.292 11.048-15.421 0-27.62-4.488-36.596-13.465-8.977-8.977-13.465-21.06-13.465-36.251v0c0-35.906 24.628-73.654 73.884-113.243v0c12.429-9.897 28.587-18.183 48.473-24.858 19.933-6.675 38.024-10.012 54.274-10.012 16.204 0 27.643 3.038 34.318 9.115 6.675 6.122 10.012 14.593 10.012 25.41v0c0 26.239-15.882 63.411-47.645 111.516v0c7.135-8.977 18.759-20.37 34.871-34.18v0c57.312-48.105 106.568-79.753 147.767-94.944v0c2.072-0.921 4.373-1.381 6.905-1.381v0c8.746 0 14.27 4.949 16.572 14.846v0c1.151 3.913-4.373 12.084-16.572 24.513v0c-28.771 29.461-53.169 61.685-73.193 96.67-20.025 34.985-30.037 60.074-30.037 75.265v0c0 3.683 0.691 6.284 2.072 7.803 1.381 1.473 3.568 1.933 6.559 1.381 2.992-0.598 9.276-2.969 18.851-7.112 9.529-4.143 15.79-6.56 18.782-7.251v0c1.151 0.46 1.726 1.036 1.726 1.727v0c0 3.453-6.03 8.286-18.091 14.5-12.107 6.215-21.152 9.322-27.137 9.322-5.984 0-9.782-1.036-11.393-3.107v0c-4.143-5.754-6.215-13.004-6.215-21.751v0c0-19.794 10.588-48.22 31.763-85.277v0c13.58-23.247 34.525-54.55 62.836-93.909v0c-30.612 2.762-70.201 26.93-118.766 72.503v0c-38.668 36.597-66.173 68.015-82.515 94.254z" fill="#727272" fill-rule="nonzero" stroke="none" stroke-width="1" stroke-linecap="butt" stroke-linejoin="miter" stroke-miterlimit="10" stroke-dasharray="" stroke-dashoffset="0" font-family="none" font-weight="none" font-size="none" text-anchor="none" style="mix-blend-mode: normal" data-fill-palette-color="tertiary"></path></g></g><g transform="matrix(1,0,0,1,0,76.62370255615801)"><svg viewBox="0 0 395.52 93.95259488768396" height="93.95259488768396" width="395.52"><g><svg viewBox="0 0 395.52 93.95259488768396" height="93.95259488768396" width="395.52"><g><svg viewBox="0 0 395.52 93.95259488768396" height="93.95259488768396" width="395.52"><g><svg viewBox="0 0 395.52 93.95259488768396" height="93.95259488768396" width="395.52"><g id="textblocktransform"><svg viewBox="0 0 395.52 93.95259488768396" height="93.95259488768396" width="395.52" id="textblock"><g><svg viewBox="0 0 395.52 93.95259488768396" height="93.95259488768396" width="395.52"><g transform="matrix(1,0,0,1,0,0)"><svg width="395.52" viewBox="-2.9 -38.15 194.64000000000001 47" height="93.95259488768396" data-palette-color="#3a424c"><path d="M20.1-0.6L20.1-0.6Q18.9 1.25 18.9 1.83 18.9 2.4 19.35 2.6L19.35 2.6Q19.35 2.7 18.53 3.23 17.7 3.75 16.25 3.75 14.8 3.75 14.8 3L14.8 3Q14.8 1.7 19.73-5.63 24.65-12.95 26.2-15.75L26.2-15.75Q29.6-21.85 29.6-25.4L29.6-25.4Q29.6-26.8 29.05-28L29.05-28Q28.2-29.8 24.95-29.8L24.95-29.8Q19-29.8 12.3-24.35L12.3-24.35Q7.2-20.15 4.45-15.65L4.45-15.65Q1.95-11.4 1.95-8.05L1.95-8.05Q1.95-3.25 6.4-3.15L6.4-3.15Q6.6-3.15 6.8-3.15L6.8-3.15Q12.7-3.15 15.75-7.3L15.75-7.3Q16.95-8.95 16.95-10.1 16.95-11.25 16.4-11.55L16.4-11.55Q16.35-11.6 16.35-11.75 16.35-11.9 16.65-11.9L16.65-11.9Q17.95-11.9 17.95-10.2L17.95-10.2Q17.95-9.15 16.95-7.35 15.95-5.55 13.33-3.95 10.7-2.35 7.35-2.35 4-2.35 2.05-4.3 0.1-6.25 0.1-9.55L0.1-9.55Q0.1-17.35 10.8-25.95L10.8-25.95Q13.5-28.1 17.82-29.55 22.15-31 25.68-31 29.2-31 30.65-29.68 32.1-28.35 32.1-26L32.1-26Q32.1-20.3 25.2-9.85L25.2-9.85Q26.75-11.8 30.25-14.8L30.25-14.8Q42.7-25.25 51.65-28.55L51.65-28.55Q52.1-28.75 52.65-28.75L52.65-28.75Q54.55-28.75 55.05-26.6L55.05-26.6Q55.3-25.75 52.65-23.05L52.65-23.05Q46.4-16.65 42.05-9.05 37.7-1.45 37.7 1.85L37.7 1.85Q37.7 2.65 38 2.98 38.3 3.3 38.95 3.18 39.6 3.05 41.68 2.15 43.75 1.25 44.4 1.1L44.4 1.1Q44.65 1.2 44.65 1.35L44.65 1.35Q44.65 2.1 42.03 3.45 39.4 4.8 38.1 4.8 36.8 4.8 36.45 4.35L36.45 4.35Q35.55 3.1 35.55 1.2L35.55 1.2Q35.55-3.1 40.15-11.15L40.15-11.15Q43.1-16.2 49.25-24.75L49.25-24.75Q42.6-24.15 32.05-14.25L32.05-14.25Q23.65-6.3 20.1-0.6ZM81.95-19.8L81.95-19.8 81.6-21.15Q81.6-21.55 82-21.55L82-21.55Q82.15-21.55 82.4-21.4L82.4-21.4Q83.55-20.55 83.55-19.15 83.55-17.75 81.75-16.43 79.95-15.1 77.2-15.1L77.2-15.1Q76.35-15.1 75.5-15.25L75.5-15.25Q72.05-8.9 67.1-3.55L67.1-3.55Q60.5 3.45 55.1 3.45L55.1 3.45Q47.3 3.45 47.3-5.75L47.3-5.75Q47.3-13.35 51.35-18L51.35-18Q54.75-22 59.15-22L59.15-22Q60.3-22 61.5-21.6L61.5-21.6Q64.45-20.45 64.45-16.73 64.45-13 61.4-8.95 58.35-4.9 55.15-4.9L55.15-4.9Q51.55-4.9 51.55-8.8L51.55-8.8Q51.55-9.9 52.02-11.1 52.5-12.3 53.1-12.3L53.1-12.3Q53.55-12.3 53.55-11.85L53.55-11.85Q53.55-11.6 53.1-10.6 52.65-9.6 52.65-8.83 52.65-8.05 53.47-7.38 54.3-6.7 55.2-6.7L55.2-6.7Q58.15-6.7 60.67-10.33 63.2-13.95 63.2-17.4L63.2-17.4Q63.2-20.05 61.3-20.9L61.3-20.9Q60.65-21.15 59.95-21.15L59.95-21.15Q56.4-21.15 52.85-16.25L52.85-16.25Q49.4-11.3 49.4-5.4L49.4-5.4Q49.4-2.15 50.8-0.1L50.8-0.1Q52.25 2 54.8 2L54.8 2Q61.4 2 72-15.95L72-15.95Q66.5-17.6 66.5-22.45L66.5-22.45Q66.5-28.9 73.05-32.75L73.05-32.75Q77.2-35.15 81.1-35.15L81.1-35.15Q84.15-35.15 86.6-34.15L86.6-34.15Q90.05-32.8 90.05-30.05L90.05-30.05Q90.05-29.45 89.77-28.9 89.5-28.35 89.2-28.35L89.2-28.35Q88.55-29 87.65-29L87.65-29Q83.4-29 76-16.35L76-16.35Q76.4-16.3 76.85-16.3L76.85-16.3Q78.55-16.3 80.25-17.3 81.95-18.3 81.95-19.8ZM82.3-33.75Q79.75-33.75 76.42-32.27 73.1-30.8 71.12-27.95 69.15-25.1 69.15-21.5 69.15-17.9 72.85-17.2L72.85-17.2Q75.6-21.7 79.95-26.18 84.3-30.65 87.2-30.65L87.2-30.65Q87.95-30.65 88.5-30.3L88.5-30.3Q88.45-31.7 86.55-32.75L86.55-32.75Q84.85-33.75 82.3-33.75ZM96.2-2.05L96.2-2.05Q95-0.2 95 0.35 95 0.9 95.45 1.15L95.45 1.15Q95.45 1.2 94.55 1.9L94.55 1.9Q93.75 2.3 92.75 2.3 91.75 2.3 91.3 2.08 90.84 1.85 91 1.35L91 1.35Q91.7-0.9 96.25-7.68 100.8-14.45 102.34-17.25L102.34-17.25Q105.7-23.3 105.7-26.9L105.7-26.9Q105.7-28.4 105.2-29.45L105.2-29.45Q104.2-31.5 100.45-31.5L100.45-31.5Q94.59-31.5 88.34-26.45L88.34-26.45Q83.34-22.4 80.7-17.88 78.05-13.35 78.05-9.8L78.05-9.8Q78.05-4.7 82.55-4.6L82.55-4.6Q82.75-4.6 82.95-4.6L82.95-4.6Q88.7-4.6 91.84-8.75L91.84-8.75Q93.05-10.4 93.05-11.55 93.05-12.7 92.55-13L92.55-13Q92.5-13.05 92.5-13.2 92.5-13.35 92.8-13.35L92.8-13.35Q94.09-13.35 94.09-11.65L94.09-11.65Q94.09-10.6 93.07-8.8 92.05-7 89.45-5.4 86.84-3.8 83.39-3.8 79.95-3.8 77.89-5.95 75.84-8.1 75.84-11.6L75.84-11.6Q75.84-19.5 86.15-27.75L86.15-27.75Q88.8-29.85 93.12-31.2 97.45-32.55 101.4-32.55 105.34-32.55 106.77-31.18 108.19-29.8 108.19-27.5L108.19-27.5Q108.19-24 105.34-18.05L105.34-18.05Q104.45-16.2 101.3-11.3L101.3-11.3 105.15-16.2Q107.94-19.85 114.84-26.6L114.84-26.6Q116.34-28.05 118.17-29.03 120-30 121.3-30L121.3-30Q123.09-30 123.09-28.1L123.09-28.1Q123.09-26.45 121.52-23.13 119.95-19.8 118.34-16.82 116.75-13.85 116.4-12.93 116.05-12 115.9-11.45 115.75-10.9 115.7-10.85L115.7-10.85Q115.84-11.1 119-14.68 122.15-18.25 128.3-23.6L128.3-23.6 136.3-30.2Q137.25-31 138-31 138.75-31 139.22-29.75 139.69-28.5 139.69-27.73 139.69-26.95 137.3-24.5L137.3-24.5Q131.05-18.1 126.7-10.5 122.34-2.9 122.34 0.35L122.34 0.35Q122.34 1.2 122.65 1.53 122.95 1.85 123.59 1.73 124.25 1.6 126.32 0.7 128.4-0.2 129.05-0.35L129.05-0.35Q129.3-0.25 129.3-0.1L129.3-0.1Q129.3 0.65 126.67 2 124.05 3.35 122.72 3.35 121.4 3.35 121.09 2.9L121.09 2.9Q120.2 1.6 120.2-0.25L120.2-0.25Q120.2-4.55 124.8-12.6L124.8-12.6Q127.75-17.65 133.9-26.2L133.9-26.2Q129.09-22.3 120.9-14.25 112.69-6.2 110.15-1.65L110.15-1.65Q108.84 0.7 107 0.7L107 0.7Q106.15 0.7 106.15 0.1L106.15 0.1Q106.15-0.1 107.17-1.7 108.19-3.3 111.69-9.2L111.69-9.2Q120.3-24.15 120.3-27.2L120.3-27.2Q120.3-28 119.75-28L119.75-28Q118.95-28 117.4-26.65L117.4-26.65Q111.84-22 105.59-14.5 99.34-7 96.2-2.05ZM179.14-14.3L179.14-14.3 183.99-14.4Q185.79-14.4 185.79-14.15L185.79-14.15Q185.79-13.5 178.49-13L178.49-13Q173.84-3.9 173.84-0.6L173.84-0.6Q173.84 1.7 175.29 1.7L175.29 1.7Q175.84 1.7 176.67 1.03 177.49 0.35 177.67 0.35 177.84 0.35 177.84 0.6L177.84 0.6Q177.59 1.5 176.32 2.1 175.04 2.7 174.17 2.7 173.29 2.7 172.79 2.6L172.79 2.6Q171.59 2.15 171.59-0.3L171.59-0.3Q171.59-5.35 175.44-13.15L175.44-13.15 169.44-13Q162.74-6.45 155.99-1.5L155.99-1.5Q145.89 5.85 140.19 5.85L140.19 5.85Q139.84 5.85 139.49 5.8L139.49 5.8Q131.79 5.15 131.79-2.1L131.79-2.1Q131.79-6.4 134.49-11.2L134.49-11.2Q138.09-17.6 144.34-22.13 150.59-26.65 155.54-26.65 160.49-26.65 160.49-23L160.49-23Q160.49-20.55 158.99-17.55 157.49-14.55 155.94-13.75L155.94-13.75Q155.79-13.7 155.62-13.7 155.44-13.7 155.44-13.8L155.44-13.8 157.09-16.5Q158.79-19.15 158.79-21.15 158.79-23.15 157.92-24.38 157.04-25.6 155.14-25.6L155.14-25.6Q151.24-25.6 145.82-21.25 140.39-16.9 137.57-10.55 134.74-4.2 134.74-0.65L134.74-0.65Q134.74 4.7 140.19 4.7L140.19 4.7Q145.39 4.7 154.29-2L154.29-2Q158.24-4.95 167.14-13.15L167.14-13.15Q165.39-13.05 163.89-12.8L163.89-12.8Q160.69-12.2 160.89-13L160.89-13Q161.09-14.85 162.79-14.85L162.79-14.85Q166.09-14.45 168.34-14.45L168.34-14.45Q172.64-18.4 181.19-27.4L181.19-27.4Q186.94-33.45 188.19-33.45L188.19-33.45Q188.74-33.45 188.74-32.6 188.74-31.75 188.29-29.95 187.84-28.15 187.29-27.75L187.29-27.75Q186.14-26.95 185.14-25.58 184.14-24.2 182.29-20.43 180.44-16.65 179.14-14.3ZM183.14-26.5L183.14-26.5 170.34-14.5 173.29-14.5Q174.34-14.45 175.89-14.45L175.89-14.45Q177.34-17.3 183.14-26.5Z" opacity="1" transform="matrix(1,0,0,1,0,0)" fill="#ffff00" class="wordmark-text-0" data-fill-palette-color="primary" id="text-0"></path></svg></g></svg></g></svg></g></svg></g><g></g></svg></g></svg></g></svg></g></svg></g><defs></defs></svg><rect width="395.52" height="247.2" fill="none" stroke="none" visibility="hidden"></rect></g></svg></g></svg>